Jost-BookItalic.ufo
<glyph name="quotedbl" format="2">
  <advance width="451"/>
  <unicode hex="0022"/>
  <outline>
    <contour>
      <point x="215.5" y="699.5" type="line"/>
      <point x="311.5" y="699.5" type="line"/>
      <point x="176.5" y="401" type="line"/>
      <point x="121.5" y="400.5" type="line"/>
    </contour>
    <contour>
      <point x="390" y="699.5" type="line"/>
      <point x="486" y="699.5" type="line"/>
      <point x="351" y="401" type="line"/>
      <point x="296" y="400.5" type="line"/>
    </contour>
  </outline>
</glyph>
<glyph name="percent" format="2">
  <advance width="728"/>
  <unicode hex="0025"/>
  <outline>
    <contour>
      <point x="100" y="550.5" type="curve" smooth="yes"/>
      <point x="113" y="636.5"/>
      <point x="186" y="709.5"/>
      <point x="278.5" y="709.5" type="curve" smooth="yes"/>
      <point x="370.5" y="709.5"/>
      <point x="420.5" y="633"/>
      <point x="408.5" y="549.5" type="curve" smooth="yes"/>
      <point x="395.5" y="463.5"/>
      <point x="322" y="390.5"/>
      <point x="229.5" y="390.5" type="curve" smooth="yes"/>
      <point x="137.5" y="390.5"/>
      <point x="88" y="467"/>
    </contour>
    <contour>
      <point x="169.5" y="550" type="curve" smooth="yes"/>
      <point x="162.5" y="504.5"/>
      <point x="183" y="457"/>
      <point x="235.5" y="455.5" type="curve" smooth="yes"/>
      <point x="288.5" y="454"/>
      <point x="330.5" y="502"/>
      <point x="338.5" y="550" type="curve" smooth="yes"/>
      <point x="345.5" y="595.5"/>
      <point x="325.5" y="643"/>
      <point x="273" y="644.5" type="curve" smooth="yes"/>
      <point x="220" y="646"/>
      <point x="177.5" y="598"/>
    </contour>
    <contour>
      <point x="386" y="150.5" type="curve" smooth="yes"/>
      <point x="399" y="236.5"/>
      <point x="472" y="309.5"/>
      <point x="564.5" y="309.5" type="curve" smooth="yes"/>
      <point x="656.5" y="309.5"/>
      <point x="706" y="233"/>
      <point x="694" y="149.5" type="curve" smooth="yes"/>
      <point x="681" y="63.5"/>
      <point x="608" y="-9.5"/>
      <point x="515.5" y="-9.5" type="curve" smooth="yes"/>
      <point x="423.5" y="-9.5"/>
      <point x="374" y="67"/>
    </contour>
    <contour>
      <point x="455.5" y="150" type="curve" smooth="yes"/>
      <point x="448.5" y="104.5"/>
      <point x="469" y="57"/>
      <point x="521.5" y="55.5" type="curve" smooth="yes"/>
      <point x="574.5" y="54"/>
      <point x="616.5" y="102"/>
      <point x="624.5" y="150" type="curve" smooth="yes"/>
      <point x="631.5" y="195.5"/>
      <point x="611" y="243"/>
      <point x="558.5" y="244.5" type="curve" smooth="yes"/>
      <point x="505.5" y="246"/>
      <point x="463.5" y="198"/>
    </contour>
    <contour>
      <point x="636.5" y="699.5" type="line"/>
      <point x="714.5" y="699.5" type="line"/>
      <point x="157" y="0" type="line"/>
      <point x="82" y="0" type="line"/>
    </contour>
  </outline>
</glyph>
<glyph name="parenright" format="2">
  <advance width="300"/>
  <unicode hex="0029"/>
  <outline>
    <contour>
      <point x="55.5" y="-199" type="curve"/>
      <point x="-19" y="-199" type="line"/>
      <point x="69.5" y="-49.5"/>
      <point x="125.5" y="117.5"/>
      <point x="153" y="290" type="curve" smooth="yes"/>
      <point x="177.5" y="454.5"/>
      <point x="176" y="622.5"/>
      <point x="131" y="780.5" type="curve"/>
      <point x="204" y="780.5" type="line"/>
      <point x="258" y="623"/>
      <point x="266" y="454.5"/>
      <point x="242" y="290" type="curve" smooth="yes"/>
      <point x="215" y="116"/>
      <point x="154" y="-52"/>
    </contour>
  </outline>
</glyph>
<glyph name="hyphen" format="2">
  <advance width="203"/>
  <unicode hex="002D"/>
  <outline>
    <contour>
      <point x="12" y="200.5" type="line"/>
      <point x="24.5" y="275" type="line"/>
      <point x="220.5" y="275" type="line"/>
      <point x="207.5" y="200.5" type="line"/>
    </contour>
  </outline>
</glyph>
<glyph name="period" format="2">
  <advance width="291"/>
  <unicode hex="002E"/>
  <outline>
    <contour>
      <point x="70.5" y="40" type="curve" smooth="yes"/>
      <point x="70.5" y="70"/>
      <point x="95" y="94.5"/>
      <point x="125" y="94.5" type="curve" smooth="yes"/>
      <point x="155" y="94.5"/>
      <point x="179.5" y="70"/>
      <point x="179.5" y="40" type="curve" smooth="yes"/>
      <point x="179.5" y="10"/>
      <point x="155" y="-14.5"/>
      <point x="125" y="-14.5" type="curve" smooth="yes"/>
      <point x="95" y="-14.5"/>
      <point x="70.5" y="10"/>
    </contour>
  </outline>
</glyph>
<glyph name="two" format="2">
  <advance width="552"/>
  <unicode hex="0032"/>
  <outline>
    <contour>
      <point x="2" y="0" type="line"/>
      <point x="375.5" y="353" type="line" smooth="yes"/>
      <point x="422.5" y="398"/>
      <point x="462.5" y="446.5"/>
      <point x="472" y="506" type="curve" smooth="yes"/>
      <point x="481.5" y="568"/>
      <point x="440" y="629.5"/>
      <point x="363" y="630.5" type="curve" smooth="yes"/>
      <point x="269" y="632"/>
      <point x="212" y="553"/>
      <point x="195" y="460.5" type="curve"/>
      <point x="111.5" y="460.5" type="line"/>
      <point x="134.5" y="597.5"/>
      <point x="224" y="711"/>
      <point x="370" y="710.5" type="curve" smooth="yes"/>
      <point x="502.5" y="710"/>
      <point x="573" y="605"/>
      <point x="558" y="509" type="curve" smooth="yes"/>
      <point x="547" y="432.5"/>
      <point x="497" y="361.5"/>
      <point x="438" y="307" type="curve" smooth="yes"/>
      <point x="186.5" y="80.5" type="line"/>
      <point x="495.5" y="80" type="line"/>
      <point x="483" y="0" type="line"/>
    </contour>
  </outline>
</glyph>
<glyph name="six" format="2">
  <advance width="558"/>
  <unicode hex="0036"/>
  <outline>
    <contour>
      <point x="145.5" y="230" type="curve" smooth="yes"/>
      <point x="133" y="145"/>
      <point x="180.5" y="68"/>
      <point x="270" y="67.5" type="curve" smooth="yes"/>
      <point x="361" y="67"/>
      <point x="436" y="140.5"/>
      <point x="450" y="230" type="curve" smooth="yes"/>
      <point x="462.5" y="315"/>
      <point x="416" y="394"/>
      <point x="326" y="394.5" type="curve" smooth="yes"/>
      <point x="235" y="395"/>
      <point x="159.5" y="319.5"/>
    </contour>
    <contour>
      <point x="409" y="699.5" type="line"/>
      <point x="517.5" y="699.5" type="line"/>
      <point x="259" y="411.5" type="line"/>
      <point x="252" y="418" type="line"/>
      <point x="282.5" y="445"/>
      <point x="317.5" y="457"/>
      <point x="360.5" y="456.5" type="curve" smooth="yes"/>
      <point x="478" y="455"/>
      <point x="544" y="345"/>
      <point x="529.5" y="230" type="curve" smooth="yes"/>
      <point x="511.5" y="94.5"/>
      <point x="399" y="-9.5"/>
      <point x="263.5" y="-9.5" type="curve" smooth="yes"/>
      <point x="129" y="-9.5"/>
      <point x="49" y="99"/>
      <point x="66" y="230" type="curve" smooth="yes"/>
      <point x="73.5" y="285.5"/>
      <point x="97.5" y="336"/>
      <point x="130" y="375" type="curve" smooth="yes"/>
    </contour>
  </outline>
</glyph>
<glyph name="nine" format="2">
  <advance width="558"/>
  <unicode hex="0039"/>
  <outline>
    <contour>
      <point x="487" y="470" type="curve" smooth="yes"/>
      <point x="499.5" y="555"/>
      <point x="452" y="632"/>
      <point x="362.5" y="632.5" type="curve" smooth="yes"/>
      <point x="271.5" y="633"/>
      <point x="196.5" y="559.5"/>
      <point x="182.5" y="470" type="curve" smooth="yes"/>
      <point x="170" y="385"/>
      <point x="216.5" y="306"/>
      <point x="306.5" y="305.5" type="curve" smooth="yes"/>
      <point x="397.5" y="305"/>
      <point x="473" y="380.5"/>
    </contour>
    <contour>
      <point x="223.5" y="0" type="line"/>
      <point x="115" y="0" type="line"/>
      <point x="373.5" y="288.5" type="line"/>
      <point x="380.5" y="282" type="line"/>
      <point x="350" y="255"/>
      <point x="315" y="243"/>
      <point x="272" y="243.5" type="curve" smooth="yes"/>
      <point x="154.5" y="245"/>
      <point x="88.5" y="355"/>
      <point x="103" y="470" type="curve" smooth="yes"/>
      <point x="121" y="605.5"/>
      <point x="233.5" y="709.5"/>
      <point x="369" y="709.5" type="curve" smooth="yes"/>
      <point x="503.5" y="709.5"/>
      <point x="583.5" y="601"/>
      <point x="566.5" y="470" type="curve" smooth="yes"/>
      <point x="559" y="414.5"/>
      <point x="535" y="364"/>
      <point x="502.5" y="325" type="curve" smooth="yes"/>
    </contour>
  </outline>
</glyph>
<glyph name="colon" format="2">
  <advance width="291"/>
  <unicode hex="003A"/>
  <outline>
    <contour>
      <point x="70.5" y="40" type="curve" smooth="yes"/>
      <point x="70.5" y="70"/>
      <point x="95" y="94.5"/>
      <point x="125" y="94.5" type="curve" smooth="yes"/>
      <point x="155" y="94.5"/>
      <point x="179.5" y="70"/>
      <point x="179.5" y="40" type="curve" smooth="yes"/>
      <point x="179.5" y="10"/>
      <point x="155" y="-14.5"/>
      <point x="125" y="-14.5" type="curve" smooth="yes"/>
      <point x="95" y="-14.5"/>
      <point x="70.5" y="10"/>
    </contour>
    <contour>
      <point x="135.5" y="420" type="curve" smooth="yes"/>
      <point x="135.5" y="450"/>
      <point x="160" y="474.5"/>
      <point x="190" y="474.5" type="curve" smooth="yes"/>
      <point x="220" y="474.5"/>
      <point x="244.5" y="450"/>
      <point x="244.5" y="420" type="curve" smooth="yes"/>
      <point x="244.5" y="390"/>
      <point x="220" y="365.5"/>
      <point x="190" y="365.5" type="curve" smooth="yes"/>
      <point x="160" y="365.5"/>
      <point x="135.5" y="390"/>
    </contour>
  </outline>
</glyph>
<glyph name="question" format="1">
  <advance width="540"/>
  <unicode hex="003F"/>
  <outline>
    <contour>
      <point x="461.5" y="500" type="curve" smooth="yes"/>
      <point x="475" y="578.5"/>
      <point x="429.5" y="634"/>
      <point x="345" y="634.5" type="curve" smooth="yes"/>
      <point x="279" y="635"/>
      <point x="229" y="598"/>
      <point x="190.5" y="552.5" type="curve"/>
      <point x="131.5" y="594.5" type="line"/>
      <point x="188" y="661"/>
      <point x="254.5" y="710.5"/>
      <point x="362" y="709.5" type="curve" smooth="yes"/>
      <point x="482.5" y="708.5"/>
      <point x="558.5" y="612.5"/>
      <point x="541.5" y="499.5" type="curve" smooth="yes"/>
      <point x="522.5" y="383"/>
      <point x="415.5" y="303.5"/>
      <point x="301.5" y="290" type="curve"/>
      <point x="272.5" y="170.5" type="line"/>
      <point x="213.5" y="170.5" type="line"/>
      <point x="222.5" y="345" type="line"/>
      <point x="247" y="345" type="line"/>
      <point x="355" y="347.5"/>
      <point x="444" y="415"/>
    </contour>
    <contour>
      <point x="168" y="40" type="curve" smooth="yes"/>
      <point x="168" y="69.8692"/>
      <point x="192.41" y="94.5"/>
      <point x="222.5" y="94.5" type="curve" smooth="yes"/>
      <point x="253.5" y="94.5"/>
      <point x="277" y="68.3418"/>
      <point x="277" y="40" type="curve" smooth="yes"/>
      <point x="277" y="10"/>
      <point x="252.5" y="-14.5"/>
      <point x="222.5" y="-14.5" type="curve" smooth="yes"/>
      <point x="191.417" y="-14.5"/>
      <point x="168" y="11"/>
    </contour>
  </outline>
</glyph>
<glyph name="at" format="2">
  <advance width="747"/>
  <unicode hex="0040"/>
  <outline>
    <contour>
      <point x="285.5" y="320" type="curve" smooth="yes"/>
      <point x="278.5" y="272"/>
      <point x="294.5" y="232.5"/>
      <point x="347" y="230.5" type="curve" smooth="yes"/>
      <point x="408.5" y="227.5"/>
      <point x="477.5" y="285.5"/>
      <point x="487.5" y="370" type="curve" smooth="yes"/>
      <point x="494" y="418.5"/>
      <point x="471" y="458.5"/>
      <point x="421" y="459.5" type="curve" smooth="yes"/>
      <point x="358" y="461"/>
      <point x="295.5" y="393"/>
    </contour>
    <contour>
      <point x="210.5" y="317.5" type="curve" smooth="yes"/>
      <point x="225" y="436"/>
      <point x="329" y="532.5"/>
      <point x="427.5" y="529.5" type="curve" smooth="yes"/>
      <point x="513" y="527.5"/>
      <point x="533" y="441"/>
      <point x="523" y="369.5" type="curve" smooth="yes"/>
      <point x="508" y="251.5"/>
      <point x="425" y="159"/>
      <point x="321" y="160.5" type="curve" smooth="yes"/>
      <point x="241.5" y="162"/>
      <point x="200" y="233"/>
    </contour>
    <contour>
      <point x="60.5" y="320" type="curve" smooth="yes"/>
      <point x="93.5" y="530.5"/>
      <point x="270.5" y="711"/>
      <point x="493.5" y="710" type="curve" smooth="yes"/>
      <point x="690" y="709"/>
      <point x="780" y="548"/>
      <point x="754" y="390" type="curve" smooth="yes"/>
      <point x="737.5" y="252.5"/>
      <point x="639" y="145.5"/>
      <point x="540.5" y="150" type="curve" smooth="yes"/>
      <point x="474.5" y="152.5"/>
      <point x="459" y="212"/>
      <point x="471.5" y="270.5" type="curve"/>
      <point x="464.5" y="270.5" type="line"/>
      <point x="541.5" y="519.5" type="line"/>
      <point x="617" y="519.5" type="line"/>
      <point x="535.5" y="289" type="line" smooth="yes"/>
      <point x="533" y="281"/>
      <point x="529.5" y="270.5"/>
      <point x="528.5" y="262" type="curve" smooth="yes"/>
      <point x="526" y="240.5"/>
      <point x="528.5" y="219.5"/>
      <point x="556.5" y="216.5" type="curve" smooth="yes"/>
      <point x="606.5" y="207"/>
      <point x="675.5" y="302.5"/>
      <point x="684.5" y="390" type="curve" smooth="yes"/>
      <point x="707" y="517"/>
      <point x="644.5" y="643"/>
      <point x="488.5" y="644.5" type="curve" smooth="yes"/>
      <point x="302" y="646"/>
      <point x="159" y="494"/>
      <point x="130" y="320" type="curve" smooth="yes"/>
      <point x="107.5" y="174.5"/>
      <point x="178.5" y="57.5"/>
      <point x="333.5" y="55.5" type="curve" smooth="yes"/>
      <point x="405.5" y="54.5"/>
      <point x="473" y="71.5"/>
      <point x="539" y="107" type="curve"/>
      <point x="565" y="48.5" type="line"/>
      <point x="497.5" y="13"/>
      <point x="427" y="-10"/>
      <point x="328.5" y="-9.5" type="curve" smooth="yes"/>
      <point x="125.5" y="-8"/>
      <point x="33" y="136"/>
    </contour>
  </outline>
</glyph>
<glyph name="A" format="2">
  <advance width="640"/>
  <unicode hex="0041"/>
  <outline>
    <contour>
      <point x="151.5" y="210" type="line"/>
      <point x="193" y="289.5" type="line"/>
      <point x="495.5" y="289.5" type="line"/>
      <point x="511.5" y="210" type="line"/>
    </contour>
    <contour>
      <point x="388" y="542" type="line"/>
      <point x="225.5" y="264" type="line"/>
      <point x="215" y="246" type="line"/>
      <point x="71" y="0" type="line"/>
      <point x="-25" y="0" type="line"/>
      <point x="418.5" y="736.5" type="line"/>
      <point x="608" y="0" type="line"/>
      <point x="516.5" y="0" type="line"/>
      <point x="458.5" y="240" type="line"/>
      <point x="454.5" y="260" type="line"/>
    </contour>
  </outline>
</glyph>
<glyph name="D" format="1">
  <advance width="659"/>
  <unicode hex="0044"/>
  <outline>
    <contour>
      <point x="168.5" y="699.5" type="line"/>
      <point x="254" y="700" type="line"/>
      <point x="133" y="0" type="line"/>
      <point x="51" y="0" type="line"/>
    </contour>
    <contour>
      <point x="257.5" y="0" type="curve" smooth="yes"/>
      <point x="95" y="0" type="line"/>
      <point x="110" y="85" type="line"/>
      <point x="266" y="85" type="line" smooth="yes"/>
      <point x="423.5" y="85"/>
      <point x="544.5" y="195.5"/>
      <point x="570.5" y="350" type="curve" smooth="yes"/>
      <point x="594" y="497"/>
      <point x="516.5" y="615"/>
      <point x="362" y="615" type="curve" smooth="yes"/>
      <point x="200" y="615" type="line"/>
      <point x="215" y="700" type="line"/>
      <point x="370.5" y="700" type="line" smooth="yes"/>
      <point x="570.5" y="700"/>
      <point x="683" y="542"/>
      <point x="654.5" y="350" type="curve" smooth="yes"/>
      <point x="623.5" y="150"/>
      <point x="461.5" y="0"/>
    </contour>
  </outline>
</glyph>
<glyph name="F" format="2">
  <advance width="485"/>
  <unicode hex="0046"/>
  <outline>
    <contour>
      <point x="202.5" y="620" type="line"/>
      <point x="215.5" y="700" type="line"/>
      <point x="521" y="700" type="line"/>
      <point x="507.5" y="620" type="line"/>
    </contour>
    <contour>
      <point x="154.5" y="340.5" type="line"/>
      <point x="168" y="420" type="line"/>
      <point x="463.5" y="420" type="line"/>
      <point x="450" y="340" type="line"/>
    </contour>
    <contour>
      <point x="168.5" y="700" type="line"/>
      <point x="254" y="700" type="line"/>
      <point x="133" y="0" type="line"/>
      <point x="51" y="0" type="line"/>
    </contour>
  </outline>
</glyph>
<glyph name="K" format="2">
  <advance width="548"/>
  <unicode hex="004B"/>
  <outline>
    <contour>
      <point x="168.5" y="700" type="line"/>
      <point x="254" y="700" type="line"/>
      <point x="133" y="0" type="line"/>
      <point x="51" y="0" type="line"/>
    </contour>
    <contour>
      <point x="517" y="699.5" type="line"/>
      <point x="624" y="699.5" type="line"/>
      <point x="270.5" y="370" type="line"/>
      <point x="515" y="0" type="line"/>
      <point x="416" y="0" type="line"/>
      <point x="171" y="372.5" type="line"/>
    </contour>
  </outline>
</glyph>
<glyph name="L" format="2">
  <advance width="436"/>
  <unicode hex="004C"/>
  <outline>
    <contour>
      <point x="169.5" y="700" type="line"/>
      <point x="254" y="700" type="line"/>
      <point x="147.5" y="80" type="line"/>
      <point x="414.5" y="80" type="line"/>
      <point x="400.5" y="0" type="line"/>
      <point x="49.5" y="0" type="line"/>
    </contour>
  </outline>
</glyph>
<glyph name="M" format="1">
  <advance width="786"/>
  <unicode hex="004D"/>
  <outline>
    <contour>
      <point x="227" y="472.5" type="line"/>
      <point x="95" y="0" type="line"/>
      <point x="10" y="0" type="line"/>
      <point x="219.5" y="735.5" type="line"/>
      <point x="403.5" y="229.5" type="line"/>
      <point x="765.5" y="739" type="line"/>
      <point x="720" y="0" type="line"/>
      <point x="636.5" y="0" type="line"/>
      <point x="667" y="468.5" type="line"/>
      <point x="377.5" y="64" type="line"/>
    </contour>
  </outline>
</glyph>
<glyph name="N" format="2">
  <advance width="752"/>
  <unicode hex="004E"/>
  <outline>
    <contour>
      <point x="684" y="700" type="line"/>
      <point x="768" y="700" type="line"/>
      <point x="642" y="-34" type="line"/>
      <point x="223.5" y="521.5" type="line"/>
      <point x="133.5" y="0" type="line"/>
      <point x="49" y="0" type="line"/>
      <point x="175" y="734" type="line"/>
      <point x="594" y="178.5" type="line"/>
    </contour>
  </outline>
</glyph>
<glyph name="S" format="1">
  <advance width="531"/>
  <unicode hex="0053"/>
  <outline>
    <contour>
      <point x="119" y="226" type="line"/>
      <point x="144" y="142.5"/>
      <point x="180.5" y="71"/>
      <point x="268" y="70.5" type="curve" smooth="yes"/>
      <point x="342.5" y="70"/>
      <point x="394.5" y="116"/>
      <point x="406.5" y="183" type="curve" smooth="yes"/>
      <point x="421.5" y="268.5"/>
      <point x="348.5" y="308"/>
      <point x="276.5" y="338" type="curve" smooth="yes"/>
      <point x="201" y="370"/>
      <point x="120.5" y="418"/>
      <point x="135.5" y="530.5" type="curve" smooth="yes"/>
      <point x="152" y="635.5"/>
      <point x="244.5" y="709.5"/>
      <point x="361" y="709.5" type="curve" smooth="yes"/>
      <point x="465" y="709.5"/>
      <point x="521" y="642"/>
      <point x="548.5" y="559" type="curve"/>
      <point x="475" y="514.5" type="line"/>
      <point x="453.5" y="572"/>
      <point x="416" y="628"/>
      <point x="344" y="628.5" type="curve" smooth="yes"/>
      <point x="279.5" y="629"/>
      <point x="232" y="587.5"/>
      <point x="222.5" y="529" type="curve" smooth="yes"/>
      <point x="210" y="458"/>
      <point x="285.5" y="425.5"/>
      <point x="354.5" y="396" type="curve" smooth="yes"/>
      <point x="432.5" y="361.5"/>
      <point x="509" y="300.5"/>
      <point x="494.5" y="189.5" type="curve" smooth="yes"/>
      <point x="477.5" y="74"/>
      <point x="379" y="-9.5"/>
      <point x="255.5" y="-9.5" type="curve" smooth="yes"/>
      <point x="141" y="-9.5"/>
      <point x="71" y="76"/>
      <point x="42.5" y="184" type="curve"/>
    </contour>
  </outline>
</glyph>
<glyph name="T" format="2">
  <advance width="451"/>
  <unicode hex="0054"/>
  <outline>
    <contour>
      <point x="87" y="620" type="line"/>
      <point x="101.5" y="700" type="line"/>
      <point x="535" y="700" type="line"/>
      <point x="521" y="620" type="line"/>
      <point x="346.5" y="620" type="line"/>
      <point x="240" y="0" type="line"/>
      <point x="156" y="0" type="line"/>
      <point x="262.5" y="620" type="line"/>
    </contour>
  </outline>
</glyph>
<glyph name="W" format="2">
  <advance width="960"/>
  <unicode hex="0057"/>
  <outline>
    <contour>
      <point x="688.5" y="177.5" type="line"/>
      <point x="948.5" y="699.5" type="line"/>
      <point x="1044" y="699.5" type="line"/>
      <point x="661.5" y="-37" type="line"/>
      <point x="542.5" y="507" type="line"/>
      <point x="254" y="-37" type="line"/>
      <point x="100.5" y="700" type="line"/>
      <point x="192.5" y="700" type="line"/>
      <point x="290.5" y="177.5" type="line"/>
      <point x="577" y="737" type="line"/>
    </contour>
  </outline>
</glyph>
<glyph name="bracketleft" format="2">
  <advance width="291"/>
  <unicode hex="005B"/>
  <outline>
    <contour>
      <point x="267" y="705" type="line"/>
      <point x="135" y="-145" type="line"/>
      <point x="233.5" y="-145" type="line"/>
      <point x="221.5" y="-220" type="line"/>
      <point x="45" y="-220" type="line"/>
      <point x="199.5" y="780" type="line"/>
      <point x="376" y="780" type="line"/>
      <point x="364.5" y="705.5" type="line"/>
    </contour>
  </outline>
</glyph>
<glyph name="j" format="2">
  <advance width="242"/>
  <unicode hex="006A"/>
  <outline>
    <contour>
      <point x="145.5" y="650" type="curve" smooth="yes"/>
      <point x="145.5" y="680"/>
      <point x="170" y="704.5"/>
      <point x="200" y="704.5" type="curve" smooth="yes"/>
      <point x="230" y="704.5"/>
      <point x="254.5" y="680"/>
      <point x="254.5" y="650" type="curve" smooth="yes"/>
      <point x="254.5" y="620"/>
      <point x="230" y="595.5"/>
      <point x="200" y="595.5" type="curve" smooth="yes"/>
      <point x="170" y="595.5"/>
      <point x="145.5" y="620"/>
    </contour>
    <contour>
      <point x="-65" y="-114.5" type="line"/>
      <point x="-54" y="-132.5"/>
      <point x="-36.5" y="-140"/>
      <point x="-22.5" y="-140.5" type="curve" smooth="yes"/>
      <point x="13.5" y="-142.5"/>
      <point x="35.5" y="-98"/>
      <point x="41" y="-50" type="curve" smooth="yes"/>
      <point x="128.5" y="460" type="line"/>
      <point x="208" y="460" type="line"/>
      <point x="119.5" y="-60.5" type="line" smooth="yes"/>
      <point x="105.5" y="-153"/>
      <point x="57.5" y="-221.5"/>
      <point x="-30.5" y="-219.5" type="curve" smooth="yes"/>
      <point x="-69" y="-219"/>
      <point x="-99" y="-200.5"/>
      <point x="-117.5" y="-178.5" type="curve"/>
    </contour>
  </outline>
</glyph>
<glyph name="m" format="1">
  <advance width="756"/>
  <unicode hex="006D"/>
  <outline>
    <contour>
      <point x="360.5" y="280" type="line" smooth="yes"/>
      <point x="367.5" y="340.5"/>
      <point x="363" y="392.5"/>
      <point x="297.5" y="394" type="curve" smooth="yes"/>
      <point x="228" y="396"/>
      <point x="186.5" y="341"/>
      <point x="171.5" y="281" type="curve"/>
      <point x="145" y="281" type="line"/>
      <point x="163.5" y="378.5"/>
      <point x="224" y="469"/>
      <point x="324" y="469.5" type="curve" smooth="yes"/>
      <point x="424" y="470"/>
      <point x="451.5" y="388.5"/>
      <point x="440" y="290" type="curve" smooth="yes"/>
      <point x="390" y="0" type="line"/>
      <point x="312.5" y="0" type="line"/>
    </contour>
    <contour>
      <point x="203" y="460" type="line"/>
      <point x="123.5" y="0" type="line"/>
      <point x="44" y="0" type="line"/>
      <point x="124" y="460" type="line"/>
    </contour>
    <contour>
      <point x="707" y="290" type="curve" smooth="yes"/>
      <point x="657.5" y="0" type="line"/>
      <point x="578" y="0" type="line"/>
      <point x="627.5" y="280" type="line" smooth="yes"/>
      <point x="635" y="340.5"/>
      <point x="629.5" y="392.5"/>
      <point x="564" y="394" type="curve" smooth="yes"/>
      <point x="494.5" y="396"/>
      <point x="453.5" y="341"/>
      <point x="438.5" y="281" type="curve"/>
      <point x="397.5" y="281" type="line"/>
      <point x="417" y="379.5"/>
      <point x="489.5" y="469.5"/>
      <point x="591" y="469.5" type="curve" smooth="yes"/>
      <point x="691" y="469.5"/>
      <point x="718.5" y="388.5"/>
    </contour>
  </outline>
</glyph>
<glyph name="n" format="1">
  <advance width="509"/>
  <unicode hex="006E"/>
  <outline>
    <contour>
      <point x="203" y="460" type="line"/>
      <point x="123.5" y="0" type="line"/>
      <point x="44" y="0" type="line"/>
      <point x="124" y="460" type="line"/>
    </contour>
    <contour>
      <point x="380" y="280" type="line" smooth="yes"/>
      <point x="387.5" y="342.5"/>
      <point x="373" y="393"/>
      <point x="307" y="394.5" type="curve" smooth="yes"/>
      <point x="236.5" y="396"/>
      <point x="187.5" y="341.5"/>
      <point x="171.5" y="281" type="curve"/>
      <point x="145" y="281" type="line"/>
      <point x="164" y="379.5"/>
      <point x="232.5" y="469.5"/>
      <point x="333.5" y="469.5" type="curve" smooth="yes"/>
      <point x="433.5" y="469.5"/>
      <point x="471.5" y="390.5"/>
      <point x="459.5" y="290" type="curve"/>
      <point x="409.5" y="0" type="line"/>
      <point x="332" y="0" type="line"/>
    </contour>
  </outline>
</glyph>
<glyph name="o" format="2">
  <advance width="529"/>
  <unicode hex="006F"/>
  <outline>
    <contour>
      <point x="51.5" y="230" type="curve" smooth="yes"/>
      <point x="69.5" y="362.5"/>
      <point x="182.5" y="469.5"/>
      <point x="317.5" y="469.5" type="curve" smooth="yes"/>
      <point x="451" y="469.5"/>
      <point x="532" y="358"/>
      <point x="515" y="230" type="curve" smooth="yes"/>
      <point x="497" y="97.5"/>
      <point x="384" y="-9.5"/>
      <point x="249" y="-9.5" type="curve" smooth="yes"/>
      <point x="115.5" y="-9.5"/>
      <point x="34.5" y="102"/>
    </contour>
    <contour>
      <point x="131" y="230" type="curve" smooth="yes"/>
      <point x="118.5" y="145"/>
      <point x="165" y="66"/>
      <point x="255" y="65.5" type="curve" smooth="yes"/>
      <point x="346" y="65"/>
      <point x="421.5" y="140.5"/>
      <point x="435.5" y="230" type="curve" smooth="yes"/>
      <point x="448" y="315"/>
      <point x="401" y="394"/>
      <point x="311" y="394.5" type="curve" smooth="yes"/>
      <point x="220" y="395"/>
      <point x="145" y="319.5"/>
    </contour>
  </outline>
</glyph>
<glyph name="u" format="1">
  <advance width="509"/>
  <unicode hex="0075"/>
  <outline>
    <contour>
      <point x="330.5" y="0" type="line"/>
      <point x="410" y="460" type="line"/>
      <point x="489.5" y="460" type="line"/>
      <point x="410" y="0" type="line"/>
    </contour>
    <contour>
      <point x="154" y="180" type="line" smooth="yes"/>
      <point x="146.5" y="117.5"/>
      <point x="161" y="67"/>
      <point x="226.5" y="65.5" type="curve" smooth="yes"/>
      <point x="297" y="64"/>
      <point x="346" y="118.5"/>
      <point x="362" y="179" type="curve"/>
      <point x="388.5" y="179" type="line"/>
      <point x="369.5" y="80.5"/>
      <point x="301" y="-9.5"/>
      <point x="200" y="-9.5" type="curve" smooth="yes"/>
      <point x="100" y="-9.5"/>
      <point x="62" y="69.5"/>
      <point x="74" y="170" type="curve"/>
      <point x="124.5" y="460" type="line"/>
      <point x="201.5" y="459.5" type="line"/>
    </contour>
  </outline>
</glyph>
<glyph name="v" format="2">
  <advance width="426"/>
  <unicode hex="0076"/>
  <outline>
    <contour>
      <point x="54" y="460" type="line"/>
      <point x="141" y="460" type="line"/>
      <point x="217" y="138" type="line"/>
      <point x="392" y="459.5" type="line"/>
      <point x="483" y="459.5" type="line"/>
      <point x="191" y="-36.5" type="line"/>
    </contour>
  </outline>
</glyph>
<glyph name="z" format="2">
  <advance width="446"/>
  <unicode hex="007A"/>
  <outline>
    <contour>
      <point x="327.5" y="385" type="line"/>
      <point x="81" y="385" type="line"/>
      <point x="94.5" y="460" type="line"/>
      <point x="486" y="460" type="line"/>
      <point x="143" y="75" type="line"/>
      <point x="399.5" y="75" type="line"/>
      <point x="386" y="0" type="line"/>
      <point x="-15" y="0" type="line"/>
    </contour>
  </outline>
</glyph>
<glyph name="braceleft" format="2">
  <advance width="301"/>
  <unicode hex="007B"/>
  <outline>
    <contour>
      <point x="258" y="660" type="curve" smooth="yes"/>
      <point x="232" y="490" type="line" smooth="yes"/>
      <point x="217" y="397"/>
      <point x="197.5" y="292.5"/>
      <point x="89" y="280.5" type="curve"/>
      <point x="91.5" y="300" type="line"/>
      <point x="196.5" y="284.5"/>
      <point x="182" y="174"/>
      <point x="170" y="90" type="curve" smooth="yes"/>
      <point x="143" y="-80.5" type="line" smooth="yes"/>
      <point x="138.5" y="-107.5"/>
      <point x="152" y="-129"/>
      <point x="181.5" y="-129.5" type="curve" smooth="yes"/>
      <point x="217" y="-129.5" type="line"/>
      <point x="206.5" y="-200" type="line"/>
      <point x="149" y="-200" type="line" smooth="yes"/>
      <point x="91" y="-200.5"/>
      <point x="60" y="-136.5"/>
      <point x="68.5" y="-60" type="curve" smooth="yes"/>
      <point x="101" y="150" type="line" smooth="yes"/>
      <point x="107.5" y="210"/>
      <point x="101.5" y="237.5"/>
      <point x="70.5" y="260" type="curve"/>
      <point x="79.5" y="320" type="line"/>
      <point x="116" y="338.5"/>
      <point x="135" y="368"/>
      <point x="143" y="430" type="curve" smooth="yes"/>
      <point x="175" y="640.5" type="line" smooth="yes"/>
      <point x="186" y="721.5"/>
      <point x="238.5" y="779.5"/>
      <point x="296.5" y="779.5" type="curve" smooth="yes"/>
      <point x="356.5" y="779.5" type="line"/>
      <point x="346.5" y="710" type="line"/>
      <point x="313" y="710" type="line" smooth="yes"/>
      <point x="281.5" y="710"/>
      <point x="263" y="689"/>
    </contour>
  </outline>
</glyph>
<glyph name="bar" format="2">
  <advance width="265"/>
  <unicode hex="007C"/>
  <outline>
    <contour>
      <point x="200" y="784.5" type="line"/>
      <point x="273" y="784.5" type="line"/>
      <point x="119.5" y="-214.5" type="line"/>
      <point x="46.5" y="-214.5" type="line"/>
    </contour>
  </outline>
</glyph>
<glyph name="exclamdown" format="1">
  <advance width="291"/>
  <unicode hex="00A1"/>
  <outline>
    <contour>
      <point x="126.5" y="-245" type="line"/>
      <point x="26.5" y="-245" type="line"/>
      <point x="132" y="254.5" type="line"/>
      <point x="191.5" y="254.5" type="line"/>
    </contour>
    <contour>
      <point x="243" y="414" type="curve" smooth="yes"/>
      <point x="240" y="387"/>
      <point x="208.5" y="359"/>
      <point x="181" y="360.5" type="curve" smooth="yes"/>
      <point x="152.5" y="362"/>
      <point x="132.5" y="388"/>
      <point x="135.5" y="416" type="curve" smooth="yes"/>
      <point x="138.5" y="443"/>
      <point x="170" y="471"/>
      <point x="197.5" y="469.5" type="curve" smooth="yes"/>
      <point x="226" y="468"/>
      <point x="246" y="442"/>
    </contour>
  </outline>
</glyph>
<glyph name="cent" format="2">
  <advance width="562"/>
  <unicode hex="00A2"/>
  <outline>
    <contour>
      <point x="250.5" y="37.5" type="line"/>
      <point x="314" y="37.5" type="line"/>
      <point x="288" y="-111.5" type="line"/>
      <point x="225" y="-111.5" type="line"/>
    </contour>
    <contour>
      <point x="169.5" y="230" type="curve" smooth="yes"/>
      <point x="156" y="145"/>
      <point x="201" y="67"/>
      <point x="291" y="65.5" type="curve" smooth="yes"/>
      <point x="363" y="64.5"/>
      <point x="427" y="103.5"/>
      <point x="463" y="148" type="curve"/>
      <point x="447.5" y="48.5" type="line"/>
      <point x="406.5" y="12.5"/>
      <point x="346" y="-9.5"/>
      <point x="283.5" y="-9.5" type="curve" smooth="yes"/>
      <point x="149.5" y="-9"/>
      <point x="71.5" y="102.5"/>
      <point x="90" y="230" type="curve" smooth="yes"/>
      <point x="110" y="363"/>
      <point x="224" y="469"/>
      <point x="360" y="469.5" type="curve" smooth="yes"/>
      <point x="419" y="469.5"/>
      <point x="473.5" y="449"/>
      <point x="508" y="410.5" type="curve"/>
      <point x="492" y="311" type="line"/>
      <point x="472" y="361"/>
      <point x="419.5" y="395"/>
      <point x="353" y="394.5" type="curve" smooth="yes"/>
      <point x="261.5" y="394"/>
      <point x="185" y="320"/>
    </contour>
    <contour>
      <point x="343" y="577.5" type="line"/>
      <point x="406" y="577.5" type="line"/>
      <point x="380" y="428.5" type="line"/>
      <point x="317" y="428.5" type="line"/>
    </contour>
  </outline>
</glyph>
<glyph name="sterling" format="1">
  <advance width="562"/>
  <unicode hex="00A3"/>
  <outline>
    <contour>
      <point x="100.5" y="370" type="line"/>
      <point x="451.5" y="370" type="line"/>
      <point x="438" y="295" type="line"/>
      <point x="87" y="295" type="line"/>
    </contour>
    <contour>
      <point x="492" y="479.5" type="line"/>
      <point x="496" y="546.5"/>
      <point x="478" y="624"/>
      <point x="394" y="625.5" type="curve" smooth="yes"/>
      <point x="331" y="627"/>
      <point x="271" y="587.5"/>
      <point x="259" y="520" type="curve" smooth="yes"/>
      <point x="242" y="419.5"/>
      <point x="321" y="362.5"/>
      <point x="308" y="263.5" type="curve" smooth="yes"/>
      <point x="293" y="160"/>
      <point x="214" y="78.5"/>
      <point x="128.5" y="51" type="curve"/>
      <point x="135" y="80" type="line"/>
      <point x="489.5" y="80" type="line"/>
      <point x="475" y="0" type="line"/>
      <point x="35" y="0" type="line"/>
      <point x="125" y="87.5"/>
      <point x="207" y="150"/>
      <point x="225.5" y="249" type="curve" smooth="yes"/>
      <point x="240.5" y="341"/>
      <point x="159" y="405"/>
      <point x="173" y="518.5" type="curve" smooth="yes"/>
      <point x="189.5" y="631"/>
      <point x="286.5" y="710.5"/>
      <point x="402.5" y="709.5" type="curve" smooth="yes"/>
      <point x="526" y="708.5"/>
      <point x="571" y="595.5"/>
      <point x="566" y="508" type="curve"/>
    </contour>
  </outline>
</glyph>
<glyph name="currency" format="1">
  <advance width="562"/>
  <unicode hex="00A4"/>
  <outline>
    <contour>
      <point x="94" y="504.5" type="line"/>
      <point x="150" y="552.5" type="line"/>
      <point x="226.5" y="457.5" type="line"/>
      <point x="171.5" y="410.5" type="line"/>
    </contour>
    <contour>
      <point x="66.5" y="47.5" type="line"/>
      <point x="24.5" y="99" type="line"/>
      <point x="131" y="189.5" type="line"/>
      <point x="172.5" y="139" type="line"/>
    </contour>
    <contour>
      <point x="480" y="410.5" type="line"/>
      <point x="437.5" y="461" type="line"/>
      <point x="544.5" y="552.5" type="line"/>
      <point x="585.5" y="501" type="line"/>
    </contour>
    <contour>
      <point x="383.5" y="142.5" type="line"/>
      <point x="439.5" y="189.5" type="line"/>
      <point x="516" y="95.5" type="line"/>
      <point x="461" y="47.5" type="line"/>
    </contour>
    <contour>
      <point x="73.5" y="300" type="curve" smooth="yes"/>
      <point x="93.5" y="432"/>
      <point x="208" y="539.5"/>
      <point x="343.5" y="539.5" type="curve" smooth="yes"/>
      <point x="477.5" y="539.5"/>
      <point x="556" y="427.5"/>
      <point x="537.5" y="300" type="curve" smooth="yes"/>
      <point x="517.5" y="168"/>
      <point x="403" y="60.5"/>
      <point x="267.5" y="60.5" type="curve" smooth="yes"/>
      <point x="133.5" y="60.5"/>
      <point x="55" y="172.5"/>
    </contour>
    <contour>
      <point x="153.5" y="300" type="curve" smooth="yes"/>
      <point x="140" y="215.5"/>
      <point x="184" y="136"/>
      <point x="274.5" y="135.5" type="curve" smooth="yes"/>
      <point x="366" y="135"/>
      <point x="442.5" y="210.5"/>
      <point x="457.5" y="300" type="curve" smooth="yes"/>
      <point x="471" y="384.5"/>
      <point x="427" y="464"/>
      <point x="336.5" y="464.5" type="curve" smooth="yes"/>
      <point x="245" y="465"/>
      <point x="168.5" y="389.5"/>
    </contour>
  </outline>
</glyph>
<glyph name="section" format="2">
  <advance width="395"/>
  <unicode hex="00A7"/>
  <outline>
    <contour>
      <point x="374.5" y="579.5" type="line"/>
      <point x="356" y="614.5"/>
      <point x="324.5" y="633.5"/>
      <point x="286.5" y="633.5" type="curve" smooth="yes"/>
      <point x="252" y="633.5"/>
      <point x="214" y="619.5"/>
      <point x="208.5" y="588.5" type="curve" smooth="yes"/>
      <point x="201" y="549"/>
      <point x="261.5" y="524.5"/>
      <point x="301" y="506" type="curve" smooth="yes"/>
      <point x="359.5" y="478"/>
      <point x="412.5" y="435"/>
      <point x="403.5" y="369.5" type="curve" smooth="yes"/>
      <point x="390.5" y="273"/>
      <point x="310" y="244"/>
      <point x="217.5" y="241" type="curve"/>
      <point x="223" y="275" type="line"/>
      <point x="270" y="282"/>
      <point x="314.5" y="318.5"/>
      <point x="321.5" y="363" type="curve" smooth="yes"/>
      <point x="328.5" y="412.5"/>
      <point x="282.5" y="434"/>
      <point x="237.5" y="454.5" type="curve" smooth="yes"/>
      <point x="179.5" y="481.5"/>
      <point x="119.5" y="517"/>
      <point x="130" y="589.5" type="curve" smooth="yes"/>
      <point x="141" y="663.5"/>
      <point x="220" y="709"/>
      <point x="293" y="709.5" type="curve" smooth="yes"/>
      <point x="362" y="710"/>
      <point x="423" y="675"/>
      <point x="442" y="619" type="curve"/>
    </contour>
    <contour>
      <point x="92" y="160.5" type="line"/>
      <point x="99.5" y="107.5"/>
      <point x="133" y="66"/>
      <point x="190" y="65.5" type="curve" smooth="yes"/>
      <point x="234" y="65"/>
      <point x="273" y="84.5"/>
      <point x="280" y="123.5" type="curve" smooth="yes"/>
      <point x="289" y="173"/>
      <point x="240.5" y="194.5"/>
      <point x="196.5" y="215" type="curve" smooth="yes"/>
      <point x="137.5" y="243"/>
      <point x="80" y="287"/>
      <point x="90.5" y="359.5" type="curve" smooth="yes"/>
      <point x="104.5" y="442.5"/>
      <point x="178" y="476"/>
      <point x="276.5" y="479" type="curve"/>
      <point x="272" y="453.5" type="line"/>
      <point x="220" y="435"/>
      <point x="179.5" y="413.5"/>
      <point x="170.5" y="369" type="curve" smooth="yes"/>
      <point x="160" y="308"/>
      <point x="214" y="288"/>
      <point x="260" y="266" type="curve" smooth="yes"/>
      <point x="318.5" y="238"/>
      <point x="371" y="195"/>
      <point x="362.5" y="129.5" type="curve" smooth="yes"/>
      <point x="351" y="36.5"/>
      <point x="270" y="-10.5"/>
      <point x="177.5" y="-9.5" type="curve" smooth="yes"/>
      <point x="94" y="-8.5"/>
      <point x="31.5" y="47"/>
      <point x="22.5" y="123.5" type="curve"/>
    </contour>
  </outline>
</glyph>
<glyph name="dieresis" format="1">
  <advance width="456"/>
  <unicode hex="00A8"/>
  <outline>
    <contour>
      <point x="355.5" y="661" type="curve" smooth="yes"/>
      <point x="358" y="688"/>
      <point x="389.5" y="716"/>
      <point x="417" y="714.5" type="curve" smooth="yes"/>
      <point x="445.5" y="713"/>
      <point x="466" y="687"/>
      <point x="463.5" y="659" type="curve" smooth="yes"/>
      <point x="461" y="632"/>
      <point x="429.5" y="604"/>
      <point x="402" y="605.5" type="curve" smooth="yes"/>
      <point x="373.5" y="607"/>
      <point x="353" y="633"/>
    </contour>
    <contour>
      <point x="161.5" y="661" type="curve" smooth="yes"/>
      <point x="164" y="688"/>
      <point x="195.5" y="716"/>
      <point x="223" y="714.5" type="curve" smooth="yes"/>
      <point x="251.5" y="713"/>
      <point x="272" y="687"/>
      <point x="269.5" y="659" type="curve" smooth="yes"/>
      <point x="267" y="632"/>
      <point x="235.5" y="604"/>
      <point x="208" y="605.5" type="curve" smooth="yes"/>
      <point x="179.5" y="607"/>
      <point x="159" y="633"/>
    </contour>
  </outline>
</glyph>
<glyph name="ordfeminine" format="1">
  <advance width="230"/>
  <unicode hex="00AA"/>
  <outline>
    <contour>
      <point x="122.5" y="531.5" type="curve" smooth="yes"/>
      <point x="120" y="510"/>
      <point x="133.5" y="492.5"/>
      <point x="162" y="491.5" type="curve" smooth="yes"/>
      <point x="199" y="489.5"/>
      <point x="228.5" y="514.5"/>
      <point x="239.5" y="549.5" type="curve"/>
      <point x="243.5" y="524" type="line"/>
      <point x="231.5" y="484"/>
      <point x="197" y="454.5"/>
      <point x="149" y="455.5" type="curve" smooth="yes"/>
      <point x="107" y="456.5"/>
      <point x="76" y="488.5"/>
      <point x="82.5" y="533" type="curve" smooth="yes"/>
      <point x="90" y="580"/>
      <point x="142" y="612.5"/>
      <point x="190" y="612.5" type="curve" smooth="yes"/>
      <point x="226" y="612.5"/>
      <point x="248" y="595.5"/>
      <point x="261.5" y="582.5" type="curve"/>
      <point x="257.5" y="559" type="line"/>
      <point x="237" y="573"/>
      <point x="217" y="583.5"/>
      <point x="190.5" y="583" type="curve" smooth="yes"/>
      <point x="159" y="582.5"/>
      <point x="126" y="560"/>
    </contour>
    <contour>
      <point x="143" y="646" type="curve"/>
      <point x="129" y="678" type="line"/>
      <point x="151.5" y="690.5"/>
      <point x="181" y="705.5"/>
      <point x="217.5" y="705" type="curve" smooth="yes"/>
      <point x="264.5" y="704.5"/>
      <point x="297" y="678.5"/>
      <point x="293" y="634.5" type="curve"/>
      <point x="263.5" y="460.5" type="line"/>
      <point x="223.5" y="460.5" type="line"/>
      <point x="254.5" y="635" type="line"/>
      <point x="251.5" y="656"/>
      <point x="239" y="667.5"/>
      <point x="215" y="669" type="curve" smooth="yes"/>
      <point x="186" y="670.5"/>
      <point x="159.5" y="655"/>
    </contour>
  </outline>
</glyph>
<glyph name="guillemotleft" format="2">
  <advance width="494"/>
  <unicode hex="00AB"/>
  <outline>
    <contour>
      <point x="298.5" y="258.5" type="line"/>
      <point x="411.5" y="64" type="line"/>
      <point x="356.5" y="20" type="line"/>
      <point x="210.5" y="258" type="line"/>
      <point x="433.5" y="489.5" type="line"/>
      <point x="476.5" y="443.5" type="line"/>
    </contour>
    <contour>
      <point x="143" y="258.5" type="line"/>
      <point x="256.5" y="64" type="line"/>
      <point x="201" y="20" type="line"/>
      <point x="55" y="258" type="line"/>
      <point x="278" y="489.5" type="line"/>
      <point x="321.5" y="443.5" type="line"/>
    </contour>
  </outline>
</glyph>
<glyph name="registered" format="1">
  <advance width="776"/>
  <unicode hex="00AE"/>
  <outline>
    <contour>
      <point x="375.5" y="357.5" type="line"/>
      <point x="430.5" y="357.5" type="line"/>
      <point x="546.5" y="149.5" type="line"/>
      <point x="485.5" y="149.5" type="line"/>
    </contour>
    <contour>
      <point x="336" y="569.5" type="line"/>
      <point x="386.5" y="569.5" type="line"/>
      <point x="322" y="150.5" type="line"/>
      <point x="271.5" y="150.5" type="line"/>
    </contour>
    <contour>
      <point x="356" y="525" type="line"/>
      <point x="363" y="569.5" type="line"/>
      <point x="445.5" y="570" type="line"/>
      <point x="521" y="568"/>
      <point x="577.5" y="518.5"/>
      <point x="567.5" y="443.5" type="curve" smooth="yes"/>
      <point x="557" y="367.5"/>
      <point x="487.5" y="320.5"/>
      <point x="410" y="318.5" type="curve"/>
      <point x="324.5" y="318.5" type="line"/>
      <point x="331" y="362.5" type="line"/>
      <point x="413.5" y="363" type="line"/>
      <point x="464.5" y="365"/>
      <point x="509.5" y="393.5"/>
      <point x="517" y="444" type="curve" smooth="yes"/>
      <point x="524" y="493"/>
      <point x="490.5" y="522"/>
      <point x="441.5" y="524.5" type="curve"/>
    </contour>
    <contour>
      <point x="129.5" y="350" type="curve" smooth="yes"/>
      <point x="106" y="188.5"/>
      <point x="203" y="41"/>
      <point x="374.5" y="40.5" type="curve" smooth="yes"/>
      <point x="549" y="40"/>
      <point x="694.5" y="180.5"/>
      <point x="720.5" y="350" type="curve" smooth="yes"/>
      <point x="744" y="511.5"/>
      <point x="647" y="659"/>
      <point x="475.5" y="659.5" type="curve" smooth="yes"/>
      <point x="301" y="660"/>
      <point x="155.5" y="519.5"/>
    </contour>
    <contour>
      <point x="74.5" y="350" type="curve" smooth="yes"/>
      <point x="102.5" y="549.5"/>
      <point x="273" y="710.5"/>
      <point x="477.5" y="710" type="curve" smooth="yes"/>
      <point x="678.5" y="709.5"/>
      <point x="800.5" y="542.5"/>
      <point x="775" y="350" type="curve" smooth="yes"/>
      <point x="747" y="150.5"/>
      <point x="577" y="-10.5"/>
      <point x="372.5" y="-10" type="curve" smooth="yes"/>
      <point x="171.5" y="-9.5"/>
      <point x="49" y="157.5"/>
    </contour>
  </outline>
</glyph>
<glyph name="macron" format="2">
  <advance width="494"/>
  <unicode hex="00AF"/>
  <outline>
    <contour>
      <point x="153" y="600" type="line"/>
      <point x="164.5" y="675" type="line"/>
      <point x="505.5" y="675" type="line"/>
      <point x="494" y="600" type="line"/>
    </contour>
  </outline>
</glyph>
<glyph name="acute" format="2">
  <advance width="363"/>
  <unicode hex="00B4"/>
  <outline>
    <contour>
      <point x="376.5" y="658" type="line"/>
      <point x="179.5" y="511" type="line"/>
      <point x="138" y="541.5" type="line"/>
      <point x="307" y="699.5" type="line"/>
    </contour>
  </outline>
</glyph>
<glyph name="paragraph" format="2">
  <advance width="560"/>
  <unicode hex="00B6"/>
  <outline>
    <contour>
      <point x="360.5" y="635.5" type="line"/>
      <point x="371" y="699.5" type="line"/>
      <point x="566" y="699.5" type="line"/>
      <point x="555.5" y="635.5" type="line"/>
    </contour>
    <contour>
      <point x="526.5" y="699.5" type="line"/>
      <point x="595.5" y="699.5" type="line"/>
      <point x="439" y="-219.5" type="line"/>
      <point x="370" y="-219.5" type="line"/>
    </contour>
    <contour>
      <point x="371" y="699.5" type="line"/>
      <point x="440" y="699.5" type="line"/>
      <point x="283.5" y="-219.5" type="line"/>
      <point x="214.5" y="-219.5" type="line"/>
    </contour>
    <contour>
      <point x="300" y="270.5" type="line"/>
      <point x="177.5" y="277"/>
      <point x="93.6515" y="356.111"/>
      <point x="113" y="485.5" type="curve" smooth="yes"/>
      <point x="134" y="620"/>
      <point x="243" y="699.5"/>
      <point x="371" y="699.5" type="curve"/>
    </contour>
  </outline>
</glyph>
<glyph name="periodcentered" format="2">
  <advance width="291"/>
  <unicode hex="00B7"/>
  <outline>
    <contour>
      <point x="105.5" y="241" type="curve" smooth="yes"/>
      <point x="108.5" y="268"/>
      <point x="140" y="296"/>
      <point x="167.5" y="294.5" type="curve" smooth="yes"/>
      <point x="196" y="293"/>
      <point x="216.5" y="267"/>
      <point x="213.5" y="239" type="curve" smooth="yes"/>
      <point x="210.5" y="212"/>
      <point x="178.5" y="184"/>
      <point x="151" y="185.5" type="curve" smooth="yes"/>
      <point x="122.5" y="187"/>
      <point x="102.5" y="213"/>
    </contour>
  </outline>
</glyph>
<glyph name="uni00B9" format="2">
  <advance width="456"/>
  <unicode hex="00B9"/>
  <outline>
    <contour>
      <point x="225" y="612" type="line"/>
      <point x="233" y="664" type="line"/>
      <point x="381.5" y="700.5" type="line"/>
      <point x="307.5" y="274.5" type="line"/>
      <point x="257" y="274.5" type="line"/>
      <point x="318" y="637.5" type="line"/>
    </contour>
  </outline>
</glyph>
<glyph name="questiondown" format="2">
  <advance width="540"/>
  <unicode hex="00BF"/>
  <outline>
    <contour>
      <point x="144" y="200" type="curve" smooth="yes"/>
      <point x="130.5" y="121.5"/>
      <point x="176" y="66"/>
      <point x="260.5" y="65.5" type="curve" smooth="yes"/>
      <point x="326.5" y="65"/>
      <point x="377" y="102"/>
      <point x="415.5" y="147.5" type="curve"/>
      <point x="474.5" y="105.5" type="line"/>
      <point x="418" y="39"/>
      <point x="351.5" y="-10.5"/>
      <point x="244" y="-9.5" type="curve" smooth="yes"/>
      <point x="123.5" y="-8.5"/>
      <point x="47.5" y="87.5"/>
      <point x="64.5" y="200.5" type="curve" smooth="yes"/>
      <point x="83.5" y="317"/>
      <point x="190.5" y="396.5"/>
      <point x="304.5" y="410" type="curve"/>
      <point x="333" y="529.5" type="line"/>
      <point x="392.5" y="530" type="line"/>
      <point x="383.5" y="355" type="line"/>
      <point x="359" y="355" type="line"/>
      <point x="251" y="352.5"/>
      <point x="161.5" y="285"/>
    </contour>
    <contour>
      <point x="437.5" y="659" type="curve" smooth="yes"/>
      <point x="434.5" y="632"/>
      <point x="402.5" y="604"/>
      <point x="375" y="605.5" type="curve" smooth="yes"/>
      <point x="346.5" y="607"/>
      <point x="326.5" y="633"/>
      <point x="329.5" y="661" type="curve" smooth="yes"/>
      <point x="332.5" y="688"/>
      <point x="364" y="716"/>
      <point x="391.5" y="714.5" type="curve" smooth="yes"/>
      <point x="420" y="713"/>
      <point x="440.5" y="687"/>
    </contour>
  </outline>
</glyph>
<glyph name="Agrave" format="2">
  <advance width="640"/>
  <unicode hex="00C0"/>
  <outline>
    <contour>
      <point x="151.5" y="211" type="line"/>
      <point x="193" y="289.5" type="line"/>
      <point x="495.5" y="290" type="line"/>
      <point x="511.5" y="210" type="line"/>
    </contour>
    <contour>
      <point x="388" y="542" type="line"/>
      <point x="225.5" y="264" type="line"/>
      <point x="215" y="246" type="line"/>
      <point x="71" y="0" type="line"/>
      <point x="-25" y="0" type="line"/>
      <point x="418.5" y="736.5" type="line"/>
      <point x="608" y="0" type="line"/>
      <point x="516.5" y="0" type="line"/>
      <point x="458.5" y="240" type="line"/>
      <point x="454.5" y="260" type="line"/>
    </contour>
    <contour>
      <point x="327.5" y="946" type="line"/>
      <point x="406.5" y="985" type="line"/>
      <point x="527" y="824" type="line"/>
      <point x="479.5" y="795" type="line"/>
    </contour>
  </outline>
</glyph>
<glyph name="Aring" format="1">
  <advance width="640"/>
  <unicode hex="00C5"/>
  <outline>
    <contour>
      <point x="151.5" y="211" type="line"/>
      <point x="193" y="289.5" type="line"/>
      <point x="495.5" y="290" type="line"/>
      <point x="511.5" y="210" type="line"/>
    </contour>
    <contour>
      <point x="388" y="542" type="line"/>
      <point x="225.5" y="264" type="line"/>
      <point x="215" y="246" type="line"/>
      <point x="71" y="0" type="line"/>
      <point x="-25" y="0" type="line"/>
      <point x="418.5" y="736.5" type="line"/>
      <point x="608" y="0" type="line"/>
      <point x="516.5" y="0" type="line"/>
      <point x="458.5" y="240" type="line"/>
      <point x="454.5" y="260" type="line"/>
    </contour>
    <contour>
      <point x="329.5" y="799" type="curve" smooth="yes"/>
      <point x="337" y="854"/>
      <point x="391.5" y="898"/>
      <point x="444.5" y="897.5" type="curve" smooth="yes"/>
      <point x="497.5" y="897"/>
      <point x="536.5" y="851.5"/>
      <point x="529" y="797" type="curve" smooth="yes"/>
      <point x="521.5" y="742"/>
      <point x="467" y="698"/>
      <point x="414" y="698.5" type="curve" smooth="yes"/>
      <point x="361" y="699"/>
      <point x="322" y="744.5"/>
    </contour>
    <contour>
      <point x="379.5" y="797.5" type="curve" smooth="yes"/>
      <point x="376.5" y="771"/>
      <point x="394.5" y="747"/>
      <point x="418.5" y="745.5" type="curve" smooth="yes"/>
      <point x="443" y="743.5"/>
      <point x="476" y="771"/>
      <point x="479" y="798.5" type="curve" smooth="yes"/>
      <point x="482" y="825"/>
      <point x="464" y="849"/>
      <point x="440" y="850.5" type="curve" smooth="yes"/>
      <point x="415.5" y="852.5"/>
      <point x="382.5" y="825"/>
    </contour>
  </outline>
</glyph>
<glyph name="Edieresis" format="1">
  <advance width="533"/>
  <unicode hex="00CB"/>
  <outline>
    <contour>
      <point x="96.5" y="0" type="line"/>
      <point x="109.5" y="80" type="line"/>
      <point x="454" y="80" type="line"/>
      <point x="440.5" y="0" type="line"/>
    </contour>
    <contour>
      <point x="202.5" y="620.5" type="line"/>
      <point x="215.5" y="700" type="line"/>
      <point x="559.5" y="700" type="line"/>
      <point x="546" y="620" type="line"/>
    </contour>
    <contour>
      <point x="154.5" y="340.5" type="line"/>
      <point x="168" y="420" type="line"/>
      <point x="492.5" y="420" type="line"/>
      <point x="479" y="340" type="line"/>
    </contour>
    <contour>
      <point x="168.5" y="699.5" type="line"/>
      <point x="254" y="700" type="line"/>
      <point x="133" y="0" type="line"/>
      <point x="51" y="0" type="line"/>
    </contour>
    <contour>
      <point x="441.5" y="846" type="curve" smooth="yes"/>
      <point x="444.5" y="873"/>
      <point x="476.5" y="901"/>
      <point x="504" y="899.5" type="curve" smooth="yes"/>
      <point x="532.5" y="898"/>
      <point x="552.5" y="872"/>
      <point x="549.5" y="844" type="curve" smooth="yes"/>
      <point x="546.5" y="817"/>
      <point x="515" y="789"/>
      <point x="487.5" y="790.5" type="curve" smooth="yes"/>
      <point x="459" y="792"/>
      <point x="438.5" y="818"/>
    </contour>
    <contour>
      <point x="247.5" y="846" type="curve" smooth="yes"/>
      <point x="250.5" y="873"/>
      <point x="282" y="901"/>
      <point x="309.5" y="899.5" type="curve" smooth="yes"/>
      <point x="338" y="898"/>
      <point x="358.5" y="872"/>
      <point x="355.5" y="844" type="curve" smooth="yes"/>
      <point x="352.5" y="817"/>
      <point x="321" y="789"/>
      <point x="293.5" y="790.5" type="curve" smooth="yes"/>
      <point x="265" y="792"/>
      <point x="244.5" y="818"/>
    </contour>
  </outline>
</glyph>
<glyph name="Icircumflex" format="2">
  <advance width="237"/>
  <unicode hex="00CE"/>
  <outline>
    <contour>
      <point x="168.5" y="699.5" type="line"/>
      <point x="254" y="700" type="line"/>
      <point x="133" y="0" type="line"/>
      <point x="51" y="0" type="line"/>
    </contour>
    <contour>
      <point x="241.5" y="864.5" type="line"/>
      <point x="117.5" y="770.5" type="line"/>
      <point x="73.5" y="811.5" type="line"/>
      <point x="251.5" y="950" type="line"/>
      <point x="385.5" y="809" type="line"/>
      <point x="332" y="770.5" type="line"/>
    </contour>
  </outline>
</glyph>
<glyph name="Idieresis" format="2">
  <advance width="237"/>
  <unicode hex="00CF"/>
  <outline>
    <contour>
      <point x="168.5" y="699.5" type="line"/>
      <point x="254" y="700" type="line"/>
      <point x="133" y="0" type="line"/>
      <point x="51" y="0" type="line"/>
    </contour>
    <contour>
      <point x="276" y="826" type="curve" smooth="yes"/>
      <point x="279" y="852.5"/>
      <point x="310" y="881"/>
      <point x="337.5" y="879.5" type="curve" smooth="yes"/>
      <point x="366" y="878"/>
      <point x="387" y="852"/>
      <point x="384" y="824" type="curve" smooth="yes"/>
      <point x="381" y="797"/>
      <point x="348.5" y="769"/>
      <point x="321" y="770.5" type="curve" smooth="yes"/>
      <point x="292" y="772"/>
      <point x="273" y="798.5"/>
    </contour>
    <contour>
      <point x="82" y="826" type="curve" smooth="yes"/>
      <point x="85" y="852.5"/>
      <point x="115.5" y="881"/>
      <point x="143" y="879.5" type="curve" smooth="yes"/>
      <point x="171.5" y="878"/>
      <point x="193" y="852"/>
      <point x="190" y="824" type="curve" smooth="yes"/>
      <point x="187" y="797"/>
      <point x="154.5" y="769"/>
      <point x="127" y="770.5" type="curve" smooth="yes"/>
      <point x="98" y="772"/>
      <point x="79" y="798.5"/>
    </contour>
  </outline>
</glyph>
<glyph name="Odieresis" format="2">
  <advance width="766"/>
  <unicode hex="00D6"/>
  <outline>
    <contour>
      <point x="159.5" y="350" type="curve" smooth="yes"/>
      <point x="137.5" y="209"/>
      <point x="213" y="76.5"/>
      <point x="366" y="75.5" type="curve" smooth="yes"/>
      <point x="521" y="74.5"/>
      <point x="647.5" y="201"/>
      <point x="672.5" y="350" type="curve" smooth="yes"/>
      <point x="694.5" y="491"/>
      <point x="619" y="623.5"/>
      <point x="466" y="624.5" type="curve" smooth="yes"/>
      <point x="311" y="625.5"/>
      <point x="184.5" y="499"/>
    </contour>
    <contour>
      <point x="70.5" y="350" type="curve" smooth="yes"/>
      <point x="101" y="546"/>
      <point x="269.5" y="710.5"/>
      <point x="474" y="710" type="curve" smooth="yes"/>
      <point x="675.5" y="709.5"/>
      <point x="789" y="537.5"/>
      <point x="761.5" y="350" type="curve" smooth="yes"/>
      <point x="731" y="154"/>
      <point x="562" y="-10.5"/>
      <point x="357.5" y="-10" type="curve" smooth="yes"/>
      <point x="156" y="-9.5"/>
      <point x="43" y="162.5"/>
    </contour>
    <contour>
      <point x="540" y="826" type="curve" smooth="yes"/>
      <point x="543" y="853"/>
      <point x="574.5" y="881"/>
      <point x="602" y="879.5" type="curve" smooth="yes"/>
      <point x="630.5" y="878"/>
      <point x="651" y="852"/>
      <point x="648" y="824" type="curve" smooth="yes"/>
      <point x="645" y="797"/>
      <point x="613.5" y="769"/>
      <point x="586" y="770.5" type="curve" smooth="yes"/>
      <point x="557.5" y="772"/>
      <point x="537" y="798"/>
    </contour>
    <contour>
      <point x="346" y="826" type="curve" smooth="yes"/>
      <point x="349" y="853"/>
      <point x="380.5" y="881"/>
      <point x="408" y="879.5" type="curve" smooth="yes"/>
      <point x="436.5" y="878"/>
      <point x="457" y="852"/>
      <point x="454" y="824" type="curve" smooth="yes"/>
      <point x="451" y="797"/>
      <point x="419.5" y="769"/>
      <point x="392" y="770.5" type="curve" smooth="yes"/>
      <point x="363.5" y="772"/>
      <point x="343" y="798"/>
    </contour>
  </outline>
</glyph>
<glyph name="multiply" format="2">
  <advance width="578"/>
  <unicode hex="00D7"/>
  <outline>
    <contour>
      <point x="95.5" y="22" type="line"/>
      <point x="49" y="81" type="line"/>
      <point x="256.5" y="257" type="line"/>
      <point x="109.5" y="434.5" type="line"/>
      <point x="171.5" y="488" type="line"/>
      <point x="312" y="307" type="line"/>
      <point x="515.5" y="488" type="line"/>
      <point x="562" y="429" type="line"/>
      <point x="354.5" y="253" type="line"/>
      <point x="501.5" y="75.5" type="line"/>
      <point x="439.5" y="22" type="line"/>
      <point x="299" y="203" type="line"/>
    </contour>
  </outline>
</glyph>
<glyph name="Ugrave" format="2">
  <advance width="607"/>
  <unicode hex="00D9"/>
  <outline>
    <contour>
      <point x="165" y="700" type="line"/>
      <point x="249" y="700" type="line"/>
      <point x="167.5" y="230" type="line" smooth="yes"/>
      <point x="156" y="144.5"/>
      <point x="189" y="71.5"/>
      <point x="286" y="70.5" type="curve" smooth="yes"/>
      <point x="384" y="69.5"/>
      <point x="447" y="140.5"/>
      <point x="463.5" y="230" type="curve"/>
      <point x="544.5" y="700" type="line"/>
      <point x="628.5" y="700" type="line"/>
      <point x="548" y="230" type="line" smooth="yes"/>
      <point x="525" y="97.5"/>
      <point x="421.5" y="-9.5"/>
      <point x="278" y="-9.5" type="curve" smooth="yes"/>
      <point x="137" y="-9.5"/>
      <point x="67" y="101"/>
      <point x="84.5" y="230" type="curve"/>
    </contour>
    <contour>
      <point x="306.5" y="921" type="line"/>
      <point x="385.5" y="960" type="line"/>
      <point x="506" y="799" type="line"/>
      <point x="459" y="770" type="line"/>
    </contour>
  </outline>
</glyph>
<glyph name="Thorn" format="2">
  <advance width="533"/>
  <unicode hex="00DE"/>
  <outline>
    <contour>
      <point x="168.5" y="699.5" type="line"/>
      <point x="254" y="700" type="line"/>
      <point x="133" y="0" type="line"/>
      <point x="51" y="0" type="line"/>
    </contour>
    <contour>
      <point x="176.5" y="480" type="line"/>
      <point x="191" y="560" type="line"/>
      <point x="327.5" y="560" type="line"/>
      <point x="454.5" y="557.5"/>
      <point x="545.5" y="474"/>
      <point x="526.5" y="349.5" type="curve" smooth="yes"/>
      <point x="507" y="222.5"/>
      <point x="392.5" y="142.5"/>
      <point x="261.5" y="140" type="curve"/>
      <point x="118.5" y="140" type="line"/>
      <point x="133" y="220" type="line"/>
      <point x="269.5" y="220" type="line"/>
      <point x="356" y="222"/>
      <point x="428" y="266.5"/>
      <point x="443" y="350" type="curve" smooth="yes"/>
      <point x="457" y="431.5"/>
      <point x="402.5" y="477"/>
      <point x="319.5" y="479.5" type="curve"/>
    </contour>
  </outline>
</glyph>
<glyph name="germandbls" format="2">
  <advance width="553"/>
  <unicode hex="00DF"/>
  <outline>
    <contour>
      <point x="247" y="65" type="line"/>
      <point x="335" y="73"/>
      <point x="426.5" y="134.5"/>
      <point x="443.5" y="235" type="curve" smooth="yes"/>
      <point x="461" y="327"/>
      <point x="386.5" y="397.5"/>
      <point x="286.5" y="404.5" type="curve"/>
      <point x="295" y="459" type="line"/>
      <point x="437.5" y="453.5"/>
      <point x="543.5" y="362.5"/>
      <point x="521.5" y="224.5" type="curve" smooth="yes"/>
      <point x="499" y="85"/>
      <point x="372.5" y="-3"/>
      <point x="235" y="-9.5" type="curve"/>
    </contour>
    <contour>
      <point x="290" y="425.5" type="curve"/>
      <point x="298.5" y="480" type="line"/>
      <point x="391.5" y="485"/>
      <point x="452" y="529"/>
      <point x="466.5" y="596" type="curve" smooth="yes"/>
      <point x="478" y="659.5"/>
      <point x="446" y="714"/>
      <point x="366.5" y="714.5" type="curve" smooth="yes"/>
      <point x="302.5" y="715"/>
      <point x="243.5" y="675"/>
      <point x="233" y="606" type="curve" smooth="yes"/>
      <point x="128.5" y="0" type="line"/>
      <point x="49" y="0" type="line"/>
      <point x="152.5" y="606.5" type="line" smooth="yes"/>
      <point x="170" y="711.5"/>
      <point x="261" y="789.5"/>
      <point x="373.5" y="789.5" type="curve" smooth="yes"/>
      <point x="495.01" y="789.5"/>
      <point x="564.5" y="712.5"/>
      <point x="548" y="605.5" type="curve" smooth="yes"/>
      <point x="527.5" y="482"/>
      <point x="429" y="429"/>
    </contour>
  </outline>
</glyph>
<glyph name="adieresis" format="2">
  <advance width="553"/>
  <unicode hex="00E4"/>
  <outline>
    <contour>
      <point x="462.5" y="459.5" type="line"/>
      <point x="538.5" y="460" type="line"/>
      <point x="458.5" y="0" type="line"/>
      <point x="385.5" y="0" type="line"/>
    </contour>
    <contour>
      <point x="45" y="230" type="curve" smooth="yes"/>
      <point x="64.5" y="365.5"/>
      <point x="175.5" y="471"/>
      <point x="305.5" y="470" type="curve" smooth="yes"/>
      <point x="429" y="469"/>
      <point x="471.5" y="353.5"/>
      <point x="455.5" y="230" type="curve" smooth="yes"/>
      <point x="437.5" y="99"/>
      <point x="352" y="-9"/>
      <point x="229.5" y="-9.5" type="curve" smooth="yes"/>
      <point x="100" y="-10"/>
      <point x="27" y="100"/>
    </contour>
    <contour>
      <point x="125" y="230" type="curve" smooth="yes"/>
      <point x="111.5" y="140.5"/>
      <point x="157.5" y="65.5"/>
      <point x="246" y="65.5" type="curve" smooth="yes"/>
      <point x="326" y="65.5"/>
      <point x="405" y="137.5"/>
      <point x="419.5" y="230" type="curve" smooth="yes"/>
      <point x="431.5" y="317"/>
      <point x="386.5" y="392.5"/>
      <point x="308" y="394.5" type="curve" smooth="yes"/>
      <point x="218.5" y="396.5"/>
      <point x="140" y="324"/>
    </contour>
    <contour>
      <point x="390.5" y="586" type="curve" smooth="yes"/>
      <point x="393.5" y="613"/>
      <point x="425" y="641"/>
      <point x="452.5" y="639.5" type="curve" smooth="yes"/>
      <point x="481" y="638"/>
      <point x="501.5" y="612"/>
      <point x="498.5" y="584" type="curve" smooth="yes"/>
      <point x="495.5" y="557"/>
      <point x="463.5" y="529"/>
      <point x="436" y="530.5" type="curve" smooth="yes"/>
      <point x="407.5" y="532"/>
      <point x="387.5" y="558"/>
    </contour>
    <contour>
      <point x="196.5" y="586" type="curve" smooth="yes"/>
      <point x="199.5" y="613"/>
      <point x="231" y="641"/>
      <point x="258.5" y="639.5" type="curve" smooth="yes"/>
      <point x="287" y="638"/>
      <point x="307" y="612"/>
      <point x="304" y="584" type="curve" smooth="yes"/>
      <point x="301" y="557"/>
      <point x="269.5" y="529"/>
      <point x="242" y="530.5" type="curve" smooth="yes"/>
      <point x="213.5" y="532"/>
      <point x="193.5" y="558"/>
    </contour>
  </outline>
</glyph>
<glyph name="ae" format="1">
  <advance width="800"/>
  <unicode hex="00E6"/>
  <outline>
    <contour>
      <point x="103.5" y="135" type="curve" smooth="yes"/>
      <point x="95.5" y="86.5"/>
      <point x="128.5" y="62.5"/>
      <point x="182.5" y="61.5" type="curve" smooth="yes"/>
      <point x="263.5" y="60"/>
      <point x="319" y="103.5"/>
      <point x="337.5" y="179.5" type="curve"/>
      <point x="375.5" y="128.5" type="line"/>
      <point x="353.5" y="42.5"/>
      <point x="271.5" y="-9.5"/>
      <point x="176" y="-9.5" type="curve" smooth="yes"/>
      <point x="78" y="-9.5"/>
      <point x="9" y="38.5"/>
      <point x="22.5" y="125.5" type="curve" smooth="yes"/>
      <point x="37" y="228.5"/>
      <point x="133" y="286"/>
      <point x="238.5" y="285.5" type="curve" smooth="yes"/>
      <point x="309.5" y="285.5"/>
      <point x="355" y="253.5"/>
      <point x="379" y="224.5" type="curve"/>
      <point x="371.5" y="178.5" type="line"/>
      <point x="331" y="209"/>
      <point x="289.5" y="225"/>
      <point x="237" y="224.5" type="curve" smooth="yes"/>
      <point x="167.5" y="224"/>
      <point x="113.5" y="193"/>
    </contour>
    <contour>
      <point x="142" y="352" type="curve"/>
      <point x="113" y="414.5" type="line"/>
      <point x="157.5" y="442"/>
      <point x="217.5" y="470"/>
      <point x="291" y="469.5" type="curve" smooth="yes"/>
      <point x="386.5" y="468.5"/>
      <point x="433.5" y="416.5"/>
      <point x="422.5" y="330" type="curve"/>
      <point x="389" y="130.5" type="line"/>
      <point x="329.5" y="130.5" type="line"/>
      <point x="363" y="320" type="line"/>
      <point x="367.5" y="365"/>
      <point x="332" y="397.5"/>
      <point x="284.5" y="399" type="curve" smooth="yes"/>
      <point x="226" y="401"/>
      <point x="175" y="371.5"/>
    </contour>
    <contour>
      <point x="402.5" y="210.5" type="line"/>
      <point x="413.5" y="277.5" type="line"/>
      <point x="766.5" y="278" type="line"/>
      <point x="775" y="210" type="line"/>
    </contour>
    <contour>
      <point x="699.5" y="250" type="line" smooth="yes"/>
      <point x="710" y="325.5"/>
      <point x="688" y="398"/>
      <point x="600" y="399.5" type="curve" smooth="yes"/>
      <point x="517" y="401"/>
      <point x="450.5" y="339"/>
      <point x="433.5" y="260" type="curve"/>
      <point x="426" y="230" type="line"/>
      <point x="413" y="141"/>
      <point x="445" y="67"/>
      <point x="537" y="65.5" type="curve" smooth="yes"/>
      <point x="602.5" y="64.5"/>
      <point x="653.5" y="102.5"/>
      <point x="692" y="147.5" type="curve"/>
      <point x="751" y="105.5" type="line"/>
      <point x="695" y="39"/>
      <point x="627.5" y="-11"/>
      <point x="520.5" y="-9.5" type="curve" smooth="yes"/>
      <point x="395.5" y="-7.5"/>
      <point x="333" y="109"/>
      <point x="355.5" y="230" type="curve" smooth="yes"/>
      <point x="359.5" y="247"/>
      <point x="370.5" y="263"/>
      <point x="377" y="279" type="curve" smooth="yes"/>
      <point x="416.5" y="382.5"/>
      <point x="495" y="470.5"/>
      <point x="616" y="469.5" type="curve" smooth="yes"/>
      <point x="736" y="468.5"/>
      <point x="795" y="357.5"/>
      <point x="780.5" y="234" type="curve" smooth="yes"/>
      <point x="779.5" y="226"/>
      <point x="778" y="218.5"/>
      <point x="776" y="210.5" type="curve"/>
      <point x="696" y="230.5" type="line"/>
    </contour>
  </outline>
</glyph>
<glyph name="ccedilla" format="2">
  <advance width="463"/>
  <unicode hex="00E7"/>
  <outline>
    <contour>
      <point x="120" y="230" type="curve" smooth="yes"/>
      <point x="106.5" y="145"/>
      <point x="151.5" y="67"/>
      <point x="241.5" y="65.5" type="curve" smooth="yes"/>
      <point x="313.5" y="64.5"/>
      <point x="377.5" y="103.5"/>
      <point x="413.5" y="148" type="curve"/>
      <point x="398" y="48.5" type="line"/>
      <point x="357" y="12.5"/>
      <point x="296.5" y="-9.5"/>
      <point x="234" y="-9.5" type="curve" smooth="yes"/>
      <point x="100" y="-9"/>
      <point x="22" y="102.5"/>
      <point x="40.5" y="230" type="curve" smooth="yes"/>
      <point x="60.5" y="363"/>
      <point x="174.5" y="469"/>
      <point x="310.5" y="469.5" type="curve" smooth="yes"/>
      <point x="369.5" y="469.5"/>
      <point x="424" y="449"/>
      <point x="458.5" y="410.5" type="curve"/>
      <point x="442.5" y="311" type="line"/>
      <point x="422.5" y="361"/>
      <point x="370" y="395"/>
      <point x="303.5" y="394.5" type="curve" smooth="yes"/>
      <point x="212" y="394"/>
      <point x="135.5" y="320"/>
    </contour>
    <contour>
      <point x="232" y="58" type="line"/>
      <point x="292" y="58" type="line"/>
      <point x="211" y="-53" type="line"/>
      <point x="213.5" y="-53"/>
      <point x="215.5" y="-53"/>
      <point x="218" y="-53" type="curve" smooth="yes"/>
      <point x="253.5" y="-56.5"/>
      <point x="283" y="-84.5"/>
      <point x="278" y="-128" type="curve" smooth="yes"/>
      <point x="271" y="-184.5"/>
      <point x="214" y="-220.5"/>
      <point x="160.5" y="-220.5" type="curve" smooth="yes"/>
      <point x="125" y="-220.5"/>
      <point x="102.5" y="-206.5"/>
      <point x="77" y="-181.5" type="curve"/>
      <point x="115.5" y="-143.5" type="line"/>
      <point x="131.5" y="-157"/>
      <point x="143" y="-167"/>
      <point x="165.5" y="-167" type="curve" smooth="yes"/>
      <point x="193" y="-167"/>
      <point x="220" y="-149.5"/>
      <point x="223" y="-126.5" type="curve" smooth="yes"/>
      <point x="226" y="-104"/>
      <point x="208" y="-91.5"/>
      <point x="182" y="-91" type="curve" smooth="yes"/>
      <point x="166.5" y="-90"/>
      <point x="141" y="-97.5"/>
      <point x="121" y="-108" type="curve"/>
    </contour>
  </outline>
</glyph>
<glyph name="eacute" format="2">
  <advance width="499"/>
  <unicode hex="00E9"/>
  <outline>
    <contour>
      <point x="92" y="210.5" type="line"/>
      <point x="103" y="277.5" type="line"/>
      <point x="400.5" y="278" type="line"/>
      <point x="401.5" y="344.5"/>
      <point x="376" y="398.5"/>
      <point x="299" y="399.5" type="curve" smooth="yes"/>
      <point x="216" y="400.5"/>
      <point x="149.5" y="339"/>
      <point x="132.5" y="260" type="curve"/>
      <point x="125" y="230" type="line"/>
      <point x="112" y="141"/>
      <point x="145" y="67"/>
      <point x="236.5" y="65.5" type="curve" smooth="yes"/>
      <point x="302" y="64.5"/>
      <point x="352.5" y="102.5"/>
      <point x="391" y="147.5" type="curve"/>
      <point x="450" y="105.5" type="line"/>
      <point x="393.5" y="39"/>
      <point x="326.5" y="-10.5"/>
      <point x="219.5" y="-9.5" type="curve" smooth="yes"/>
      <point x="91" y="-8"/>
      <point x="28.5" y="106.5"/>
      <point x="45" y="230" type="curve" smooth="yes"/>
      <point x="47.5" y="247"/>
      <point x="51.5" y="263"/>
      <point x="57" y="279" type="curve" smooth="yes"/>
      <point x="91.5" y="386"/>
      <point x="187" y="470"/>
      <point x="305.5" y="469.5" type="curve" smooth="yes"/>
      <point x="438.5" y="469"/>
      <point x="495" y="361.5"/>
      <point x="479.5" y="234" type="curve" smooth="yes"/>
      <point x="478.5" y="226"/>
      <point x="477.5" y="218.5"/>
      <point x="475.5" y="210.5" type="curve"/>
    </contour>
    <contour>
      <point x="502" y="687.5" type="line"/>
      <point x="303" y="541" type="line"/>
      <point x="261.5" y="571.5" type="line"/>
      <point x="433" y="729.5" type="line"/>
    </contour>
  </outline>
</glyph>
<glyph name="edieresis" format="2">
  <advance width="499"/>
  <unicode hex="00EB"/>
  <outline>
    <contour>
      <point x="92" y="210.5" type="line"/>
      <point x="103" y="277.5" type="line"/>
      <point x="400.5" y="278" type="line"/>
      <point x="401.5" y="344.5"/>
      <point x="376" y="398.5"/>
      <point x="299" y="399.5" type="curve" smooth="yes"/>
      <point x="216" y="400.5"/>
      <point x="149.5" y="339"/>
      <point x="132.5" y="260" type="curve"/>
      <point x="125" y="230" type="line"/>
      <point x="112" y="141"/>
      <point x="145" y="67"/>
      <point x="236.5" y="65.5" type="curve" smooth="yes"/>
      <point x="302" y="64.5"/>
      <point x="352.5" y="102.5"/>
      <point x="391" y="147.5" type="curve"/>
      <point x="450" y="105.5" type="line"/>
      <point x="393.5" y="39"/>
      <point x="326.5" y="-10.5"/>
      <point x="219.5" y="-9.5" type="curve" smooth="yes"/>
      <point x="91" y="-8"/>
      <point x="28.5" y="106.5"/>
      <point x="45" y="230" type="curve" smooth="yes"/>
      <point x="47.5" y="247"/>
      <point x="51.5" y="263"/>
      <point x="57" y="279" type="curve" smooth="yes"/>
      <point x="91.5" y="386"/>
      <point x="187" y="470"/>
      <point x="305.5" y="469.5" type="curve" smooth="yes"/>
      <point x="438.5" y="469"/>
      <point x="495" y="361.5"/>
      <point x="479.5" y="234" type="curve" smooth="yes"/>
      <point x="478.5" y="226"/>
      <point x="477.5" y="218.5"/>
      <point x="475.5" y="210.5" type="curve"/>
    </contour>
    <contour>
      <point x="371" y="586" type="curve" smooth="yes"/>
      <point x="374" y="613"/>
      <point x="405.5" y="641"/>
      <point x="433" y="639.5" type="curve" smooth="yes"/>
      <point x="461.5" y="638"/>
      <point x="482" y="612"/>
      <point x="479" y="584" type="curve" smooth="yes"/>
      <point x="476" y="557"/>
      <point x="444.5" y="529"/>
      <point x="417" y="530.5" type="curve" smooth="yes"/>
      <point x="388.5" y="532"/>
      <point x="368" y="558"/>
    </contour>
    <contour>
      <point x="177" y="586" type="curve" smooth="yes"/>
      <point x="180" y="613"/>
      <point x="211.5" y="641"/>
      <point x="239" y="639.5" type="curve" smooth="yes"/>
      <point x="267.5" y="638"/>
      <point x="288" y="612"/>
      <point x="285" y="584" type="curve" smooth="yes"/>
      <point x="282" y="557"/>
      <point x="250" y="529"/>
      <point x="222.5" y="530.5" type="curve" smooth="yes"/>
      <point x="194" y="532"/>
      <point x="174" y="558"/>
    </contour>
  </outline>
</glyph>
<glyph name="igrave" format="2">
  <advance width="252"/>
  <unicode hex="00EC"/>
  <outline>
    <contour>
      <point x="137" y="459.5" type="line"/>
      <point x="218" y="460" type="line"/>
      <point x="137.5" y="0" type="line"/>
      <point x="60.5" y="0" type="line"/>
    </contour>
    <contour>
      <point x="62.5" y="701" type="line"/>
      <point x="141.5" y="740" type="line"/>
      <point x="262" y="579" type="line"/>
      <point x="214.5" y="550" type="line"/>
    </contour>
  </outline>
</glyph>
<glyph name="icircumflex" format="2">
  <advance width="252"/>
  <unicode hex="00EE"/>
  <outline>
    <contour>
      <point x="137" y="459.5" type="line"/>
      <point x="218" y="460" type="line"/>
      <point x="137.5" y="0" type="line"/>
      <point x="60.5" y="0" type="line"/>
    </contour>
    <contour>
      <point x="210" y="634.5" type="line"/>
      <point x="86" y="540.5" type="line"/>
      <point x="42" y="581.5" type="line"/>
      <point x="220" y="720" type="line"/>
      <point x="354" y="579" type="line"/>
      <point x="300.5" y="540.5" type="line"/>
    </contour>
  </outline>
</glyph>
<glyph name="eth" format="1">
  <advance width="558"/>
  <unicode hex="00F0"/>
  <outline>
    <contour>
      <point x="443.5" y="230" type="curve" smooth="yes"/>
      <point x="457" y="314.5"/>
      <point x="413" y="394"/>
      <point x="322.5" y="394.5" type="curve" smooth="yes"/>
      <point x="231" y="395"/>
      <point x="154.5" y="319.5"/>
      <point x="139.5" y="230" type="curve" smooth="yes"/>
      <point x="126" y="145.5"/>
      <point x="171" y="68"/>
      <point x="261" y="67.5" type="curve" smooth="yes"/>
      <point x="352.5" y="67"/>
      <point x="428.5" y="140.5"/>
    </contour>
    <contour>
      <point x="330" y="700" type="line"/>
      <point x="504" y="375" type="line" smooth="yes"/>
      <point x="524.5" y="332.5"/>
      <point x="531" y="282"/>
      <point x="523.5" y="230" type="curve" smooth="yes"/>
      <point x="503" y="95"/>
      <point x="390" y="-9.5"/>
      <point x="253.5" y="-9.5" type="curve" smooth="yes"/>
      <point x="119" y="-9.5"/>
      <point x="41" y="100"/>
      <point x="59.5" y="230.5" type="curve" smooth="yes"/>
      <point x="77.5" y="351"/>
      <point x="178.5" y="456"/>
      <point x="297.5" y="456.5" type="curve" smooth="yes"/>
      <point x="340" y="456.5"/>
      <point x="370.5" y="445.5"/>
      <point x="397" y="414.5" type="curve"/>
      <point x="392" y="410.5" type="line"/>
      <point x="228.5" y="700" type="line"/>
    </contour>
    <contour>
      <point x="212" y="520.5" type="line"/>
      <point x="222" y="584.5" type="line"/>
      <point x="514.5" y="584.5" type="line"/>
      <point x="504" y="520.5" type="line"/>
    </contour>
  </outline>
</glyph>
<glyph name="oacute" format="1">
  <advance width="529"/>
  <unicode hex="00F3"/>
  <outline>
    <contour>
      <point x="45" y="230" type="curve" smooth="yes"/>
      <point x="65" y="362"/>
      <point x="179.5" y="469.5"/>
      <point x="315" y="469.5" type="curve" smooth="yes"/>
      <point x="449" y="469.5"/>
      <point x="527.5" y="357.5"/>
      <point x="509" y="230" type="curve" smooth="yes"/>
      <point x="489" y="98"/>
      <point x="374.5" y="-9.5"/>
      <point x="239" y="-9.5" type="curve" smooth="yes"/>
      <point x="105" y="-9.5"/>
      <point x="26.5" y="102.5"/>
    </contour>
    <contour>
      <point x="125" y="230" type="curve" smooth="yes"/>
      <point x="111.5" y="145.5"/>
      <point x="155.5" y="66"/>
      <point x="246" y="65.5" type="curve" smooth="yes"/>
      <point x="337.5" y="65"/>
      <point x="414" y="140.5"/>
      <point x="429" y="230" type="curve" smooth="yes"/>
      <point x="442.5" y="314.5"/>
      <point x="398.5" y="394"/>
      <point x="308" y="394.5" type="curve" smooth="yes"/>
      <point x="216.5" y="395"/>
      <point x="140" y="319.5"/>
    </contour>
    <contour>
      <point x="513" y="697.5" type="line"/>
      <point x="314.5" y="551" type="line"/>
      <point x="273" y="581.5" type="line"/>
      <point x="444.5" y="739.5" type="line"/>
    </contour>
  </outline>
</glyph>
<glyph name="oslash" format="2">
  <advance width="529"/>
  <unicode hex="00F8"/>
  <outline>
    <contour>
      <point x="45" y="230" type="curve" smooth="yes"/>
      <point x="65" y="362"/>
      <point x="179.5" y="469.5"/>
      <point x="315" y="469.5" type="curve" smooth="yes"/>
      <point x="449" y="469.5"/>
      <point x="527.5" y="357.5"/>
      <point x="509" y="230" type="curve" smooth="yes"/>
      <point x="489" y="98"/>
      <point x="374.5" y="-9.5"/>
      <point x="239" y="-9.5" type="curve" smooth="yes"/>
      <point x="105" y="-9.5"/>
      <point x="26.5" y="102.5"/>
    </contour>
    <contour>
      <point x="125" y="230" type="curve" smooth="yes"/>
      <point x="111.5" y="145.5"/>
      <point x="155.5" y="66"/>
      <point x="246" y="65.5" type="curve" smooth="yes"/>
      <point x="337.5" y="65"/>
      <point x="414" y="140.5"/>
      <point x="429" y="230" type="curve" smooth="yes"/>
      <point x="442.5" y="314.5"/>
      <point x="398.5" y="394"/>
      <point x="308" y="394.5" type="curve" smooth="yes"/>
      <point x="216.5" y="395"/>
      <point x="140" y="319.5"/>
    </contour>
    <contour>
      <point x="483.5" y="499" type="line"/>
      <point x="526.5" y="478.5" type="line"/>
      <point x="59.5" y="-43" type="line"/>
      <point x="16.5" y="-22.5" type="line"/>
    </contour>
  </outline>
</glyph>
<glyph name="udieresis" format="2">
  <advance width="509"/>
  <unicode hex="00FC"/>
  <outline>
    <contour>
      <point x="330.5" y="0" type="line"/>
      <point x="410" y="460" type="line"/>
      <point x="489.5" y="460" type="line"/>
      <point x="410" y="0" type="line"/>
    </contour>
    <contour>
      <point x="154" y="180" type="line" smooth="yes"/>
      <point x="146.5" y="117.5"/>
      <point x="161" y="67"/>
      <point x="226.5" y="65.5" type="curve" smooth="yes"/>
      <point x="297" y="64"/>
      <point x="346" y="118.5"/>
      <point x="362" y="179" type="curve"/>
      <point x="398.5" y="179" type="line"/>
      <point x="378.5" y="80"/>
      <point x="301.5" y="-9.5"/>
      <point x="200" y="-9.5" type="curve" smooth="yes"/>
      <point x="100" y="-9.5"/>
      <point x="62" y="69.5"/>
      <point x="74" y="170" type="curve"/>
      <point x="124.5" y="460" type="line"/>
      <point x="201.5" y="459.5" type="line"/>
    </contour>
    <contour>
      <point x="374.5" y="606" type="curve" smooth="yes"/>
      <point x="377.5" y="632.5"/>
      <point x="408" y="661"/>
      <point x="435.5" y="659.5" type="curve" smooth="yes"/>
      <point x="464" y="658"/>
      <point x="485.5" y="632"/>
      <point x="482.5" y="604" type="curve" smooth="yes"/>
      <point x="479.5" y="577"/>
      <point x="446.5" y="549"/>
      <point x="419" y="550.5" type="curve" smooth="yes"/>
      <point x="390" y="552"/>
      <point x="371.5" y="578.5"/>
    </contour>
    <contour>
      <point x="180.5" y="606" type="curve" smooth="yes"/>
      <point x="183.5" y="632.5"/>
      <point x="214" y="661"/>
      <point x="241.5" y="659.5" type="curve" smooth="yes"/>
      <point x="270" y="658"/>
      <point x="291" y="632"/>
      <point x="288" y="604" type="curve" smooth="yes"/>
      <point x="285" y="577"/>
      <point x="252.5" y="549"/>
      <point x="225" y="550.5" type="curve" smooth="yes"/>
      <point x="196" y="552"/>
      <point x="177.5" y="578.5"/>
    </contour>
  </outline>
</glyph>
<glyph name="thorn" format="2">
  <advance width="553"/>
  <unicode hex="00FE"/>
  <outline>
    <contour>
      <point x="82.5" y="-219.5" type="line"/>
      <point x="1.5" y="-220" type="line"/>
      <point x="174" y="780" type="line"/>
      <point x="251.5" y="779.5" type="line"/>
    </contour>
    <contour>
      <point x="532" y="230" type="curve" smooth="yes"/>
      <point x="512.5" y="94.5"/>
      <point x="402" y="-11"/>
      <point x="272" y="-10" type="curve" smooth="yes"/>
      <point x="148.5" y="-9"/>
      <point x="106" y="106.5"/>
      <point x="122" y="230" type="curve" smooth="yes"/>
      <point x="140" y="361"/>
      <point x="225.5" y="469"/>
      <point x="348" y="469.5" type="curve" smooth="yes"/>
      <point x="477.5" y="470"/>
      <point x="550" y="360"/>
    </contour>
    <contour>
      <point x="452.5" y="230" type="curve" smooth="yes"/>
      <point x="466" y="319.5"/>
      <point x="420" y="394.5"/>
      <point x="331.5" y="394.5" type="curve" smooth="yes"/>
      <point x="251.5" y="394.5"/>
      <point x="172.5" y="322.5"/>
      <point x="158" y="230" type="curve" smooth="yes"/>
      <point x="146" y="143"/>
      <point x="191" y="67.5"/>
      <point x="269.5" y="65.5" type="curve" smooth="yes"/>
      <point x="359" y="63.5"/>
      <point x="437.5" y="136"/>
    </contour>
  </outline>
</glyph>
<glyph name="Amacron" format="2">
  <advance width="640"/>
  <unicode hex="0100"/>
  <outline>
    <contour>
      <point x="151.5" y="211" type="line"/>
      <point x="193" y="289.5" type="line"/>
      <point x="495.5" y="290" type="line"/>
      <point x="511.5" y="210" type="line"/>
    </contour>
    <contour>
      <point x="388" y="542" type="line"/>
      <point x="225.5" y="264" type="line"/>
      <point x="215" y="246" type="line"/>
      <point x="71" y="0" type="line"/>
      <point x="-25" y="0" type="line"/>
      <point x="418.5" y="736.5" type="line"/>
      <point x="608" y="0" type="line"/>
      <point x="516.5" y="0" type="line"/>
      <point x="458.5" y="240" type="line"/>
      <point x="454.5" y="260" type="line"/>
    </contour>
    <contour>
      <point x="259.5" y="795.5" type="line"/>
      <point x="271.5" y="870" type="line"/>
      <point x="613" y="870" type="line"/>
      <point x="600.5" y="795" type="line"/>
    </contour>
  </outline>
</glyph>
<glyph name="Abreve" format="2">
  <advance width="640"/>
  <unicode hex="0102"/>
  <outline>
    <contour>
      <point x="151.5" y="211" type="line"/>
      <point x="193" y="289.5" type="line"/>
      <point x="495.5" y="290" type="line"/>
      <point x="511.5" y="210" type="line"/>
    </contour>
    <contour>
      <point x="388" y="542" type="line"/>
      <point x="225.5" y="264" type="line"/>
      <point x="215" y="246" type="line"/>
      <point x="71" y="0" type="line"/>
      <point x="-25" y="0" type="line"/>
      <point x="418.5" y="736.5" type="line"/>
      <point x="608" y="0" type="line"/>
      <point x="516.5" y="0" type="line"/>
      <point x="458.5" y="240" type="line"/>
      <point x="454.5" y="260" type="line"/>
    </contour>
    <contour>
      <point x="298.5" y="935" type="curve"/>
      <point x="367.5" y="934.5" type="line"/>
      <point x="366" y="901.5"/>
      <point x="378.5" y="861"/>
      <point x="437" y="860.5" type="curve" smooth="yes"/>
      <point x="497.5" y="860"/>
      <point x="522.5" y="902.5"/>
      <point x="536" y="934.5" type="curve"/>
      <point x="606.5" y="934" type="line"/>
      <point x="587.5" y="861.5"/>
      <point x="528.5" y="795.5"/>
      <point x="431.5" y="795.5" type="curve" smooth="yes"/>
      <point x="335.5" y="795.5"/>
      <point x="293" y="861.5"/>
    </contour>
  </outline>
</glyph>
<glyph name="Aogonek" format="2">
  <advance width="640"/>
  <unicode hex="0104"/>
  <outline>
    <contour>
      <point x="151.5" y="211" type="line"/>
      <point x="193" y="289.5" type="line"/>
      <point x="495.5" y="290" type="line"/>
      <point x="511.5" y="210" type="line"/>
    </contour>
    <contour>
      <point x="388" y="542" type="line"/>
      <point x="225.5" y="264" type="line"/>
      <point x="215" y="246" type="line"/>
      <point x="71" y="0" type="line"/>
      <point x="-25" y="0" type="line"/>
      <point x="418.5" y="736.5" type="line"/>
      <point x="608" y="0" type="line"/>
      <point x="516.5" y="0" type="line"/>
      <point x="458.5" y="240" type="line"/>
      <point x="454.5" y="260" type="line"/>
    </contour>
    <contour>
      <point x="590" y="-130" type="curve"/>
      <point x="615" y="-181.5" type="line"/>
      <point x="593" y="-201"/>
      <point x="563.5" y="-219"/>
      <point x="524.5" y="-219.5" type="curve" smooth="yes"/>
      <point x="452.5" y="-220.5"/>
      <point x="410.5" y="-180"/>
      <point x="419.5" y="-119.5" type="curve" smooth="yes"/>
      <point x="430.5" y="-53.5"/>
      <point x="504.5" y="-8.5"/>
      <point x="571" y="24.5" type="curve"/>
      <point x="609.5" y="0" type="line"/>
      <point x="563" y="-22.5"/>
      <point x="508" y="-56"/>
      <point x="501" y="-100" type="curve" smooth="yes"/>
      <point x="498" y="-129"/>
      <point x="510" y="-147.5"/>
      <point x="537.5" y="-149.5" type="curve" smooth="yes"/>
      <point x="559.5" y="-151"/>
      <point x="575.5" y="-140.5"/>
    </contour>
  </outline>
</glyph>
<glyph name="Emacron" format="1">
  <advance width="533"/>
  <unicode hex="0112"/>
  <outline>
    <contour>
      <point x="96.5" y="0" type="line"/>
      <point x="109.5" y="80" type="line"/>
      <point x="454" y="80" type="line"/>
      <point x="440.5" y="0" type="line"/>
    </contour>
    <contour>
      <point x="202.5" y="620.5" type="line"/>
      <point x="215.5" y="700" type="line"/>
      <point x="559.5" y="700" type="line"/>
      <point x="546" y="620" type="line"/>
    </contour>
    <contour>
      <point x="154.5" y="340.5" type="line"/>
      <point x="168" y="420" type="line"/>
      <point x="492.5" y="420" type="line"/>
      <point x="479" y="340" type="line"/>
    </contour>
    <contour>
      <point x="168.5" y="699.5" type="line"/>
      <point x="254" y="700" type="line"/>
      <point x="133" y="0" type="line"/>
      <point x="51" y="0" type="line"/>
    </contour>
    <contour>
      <point x="206.5" y="770.5" type="line"/>
      <point x="219" y="845" type="line"/>
      <point x="560" y="845" type="line"/>
      <point x="547.5" y="770" type="line"/>
    </contour>
  </outline>
</glyph>
<glyph name="Ebreve" format="1">
  <advance width="533"/>
  <unicode hex="0114"/>
  <outline>
    <contour>
      <point x="96.5" y="0" type="line"/>
      <point x="109.5" y="80" type="line"/>
      <point x="454" y="80" type="line"/>
      <point x="440.5" y="0" type="line"/>
    </contour>
    <contour>
      <point x="202.5" y="620.5" type="line"/>
      <point x="215.5" y="700" type="line"/>
      <point x="559.5" y="700" type="line"/>
      <point x="546" y="620" type="line"/>
    </contour>
    <contour>
      <point x="154.5" y="340.5" type="line"/>
      <point x="168" y="420" type="line"/>
      <point x="492.5" y="420" type="line"/>
      <point x="479" y="340" type="line"/>
    </contour>
    <contour>
      <point x="168.5" y="699.5" type="line"/>
      <point x="254" y="700" type="line"/>
      <point x="133" y="0" type="line"/>
      <point x="51" y="0" type="line"/>
    </contour>
    <contour>
      <point x="245.5" y="910" type="curve"/>
      <point x="314.5" y="909.5" type="line"/>
      <point x="313" y="876.5"/>
      <point x="325.5" y="836"/>
      <point x="384" y="835.5" type="curve" smooth="yes"/>
      <point x="444.5" y="835"/>
      <point x="469.5" y="877.5"/>
      <point x="483" y="909.5" type="curve"/>
      <point x="554" y="909" type="line"/>
      <point x="535" y="836.5"/>
      <point x="475.5" y="770.5"/>
      <point x="378.5" y="770.5" type="curve" smooth="yes"/>
      <point x="282.5" y="770.5"/>
      <point x="240" y="836.5"/>
    </contour>
  </outline>
</glyph>
<glyph name="eogonek" format="1">
  <advance width="499"/>
  <unicode hex="0119"/>
  <outline>
    <contour>
      <point x="92" y="210.5" type="line"/>
      <point x="103" y="277.5" type="line"/>
      <point x="400.5" y="278" type="line"/>
      <point x="401.5" y="344.5"/>
      <point x="376" y="398.5"/>
      <point x="299" y="399.5" type="curve" smooth="yes"/>
      <point x="216" y="400.5"/>
      <point x="149.5" y="339"/>
      <point x="132.5" y="260" type="curve"/>
      <point x="125" y="230" type="line"/>
      <point x="112" y="141"/>
      <point x="145" y="67"/>
      <point x="236.5" y="65.5" type="curve" smooth="yes"/>
      <point x="302" y="64.5"/>
      <point x="352.5" y="102.5"/>
      <point x="391" y="147.5" type="curve"/>
      <point x="450" y="105.5" type="line"/>
      <point x="393.5" y="39"/>
      <point x="326.5" y="-10.5"/>
      <point x="219.5" y="-9.5" type="curve" smooth="yes"/>
      <point x="91" y="-8"/>
      <point x="28.5" y="106.5"/>
      <point x="45" y="230" type="curve" smooth="yes"/>
      <point x="47.5" y="247"/>
      <point x="51.5" y="263"/>
      <point x="57" y="279" type="curve" smooth="yes"/>
      <point x="91.5" y="386"/>
      <point x="187" y="470"/>
      <point x="305.5" y="469.5" type="curve" smooth="yes"/>
      <point x="438.5" y="469"/>
      <point x="495" y="361.5"/>
      <point x="479.5" y="234" type="curve" smooth="yes"/>
      <point x="478.5" y="226"/>
      <point x="477.5" y="218.5"/>
      <point x="475.5" y="210.5" type="curve"/>
    </contour>
    <contour>
      <point x="239.5" y="-131" type="curve"/>
      <point x="264.5" y="-182.5" type="line"/>
      <point x="242.5" y="-202"/>
      <point x="213" y="-220"/>
      <point x="174" y="-220.5" type="curve" smooth="yes"/>
      <point x="102" y="-221.5"/>
      <point x="60" y="-181"/>
      <point x="69" y="-120.5" type="curve" smooth="yes"/>
      <point x="80" y="-54.5"/>
      <point x="154" y="-9.5"/>
      <point x="220.5" y="23.5" type="curve"/>
      <point x="259" y="-3" type="line"/>
      <point x="212" y="-23.5"/>
      <point x="157.5" y="-57.5"/>
      <point x="150.5" y="-101" type="curve" smooth="yes"/>
      <point x="147.5" y="-130"/>
      <point x="159.5" y="-148.5"/>
      <point x="187" y="-150.5" type="curve" smooth="yes"/>
      <point x="209" y="-152"/>
      <point x="225" y="-141.5"/>
    </contour>
  </outline>
</glyph>
<glyph name="gcircumflex" format="2">
  <advance width="553"/>
  <unicode hex="011D"/>
  <outline>
    <contour>
      <point x="9.5" y="-30" type="curve"/>
      <point x="88.5" y="-30.5" type="line"/>
      <point x="83.5" y="-98"/>
      <point x="124" y="-154"/>
      <point x="207.5" y="-154.5" type="curve" smooth="yes"/>
      <point x="289.5" y="-155.5"/>
      <point x="365" y="-88"/>
      <point x="381" y="10" type="curve"/>
      <point x="458.5" y="460" type="line"/>
      <point x="538" y="460" type="line"/>
      <point x="461" y="10" type="line" smooth="yes"/>
      <point x="438.5" y="-131"/>
      <point x="327.5" y="-229"/>
      <point x="200.5" y="-229.5" type="curve" smooth="yes"/>
      <point x="72" y="-230"/>
      <point x="-2" y="-146"/>
    </contour>
    <contour>
      <point x="45" y="230" type="curve" smooth="yes"/>
      <point x="64.5" y="365.5"/>
      <point x="175.5" y="471"/>
      <point x="305.5" y="470" type="curve" smooth="yes"/>
      <point x="429" y="469"/>
      <point x="471.5" y="353.5"/>
      <point x="455.5" y="230" type="curve" smooth="yes"/>
      <point x="437.5" y="99"/>
      <point x="352" y="-9"/>
      <point x="229.5" y="-9.5" type="curve" smooth="yes"/>
      <point x="100" y="-10"/>
      <point x="27" y="100"/>
    </contour>
    <contour>
      <point x="125" y="230" type="curve" smooth="yes"/>
      <point x="111.5" y="140.5"/>
      <point x="157.5" y="65.5"/>
      <point x="246" y="65.5" type="curve" smooth="yes"/>
      <point x="326" y="65.5"/>
      <point x="405" y="137.5"/>
      <point x="419.5" y="230" type="curve" smooth="yes"/>
      <point x="431.5" y="317"/>
      <point x="386.5" y="392.5"/>
      <point x="308" y="394.5" type="curve" smooth="yes"/>
      <point x="218.5" y="396.5"/>
      <point x="140" y="324"/>
    </contour>
    <contour>
      <point x="337.5" y="624.5" type="line"/>
      <point x="213.5" y="530.5" type="line"/>
      <point x="169.5" y="571.5" type="line"/>
      <point x="347.5" y="710" type="line"/>
      <point x="481.5" y="569" type="line"/>
      <point x="427.5" y="530.5" type="line"/>
    </contour>
  </outline>
</glyph>
<glyph name="Gbreve" format="1">
  <advance width="752"/>
  <unicode hex="011E"/>
  <outline>
    <contour>
      <point x="411.5" y="275" type="line"/>
      <point x="426" y="355" type="line"/>
      <point x="741.5" y="354.5" type="line"/>
      <point x="708" y="166"/>
      <point x="569.5" y="-10"/>
      <point x="357.5" y="-10" type="curve" smooth="yes"/>
      <point x="155.5" y="-10"/>
      <point x="42.5" y="160"/>
      <point x="70.5" y="350" type="curve" smooth="yes"/>
      <point x="101.5" y="549.5"/>
      <point x="269" y="709.5"/>
      <point x="474.5" y="710" type="curve" smooth="yes"/>
      <point x="593" y="710.5"/>
      <point x="685" y="658.5"/>
      <point x="735" y="560" type="curve"/>
      <point x="668.5" y="506.5" type="line"/>
      <point x="632.5" y="583"/>
      <point x="561.5" y="625"/>
      <point x="466" y="624.5" type="curve" smooth="yes"/>
      <point x="313.5" y="624"/>
      <point x="185" y="502.5"/>
      <point x="159.5" y="350" type="curve" smooth="yes"/>
      <point x="137.5" y="206.5"/>
      <point x="215.5" y="76"/>
      <point x="366" y="75.5" type="curve" smooth="yes"/>
      <point x="502" y="75"/>
      <point x="593" y="169.5"/>
      <point x="639.5" y="275" type="curve"/>
    </contour>
    <contour>
      <point x="357.5" y="910" type="curve"/>
      <point x="426.5" y="909.5" type="line"/>
      <point x="425" y="876.5"/>
      <point x="437.5" y="836"/>
      <point x="496" y="835.5" type="curve" smooth="yes"/>
      <point x="556.5" y="835"/>
      <point x="581.5" y="877.5"/>
      <point x="595" y="909.5" type="curve"/>
      <point x="665.5" y="909" type="line"/>
      <point x="646.5" y="836.5"/>
      <point x="587" y="770.5"/>
      <point x="490" y="770.5" type="curve" smooth="yes"/>
      <point x="394" y="770.5"/>
      <point x="352" y="836.5"/>
    </contour>
  </outline>
</glyph>
<glyph name="gdotaccent" format="2">
  <advance width="553"/>
  <unicode hex="0121"/>
  <outline>
    <contour>
      <point x="9.5" y="-30" type="curve"/>
      <point x="88.5" y="-30.5" type="line"/>
      <point x="83.5" y="-98"/>
      <point x="124" y="-154"/>
      <point x="207.5" y="-154.5" type="curve" smooth="yes"/>
      <point x="289.5" y="-155.5"/>
      <point x="365" y="-88"/>
      <point x="381" y="10" type="curve"/>
      <point x="458.5" y="460" type="line"/>
      <point x="538" y="460" type="line"/>
      <point x="461" y="10" type="line" smooth="yes"/>
      <point x="438.5" y="-131"/>
      <point x="327.5" y="-229"/>
      <point x="200.5" y="-229.5" type="curve" smooth="yes"/>
      <point x="72" y="-230"/>
      <point x="-2" y="-146"/>
    </contour>
    <contour>
      <point x="45" y="230" type="curve" smooth="yes"/>
      <point x="64.5" y="365.5"/>
      <point x="175.5" y="471"/>
      <point x="305.5" y="470" type="curve" smooth="yes"/>
      <point x="429" y="469"/>
      <point x="471.5" y="353.5"/>
      <point x="455.5" y="230" type="curve" smooth="yes"/>
      <point x="437.5" y="99"/>
      <point x="352" y="-9"/>
      <point x="229.5" y="-9.5" type="curve" smooth="yes"/>
      <point x="100" y="-10"/>
      <point x="27" y="100"/>
    </contour>
    <contour>
      <point x="125" y="230" type="curve" smooth="yes"/>
      <point x="111.5" y="140.5"/>
      <point x="157.5" y="65.5"/>
      <point x="246" y="65.5" type="curve" smooth="yes"/>
      <point x="326" y="65.5"/>
      <point x="405" y="137.5"/>
      <point x="419.5" y="230" type="curve" smooth="yes"/>
      <point x="431.5" y="317"/>
      <point x="386.5" y="392.5"/>
      <point x="308" y="394.5" type="curve" smooth="yes"/>
      <point x="218.5" y="396.5"/>
      <point x="140" y="324"/>
    </contour>
    <contour>
      <point x="300.5" y="626" type="curve" smooth="yes"/>
      <point x="303.5" y="653"/>
      <point x="335" y="681"/>
      <point x="362.5" y="679.5" type="curve" smooth="yes"/>
      <point x="391" y="678"/>
      <point x="411" y="652"/>
      <point x="408" y="624" type="curve" smooth="yes"/>
      <point x="405" y="597"/>
      <point x="373.5" y="569"/>
      <point x="346" y="570.5" type="curve" smooth="yes"/>
      <point x="317.5" y="572"/>
      <point x="297.5" y="598"/>
    </contour>
  </outline>
</glyph>
<glyph name="uni0122" format="1">
  <advance width="752"/>
  <unicode hex="0122"/>
  <outline>
    <contour>
      <point x="411.5" y="275" type="line"/>
      <point x="426" y="355" type="line"/>
      <point x="741.5" y="354.5" type="line"/>
      <point x="708" y="166"/>
      <point x="569.5" y="-10"/>
      <point x="357.5" y="-10" type="curve" smooth="yes"/>
      <point x="155.5" y="-10"/>
      <point x="42.5" y="160"/>
      <point x="70.5" y="350" type="curve" smooth="yes"/>
      <point x="101.5" y="549.5"/>
      <point x="269" y="709.5"/>
      <point x="474.5" y="710" type="curve" smooth="yes"/>
      <point x="593" y="710.5"/>
      <point x="685" y="658.5"/>
      <point x="735" y="560" type="curve"/>
      <point x="668.5" y="506.5" type="line"/>
      <point x="632.5" y="583"/>
      <point x="561.5" y="625"/>
      <point x="466" y="624.5" type="curve" smooth="yes"/>
      <point x="313.5" y="624"/>
      <point x="185" y="502.5"/>
      <point x="159.5" y="350" type="curve" smooth="yes"/>
      <point x="137.5" y="206.5"/>
      <point x="215.5" y="76"/>
      <point x="366" y="75.5" type="curve" smooth="yes"/>
      <point x="502" y="75"/>
      <point x="593" y="169.5"/>
      <point x="639.5" y="275" type="curve"/>
    </contour>
    <contour>
      <point x="346" y="-71" type="line"/>
      <point x="422.5" y="-102" type="line"/>
      <point x="272.5" y="-349" type="line"/>
      <point x="217.5" y="-328" type="line"/>
    </contour>
  </outline>
</glyph>
<glyph name="Hcircumflex" format="2">
  <advance width="693"/>
  <unicode hex="0124"/>
  <outline>
    <contour>
      <point x="154.5" y="340.5" type="line"/>
      <point x="167.5" y="420" type="line"/>
      <point x="635" y="420" type="line"/>
      <point x="621.5" y="340" type="line"/>
    </contour>
    <contour>
      <point x="624.5" y="699.5" type="line"/>
      <point x="710.5" y="700" type="line"/>
      <point x="589" y="0" type="line"/>
      <point x="507" y="0" type="line"/>
    </contour>
    <contour>
      <point x="168.5" y="699.5" type="line"/>
      <point x="254" y="700" type="line"/>
      <point x="133" y="0" type="line"/>
      <point x="51" y="0" type="line"/>
    </contour>
    <contour>
      <point x="470.5" y="864.5" type="line"/>
      <point x="347" y="770.5" type="line"/>
      <point x="302.5" y="811.5" type="line"/>
      <point x="480.5" y="950" type="line"/>
      <point x="614.5" y="809" type="line"/>
      <point x="561" y="770.5" type="line"/>
    </contour>
  </outline>
</glyph>
<glyph name="Imacron" format="2">
  <advance width="237"/>
  <unicode hex="012A"/>
  <outline>
    <contour>
      <point x="168.5" y="699.5" type="line"/>
      <point x="254" y="700" type="line"/>
      <point x="133" y="0" type="line"/>
      <point x="51" y="0" type="line"/>
    </contour>
    <contour>
      <point x="54" y="770.5" type="line"/>
      <point x="66.5" y="845" type="line"/>
      <point x="408" y="845" type="line"/>
      <point x="395" y="770" type="line"/>
    </contour>
  </outline>
</glyph>
<glyph name="ibreve" format="1">
  <advance width="252"/>
  <unicode hex="012D"/>
  <outline>
    <contour>
      <point x="137" y="459.5" type="line"/>
      <point x="218" y="460" type="line"/>
      <point x="137.5" y="0" type="line"/>
      <point x="60.5" y="0" type="line"/>
    </contour>
    <contour>
      <point x="59" y="670" type="curve"/>
      <point x="128" y="669.5" type="line"/>
      <point x="126.5" y="636.5"/>
      <point x="139" y="596"/>
      <point x="197.5" y="595.5" type="curve" smooth="yes"/>
      <point x="258" y="595"/>
      <point x="283" y="637.5"/>
      <point x="296.5" y="669.5" type="curve"/>
      <point x="367" y="669" type="line"/>
      <point x="348" y="597"/>
      <point x="289" y="530.5"/>
      <point x="192" y="530.5" type="curve" smooth="yes"/>
      <point x="96" y="530.5"/>
      <point x="53.5" y="596.5"/>
    </contour>
  </outline>
</glyph>
<glyph name="Iogonek" format="2">
  <advance width="237"/>
  <unicode hex="012E"/>
  <outline>
    <contour>
      <point x="168.5" y="699.5" type="line"/>
      <point x="254" y="700" type="line"/>
      <point x="133" y="0" type="line"/>
      <point x="51" y="0" type="line"/>
    </contour>
    <contour>
      <point x="114.5" y="-130" type="curve"/>
      <point x="139.5" y="-181.5" type="line"/>
      <point x="117.5" y="-201"/>
      <point x="88" y="-219"/>
      <point x="49" y="-219.5" type="curve" smooth="yes"/>
      <point x="-23" y="-220.5"/>
      <point x="-65" y="-180"/>
      <point x="-56" y="-119.5" type="curve" smooth="yes"/>
      <point x="-45" y="-53.5"/>
      <point x="29" y="-8.5"/>
      <point x="95.5" y="24.5" type="curve"/>
      <point x="134" y="0" type="line"/>
      <point x="87.5" y="-22.5"/>
      <point x="32.5" y="-56"/>
      <point x="25.5" y="-100" type="curve" smooth="yes"/>
      <point x="22.5" y="-129"/>
      <point x="34.5" y="-147.5"/>
      <point x="62" y="-149.5" type="curve" smooth="yes"/>
      <point x="84" y="-151"/>
      <point x="100" y="-140.5"/>
    </contour>
  </outline>
</glyph>
<glyph name="Idotaccent" format="2">
  <advance width="237"/>
  <unicode hex="0130"/>
  <outline>
    <contour>
      <point x="168.5" y="699.5" type="line"/>
      <point x="254" y="700" type="line"/>
      <point x="133" y="0" type="line"/>
      <point x="51" y="0" type="line"/>
    </contour>
    <contour>
      <point x="178" y="826" type="curve" smooth="yes"/>
      <point x="181" y="853"/>
      <point x="213" y="881"/>
      <point x="240.5" y="879.5" type="curve" smooth="yes"/>
      <point x="269" y="878"/>
      <point x="289" y="852"/>
      <point x="286" y="824" type="curve" smooth="yes"/>
      <point x="283" y="797"/>
      <point x="251.5" y="769"/>
      <point x="224" y="770.5" type="curve" smooth="yes"/>
      <point x="195.5" y="772"/>
      <point x="175" y="798"/>
    </contour>
  </outline>
</glyph>
<glyph name="Jcircumflex" format="1">
  <advance width="232"/>
  <unicode hex="0134"/>
  <outline>
    <contour>
      <point x="-112" y="-104.5" type="line"/>
      <point x="-97" y="-126.5"/>
      <point x="-74.5" y="-141"/>
      <point x="-42" y="-140" type="curve" smooth="yes"/>
      <point x="-3" y="-138"/>
      <point x="32.5" y="-103"/>
      <point x="41" y="-50" type="curve"/>
      <point x="169.5" y="700" type="line"/>
      <point x="249" y="700" type="line"/>
      <point x="119.5" y="-60.5" type="line" smooth="yes"/>
      <point x="103.5" y="-157"/>
      <point x="39.5" y="-220.5"/>
      <point x="-55.5" y="-219.5" type="curve" smooth="yes"/>
      <point x="-103.5" y="-219"/>
      <point x="-143" y="-194.5"/>
      <point x="-164.5" y="-169" type="curve"/>
    </contour>
    <contour>
      <point x="239.5" y="864.5" type="line"/>
      <point x="116" y="770.5" type="line"/>
      <point x="71.5" y="811.5" type="line"/>
      <point x="249.5" y="950" type="line"/>
      <point x="383.5" y="809" type="line"/>
      <point x="330" y="770.5" type="line"/>
    </contour>
  </outline>
</glyph>
<glyph name="jcircumflex" format="2">
  <advance width="242"/>
  <unicode hex="0135"/>
  <outline>
    <contour>
      <point x="-65" y="-114.5" type="line"/>
      <point x="-53.5" y="-132"/>
      <point x="-39.5" y="-140.5"/>
      <point x="-22.5" y="-140.5" type="curve" smooth="yes"/>
      <point x="14" y="-140"/>
      <point x="34.5" y="-99.5"/>
      <point x="41" y="-50" type="curve" smooth="yes"/>
      <point x="128.5" y="460" type="line"/>
      <point x="208" y="460" type="line"/>
      <point x="119.5" y="-60.5" type="line" smooth="yes"/>
      <point x="105.5" y="-153"/>
      <point x="52" y="-221.5"/>
      <point x="-36" y="-219.5" type="curve" smooth="yes"/>
      <point x="-74.5" y="-219"/>
      <point x="-99.5" y="-200.5"/>
      <point x="-117.5" y="-178.5" type="curve"/>
    </contour>
    <contour>
      <point x="198.5" y="624.5" type="line"/>
      <point x="75" y="530.5" type="line"/>
      <point x="30.5" y="571.5" type="line"/>
      <point x="208.5" y="710" type="line"/>
      <point x="342.5" y="569" type="line"/>
      <point x="289" y="530.5" type="line"/>
    </contour>
  </outline>
</glyph>
<glyph name="uni0137" format="2">
  <advance width="426"/>
  <unicode hex="0137"/>
  <outline>
    <contour>
      <point x="172.5" y="779.5" type="line"/>
      <point x="253.5" y="780" type="line"/>
      <point x="118.5" y="0" type="line"/>
      <point x="41" y="0" type="line"/>
    </contour>
    <contour>
      <point x="359.5" y="459.5" type="line"/>
      <point x="462" y="459.5" type="line"/>
      <point x="232" y="268" type="line"/>
      <point x="398.5" y="0" type="line"/>
      <point x="304" y="0" type="line"/>
      <point x="135.5" y="272.5" type="line"/>
    </contour>
    <contour>
      <point x="212" y="-61" type="line"/>
      <point x="288.5" y="-92" type="line"/>
      <point x="138.5" y="-339" type="line"/>
      <point x="83.5" y="-318" type="line"/>
    </contour>
  </outline>
</glyph>
<glyph name="lslash" format="2">
  <advance width="223"/>
  <unicode hex="0142"/>
  <outline>
    <contour>
      <point x="36.5" y="340.5" type="line"/>
      <point x="25.5" y="396" type="line"/>
      <point x="293.5" y="544.5" type="line"/>
      <point x="304.5" y="489" type="line"/>
    </contour>
    <contour>
      <point x="177.5" y="779.5" type="line"/>
      <point x="258" y="780" type="line"/>
      <point x="123" y="0" type="line"/>
      <point x="46" y="0" type="line"/>
    </contour>
  </outline>
</glyph>
<glyph name="nacute" format="2">
  <advance width="509"/>
  <unicode hex="0144"/>
  <outline>
    <contour>
      <point x="203" y="460" type="line"/>
      <point x="123.5" y="0" type="line"/>
      <point x="44" y="0" type="line"/>
      <point x="124" y="460" type="line"/>
    </contour>
    <contour>
      <point x="380" y="280" type="line" smooth="yes"/>
      <point x="387.5" y="342.5"/>
      <point x="373" y="393"/>
      <point x="307" y="394.5" type="curve" smooth="yes"/>
      <point x="236.5" y="396"/>
      <point x="187.5" y="341.5"/>
      <point x="171.5" y="281" type="curve"/>
      <point x="145" y="281" type="line"/>
      <point x="164" y="379.5"/>
      <point x="232.5" y="469.5"/>
      <point x="333.5" y="469.5" type="curve" smooth="yes"/>
      <point x="433.5" y="469.5"/>
      <point x="471.5" y="390.5"/>
      <point x="459.5" y="290" type="curve"/>
      <point x="409.5" y="0" type="line"/>
      <point x="332" y="0" type="line"/>
    </contour>
    <contour>
      <point x="479.5" y="677.5" type="line"/>
      <point x="281" y="530.5" type="line"/>
      <point x="240.5" y="561.5" type="line"/>
      <point x="412" y="719.5" type="line"/>
    </contour>
  </outline>
</glyph>
<glyph name="uni0145" format="1">
  <advance width="752"/>
  <unicode hex="0145"/>
  <outline>
    <contour>
      <point x="352" y="-36" type="line"/>
      <point x="428.5" y="-67" type="line"/>
      <point x="278.5" y="-314" type="line"/>
      <point x="223.5" y="-293" type="line"/>
    </contour>
    <contour>
      <point x="684" y="700" type="line"/>
      <point x="768" y="700" type="line"/>
      <point x="642" y="-34" type="line"/>
      <point x="223.5" y="521.5" type="line"/>
      <point x="133.5" y="0" type="line"/>
      <point x="49" y="0" type="line"/>
      <point x="175" y="734" type="line"/>
      <point x="594" y="178.5" type="line"/>
    </contour>
  </outline>
</glyph>
<glyph name="uni0146" format="1">
  <advance width="509"/>
  <unicode hex="0146"/>
  <outline>
    <contour>
      <point x="203" y="460" type="line"/>
      <point x="123.5" y="0" type="line"/>
      <point x="44" y="0" type="line"/>
      <point x="124" y="460" type="line"/>
    </contour>
    <contour>
      <point x="380" y="280" type="line" smooth="yes"/>
      <point x="387.5" y="342.5"/>
      <point x="373" y="393"/>
      <point x="307" y="394.5" type="curve" smooth="yes"/>
      <point x="236.5" y="396"/>
      <point x="187.5" y="341.5"/>
      <point x="171.5" y="281" type="curve"/>
      <point x="135.5" y="281" type="line"/>
      <point x="155.5" y="380"/>
      <point x="232" y="469.5"/>
      <point x="333.5" y="469.5" type="curve" smooth="yes"/>
      <point x="433.5" y="469.5"/>
      <point x="471.5" y="390.5"/>
      <point x="459.5" y="290" type="curve"/>
      <point x="409.5" y="0" type="line"/>
      <point x="332" y="0" type="line"/>
    </contour>
    <contour>
      <point x="219" y="-61" type="line"/>
      <point x="295" y="-92" type="line"/>
      <point x="145.5" y="-339" type="line"/>
      <point x="90" y="-318" type="line"/>
    </contour>
  </outline>
</glyph>
<glyph name="ncaron" format="2">
  <advance width="509"/>
  <unicode hex="0148"/>
  <outline>
    <contour>
      <point x="203" y="460" type="line"/>
      <point x="123.5" y="0" type="line"/>
      <point x="44" y="0" type="line"/>
      <point x="124" y="460" type="line"/>
    </contour>
    <contour>
      <point x="380" y="280" type="line" smooth="yes"/>
      <point x="387.5" y="342.5"/>
      <point x="373" y="393"/>
      <point x="307" y="394.5" type="curve" smooth="yes"/>
      <point x="236.5" y="396"/>
      <point x="187.5" y="341.5"/>
      <point x="171.5" y="281" type="curve"/>
      <point x="135.5" y="281" type="line"/>
      <point x="155.5" y="380"/>
      <point x="232" y="469.5"/>
      <point x="333.5" y="469.5" type="curve" smooth="yes"/>
      <point x="433.5" y="469.5"/>
      <point x="471.5" y="390.5"/>
      <point x="459.5" y="290" type="curve"/>
      <point x="409.5" y="0" type="line"/>
      <point x="332" y="0" type="line"/>
    </contour>
    <contour>
      <point x="329.5" y="615.5" type="line"/>
      <point x="453.5" y="709.5" type="line"/>
      <point x="497.5" y="668.5" type="line"/>
      <point x="319.5" y="530" type="line"/>
      <point x="185.5" y="671" type="line"/>
      <point x="239" y="709.5" type="line"/>
    </contour>
  </outline>
</glyph>
<glyph name="obreve" format="2">
  <advance width="529"/>
  <unicode hex="014F"/>
  <outline>
    <contour>
      <point x="45" y="230" type="curve" smooth="yes"/>
      <point x="65" y="362"/>
      <point x="179.5" y="469.5"/>
      <point x="315" y="469.5" type="curve" smooth="yes"/>
      <point x="449" y="469.5"/>
      <point x="527.5" y="357.5"/>
      <point x="509" y="230" type="curve" smooth="yes"/>
      <point x="489" y="98"/>
      <point x="374.5" y="-9.5"/>
      <point x="239" y="-9.5" type="curve" smooth="yes"/>
      <point x="105" y="-9.5"/>
      <point x="26.5" y="102.5"/>
    </contour>
    <contour>
      <point x="125" y="230" type="curve" smooth="yes"/>
      <point x="111.5" y="145.5"/>
      <point x="155.5" y="66"/>
      <point x="246" y="65.5" type="curve" smooth="yes"/>
      <point x="337.5" y="65"/>
      <point x="414" y="140.5"/>
      <point x="429" y="230" type="curve" smooth="yes"/>
      <point x="442.5" y="314.5"/>
      <point x="398.5" y="394"/>
      <point x="308" y="394.5" type="curve" smooth="yes"/>
      <point x="216.5" y="395"/>
      <point x="140" y="319.5"/>
    </contour>
    <contour>
      <point x="198" y="670" type="curve"/>
      <point x="267" y="669.5" type="line"/>
      <point x="265.5" y="636.5"/>
      <point x="278" y="596"/>
      <point x="336.5" y="595.5" type="curve" smooth="yes"/>
      <point x="397" y="595"/>
      <point x="422" y="637.5"/>
      <point x="435.5" y="669.5" type="curve"/>
      <point x="506" y="669" type="line"/>
      <point x="487" y="597"/>
      <point x="428" y="530.5"/>
      <point x="331" y="530.5" type="curve" smooth="yes"/>
      <point x="235" y="530.5"/>
      <point x="192.5" y="596.5"/>
    </contour>
  </outline>
</glyph>
<glyph name="oe" format="1">
  <advance width="873"/>
  <unicode hex="0153"/>
  <outline>
    <contour>
      <point x="772.5" y="250" type="line" smooth="yes"/>
      <point x="783" y="325.5"/>
      <point x="761" y="398"/>
      <point x="673" y="399.5" type="curve" smooth="yes"/>
      <point x="590" y="401"/>
      <point x="523" y="339"/>
      <point x="506" y="260" type="curve"/>
      <point x="498.5" y="230" type="line"/>
      <point x="485.5" y="141"/>
      <point x="518" y="67"/>
      <point x="610" y="65.5" type="curve" smooth="yes"/>
      <point x="675.5" y="64.5"/>
      <point x="726" y="102.5"/>
      <point x="764.5" y="147.5" type="curve"/>
      <point x="823.5" y="105.5" type="line"/>
      <point x="768.5" y="41"/>
      <point x="698" y="-10"/>
      <point x="603" y="-9.5" type="curve" smooth="yes"/>
      <point x="474.5" y="-8.5"/>
      <point x="412" y="107"/>
      <point x="428.5" y="230" type="curve" smooth="yes"/>
      <point x="431" y="247"/>
      <point x="435" y="263"/>
      <point x="440.5" y="279" type="curve" smooth="yes"/>
      <point x="475" y="386"/>
      <point x="570" y="470.5"/>
      <point x="688.5" y="469.5" type="curve" smooth="yes"/>
      <point x="808.5" y="468.5"/>
      <point x="867.5" y="357.5"/>
      <point x="853" y="234" type="curve" smooth="yes"/>
      <point x="852" y="226"/>
      <point x="850.5" y="218.5"/>
      <point x="848.5" y="210.5" type="curve"/>
      <point x="769" y="230.5" type="line"/>
    </contour>
    <contour>
      <point x="475.5" y="210.5" type="line"/>
      <point x="486" y="277.5" type="line"/>
      <point x="839" y="278" type="line"/>
      <point x="848" y="210" type="line"/>
    </contour>
    <contour>
      <point x="45" y="230" type="curve" smooth="yes"/>
      <point x="64.5" y="365.5"/>
      <point x="175.5" y="470"/>
      <point x="305.5" y="469.5" type="curve" smooth="yes"/>
      <point x="435.5" y="469"/>
      <point x="482" y="356.5"/>
      <point x="465.5" y="230" type="curve" smooth="yes"/>
      <point x="446.5" y="97"/>
      <point x="358.5" y="-9"/>
      <point x="229.5" y="-9.5" type="curve" smooth="yes"/>
      <point x="100" y="-10"/>
      <point x="27" y="99.5"/>
    </contour>
    <contour>
      <point x="125" y="230" type="curve" smooth="yes"/>
      <point x="111.5" y="140.5"/>
      <point x="157.5" y="65.5"/>
      <point x="246" y="65.5" type="curve" smooth="yes"/>
      <point x="325" y="65.5"/>
      <point x="395.5" y="138.5"/>
      <point x="409.5" y="230" type="curve" smooth="yes"/>
      <point x="421" y="315"/>
      <point x="386.5" y="392.5"/>
      <point x="308" y="394.5" type="curve" smooth="yes"/>
      <point x="218.5" y="397"/>
      <point x="140" y="324"/>
    </contour>
  </outline>
</glyph>
<glyph name="rcaron" format="2">
  <advance width="332"/>
  <unicode hex="0159"/>
  <outline>
    <contour>
      <point x="203" y="460" type="line"/>
      <point x="123.5" y="0" type="line"/>
      <point x="44" y="0" type="line"/>
      <point x="124" y="460" type="line"/>
    </contour>
    <contour>
      <point x="324" y="372.5" type="line"/>
      <point x="305.5" y="386"/>
      <point x="291" y="394.5"/>
      <point x="268" y="395" type="curve" smooth="yes"/>
      <point x="207" y="396"/>
      <point x="182.5" y="337.5"/>
      <point x="171.5" y="281" type="curve"/>
      <point x="135" y="281" type="line"/>
      <point x="151.5" y="373.5"/>
      <point x="215" y="468.5"/>
      <point x="295.5" y="469.5" type="curve" smooth="yes"/>
      <point x="328" y="470"/>
      <point x="353" y="459"/>
      <point x="376.5" y="436.5" type="curve"/>
    </contour>
    <contour>
      <point x="275" y="615.5" type="line"/>
      <point x="399" y="709.5" type="line"/>
      <point x="443" y="668.5" type="line"/>
      <point x="265" y="530" type="line"/>
      <point x="131" y="671" type="line"/>
      <point x="185" y="709.5" type="line"/>
    </contour>
  </outline>
</glyph>
<glyph name="Scedilla" format="1">
  <advance width="531"/>
  <unicode hex="015E"/>
  <outline>
    <contour>
      <point x="119" y="226" type="line"/>
      <point x="144" y="142.5"/>
      <point x="180.5" y="71"/>
      <point x="268" y="70.5" type="curve" smooth="yes"/>
      <point x="342.5" y="70"/>
      <point x="394.5" y="116"/>
      <point x="406.5" y="183" type="curve" smooth="yes"/>
      <point x="421.5" y="268.5"/>
      <point x="348.5" y="308"/>
      <point x="276.5" y="338" type="curve" smooth="yes"/>
      <point x="201" y="370"/>
      <point x="120.5" y="418"/>
      <point x="135.5" y="530.5" type="curve" smooth="yes"/>
      <point x="152" y="635.5"/>
      <point x="244.5" y="709.5"/>
      <point x="361" y="709.5" type="curve" smooth="yes"/>
      <point x="465" y="709.5"/>
      <point x="521" y="642"/>
      <point x="548.5" y="559" type="curve"/>
      <point x="475" y="514.5" type="line"/>
      <point x="453.5" y="572"/>
      <point x="416" y="628"/>
      <point x="344" y="628.5" type="curve" smooth="yes"/>
      <point x="279.5" y="629"/>
      <point x="232" y="587.5"/>
      <point x="222.5" y="529" type="curve" smooth="yes"/>
      <point x="210" y="458"/>
      <point x="285.5" y="425.5"/>
      <point x="354.5" y="396" type="curve" smooth="yes"/>
      <point x="432.5" y="361.5"/>
      <point x="509" y="300.5"/>
      <point x="494.5" y="189.5" type="curve" smooth="yes"/>
      <point x="477.5" y="74"/>
      <point x="379" y="-9.5"/>
      <point x="255.5" y="-9.5" type="curve" smooth="yes"/>
      <point x="141" y="-9.5"/>
      <point x="71" y="76"/>
      <point x="42.5" y="184" type="curve"/>
    </contour>
    <contour>
      <point x="272.5" y="58" type="line"/>
      <point x="333" y="58" type="line"/>
      <point x="251.5" y="-53" type="line"/>
      <point x="254" y="-53"/>
      <point x="256" y="-53"/>
      <point x="258.5" y="-53" type="curve" smooth="yes"/>
      <point x="294" y="-56.5"/>
      <point x="323.5" y="-84.5"/>
      <point x="318.5" y="-128" type="curve" smooth="yes"/>
      <point x="311.5" y="-184.5"/>
      <point x="254.5" y="-220.5"/>
      <point x="201" y="-220.5" type="curve" smooth="yes"/>
      <point x="165.5" y="-220.5"/>
      <point x="143" y="-206.5"/>
      <point x="117.5" y="-181.5" type="curve"/>
      <point x="156" y="-143.5" type="line"/>
      <point x="172" y="-157"/>
      <point x="184" y="-167"/>
      <point x="206.5" y="-167" type="curve" smooth="yes"/>
      <point x="234" y="-167"/>
      <point x="260.5" y="-149.5"/>
      <point x="263.5" y="-126.5" type="curve" smooth="yes"/>
      <point x="266.5" y="-104"/>
      <point x="249" y="-91.5"/>
      <point x="223" y="-91" type="curve" smooth="yes"/>
      <point x="207.5" y="-90"/>
      <point x="181.5" y="-97.5"/>
      <point x="161.5" y="-108" type="curve"/>
    </contour>
  </outline>
</glyph>
<glyph name="tcaron" format="2">
  <advance width="339"/>
  <unicode hex="0165"/>
  <outline>
    <contour>
      <point x="56" y="460" type="line"/>
      <point x="280.5" y="460" type="line"/>
      <point x="267" y="385" type="line"/>
      <point x="42" y="385" type="line"/>
    </contour>
    <contour>
      <point x="155" y="619.5" type="line"/>
      <point x="235.5" y="620" type="line"/>
      <point x="128" y="0" type="line"/>
      <point x="51" y="0" type="line"/>
    </contour>
    <contour>
      <point x="395.5" y="809" type="line"/>
      <point x="471.5" y="778" type="line"/>
      <point x="322" y="531" type="line"/>
      <point x="267" y="552" type="line"/>
    </contour>
  </outline>
</glyph>
<glyph name="utilde" format="2">
  <advance width="509"/>
  <unicode hex="0169"/>
  <outline>
    <contour>
      <point x="330" y="0" type="line"/>
      <point x="409.5" y="460" type="line"/>
      <point x="490" y="460" type="line"/>
      <point x="410.5" y="0" type="line"/>
    </contour>
    <contour>
      <point x="154" y="180" type="line" smooth="yes"/>
      <point x="146.5" y="118"/>
      <point x="160" y="67.5"/>
      <point x="225.5" y="66" type="curve" smooth="yes"/>
      <point x="296" y="64"/>
      <point x="345" y="118.5"/>
      <point x="361" y="179" type="curve"/>
      <point x="388.5" y="178.5" type="line"/>
      <point x="370" y="80"/>
      <point x="302" y="-9"/>
      <point x="201.5" y="-9.5" type="curve" smooth="yes"/>
      <point x="101.5" y="-10"/>
      <point x="62" y="69"/>
      <point x="74" y="170" type="curve"/>
      <point x="124" y="459.5" type="line"/>
      <point x="201.5" y="459.5" type="line"/>
    </contour>
    <contour>
      <point x="163.25" y="569" type="line"/>
      <point x="182.25" y="611.5"/>
      <point x="227.25" y="650"/>
      <point x="275.25" y="648.5" type="curve" smooth="yes"/>
      <point x="327.25" y="647.5"/>
      <point x="341.25" y="601"/>
      <point x="387.75" y="602.5" type="curve" smooth="yes"/>
      <point x="411.25" y="603.5"/>
      <point x="431.75" y="625.5"/>
      <point x="451.25" y="650" type="curve"/>
      <point x="492.25" y="605" type="line"/>
      <point x="469.75" y="571"/>
      <point x="428.75" y="532.5"/>
      <point x="380.25" y="534.5" type="curve" smooth="yes"/>
      <point x="333.75" y="536"/>
      <point x="312.25" y="581.5"/>
      <point x="270.75" y="580.5" type="curve" smooth="yes"/>
      <point x="235.25" y="579.5"/>
      <point x="220.75" y="548.5"/>
      <point x="212.25" y="530.5" type="curve"/>
    </contour>
  </outline>
</glyph>
<glyph name="uring" format="1">
  <advance width="509"/>
  <unicode hex="016F"/>
  <outline>
    <contour>
      <point x="330.5" y="0" type="line"/>
      <point x="410" y="460" type="line"/>
      <point x="489.5" y="460" type="line"/>
      <point x="410" y="0" type="line"/>
    </contour>
    <contour>
      <point x="154" y="180" type="line" smooth="yes"/>
      <point x="146.5" y="117.5"/>
      <point x="160.5" y="67"/>
      <point x="226.5" y="65.5" type="curve" smooth="yes"/>
      <point x="297" y="64"/>
      <point x="346" y="118.5"/>
      <point x="362" y="179" type="curve"/>
      <point x="388.5" y="179" type="line"/>
      <point x="369.5" y="80.5"/>
      <point x="301" y="-9.5"/>
      <point x="200" y="-9.5" type="curve" smooth="yes"/>
      <point x="100" y="-9.5"/>
      <point x="62" y="69.5"/>
      <point x="74" y="170" type="curve"/>
      <point x="124.5" y="460" type="line"/>
      <point x="201.5" y="459.5" type="line"/>
    </contour>
    <contour>
      <point x="235.25" y="631" type="curve" smooth="yes"/>
      <point x="242.75" y="686"/>
      <point x="297.25" y="730"/>
      <point x="350.25" y="729.5" type="curve" smooth="yes"/>
      <point x="403.25" y="729"/>
      <point x="442.25" y="683.5"/>
      <point x="434.75" y="629" type="curve" smooth="yes"/>
      <point x="427.25" y="574"/>
      <point x="373.25" y="530"/>
      <point x="320.25" y="530.5" type="curve" smooth="yes"/>
      <point x="267.25" y="531"/>
      <point x="227.75" y="576.5"/>
    </contour>
    <contour>
      <point x="285.25" y="629.5" type="curve" smooth="yes"/>
      <point x="282.25" y="603"/>
      <point x="300.25" y="579"/>
      <point x="324.25" y="577.5" type="curve" smooth="yes"/>
      <point x="348.75" y="575.5"/>
      <point x="381.75" y="603"/>
      <point x="384.75" y="630.5" type="curve" smooth="yes"/>
      <point x="387.75" y="657"/>
      <point x="369.75" y="681"/>
      <point x="345.75" y="682.5" type="curve" smooth="yes"/>
      <point x="321.25" y="684.5"/>
      <point x="288.25" y="657"/>
    </contour>
  </outline>
</glyph>
<glyph name="Wcircumflex" format="2">
  <advance width="960"/>
  <unicode hex="0174"/>
  <outline>
    <contour>
      <point x="681" y="179" type="line"/>
      <point x="949" y="699.5" type="line"/>
      <point x="1047" y="699.5" type="line"/>
      <point x="650.5" y="-38.5" type="line"/>
      <point x="541" y="505.5" type="line"/>
      <point x="243" y="-38.5" type="line"/>
      <point x="102.5" y="700" type="line"/>
      <point x="194.5" y="700" type="line"/>
      <point x="283.5" y="179" type="line"/>
      <point x="579" y="738.5" type="line"/>
    </contour>
    <contour>
      <point x="609" y="889" type="line"/>
      <point x="485" y="795.5" type="line"/>
      <point x="439.5" y="837" type="line"/>
      <point x="616.5" y="975" type="line"/>
      <point x="752" y="833.5" type="line"/>
      <point x="699" y="795" type="line"/>
    </contour>
  </outline>
</glyph>
<glyph name="Ydieresis" format="2">
  <advance width="544"/>
  <unicode hex="0178"/>
  <outline>
    <contour>
      <point x="235.5" y="826" type="curve" smooth="yes"/>
      <point x="238.5" y="852.5"/>
      <point x="269" y="881"/>
      <point x="296.5" y="879.5" type="curve" smooth="yes"/>
      <point x="325" y="878"/>
      <point x="346" y="852"/>
      <point x="343" y="824" type="curve" smooth="yes"/>
      <point x="340" y="797"/>
      <point x="307.5" y="769"/>
      <point x="280" y="770.5" type="curve" smooth="yes"/>
      <point x="251" y="772"/>
      <point x="232.5" y="798.5"/>
    </contour>
    <contour>
      <point x="429.5" y="826" type="curve" smooth="yes"/>
      <point x="432.5" y="852.5"/>
      <point x="463" y="881"/>
      <point x="490.5" y="879.5" type="curve" smooth="yes"/>
      <point x="519" y="878"/>
      <point x="540.5" y="852"/>
      <point x="537.5" y="824" type="curve" smooth="yes"/>
      <point x="534.5" y="797"/>
      <point x="501.5" y="769"/>
      <point x="474" y="770.5" type="curve" smooth="yes"/>
      <point x="445" y="772"/>
      <point x="426.5" y="798.5"/>
    </contour>
    <contour>
      <point x="538" y="699.5" type="line"/>
      <point x="634.5" y="699.5" type="line"/>
      <point x="338" y="299.5" type="line"/>
      <point x="286.5" y="0" type="line"/>
      <point x="202.5" y="0" type="line"/>
      <point x="256" y="304" type="line"/>
      <point x="98" y="700" type="line"/>
      <point x="189" y="700" type="line"/>
      <point x="307.5" y="377.5" type="line"/>
    </contour>
  </outline>
</glyph>
<glyph name="Zacute" format="2">
  <advance width="528"/>
  <unicode hex="0179"/>
  <outline>
    <contour>
      <point x="111.5" y="620" type="line"/>
      <point x="126" y="700" type="line"/>
      <point x="604" y="699.5" type="line"/>
      <point x="141" y="80.5" type="line"/>
      <point x="478" y="80" type="line"/>
      <point x="463.5" y="0" type="line"/>
      <point x="-15" y="0" type="line"/>
      <point x="448.5" y="619.5" type="line"/>
    </contour>
    <contour>
      <point x="557.5" y="917.5" type="line"/>
      <point x="358.5" y="771" type="line"/>
      <point x="317" y="801.5" type="line"/>
      <point x="489" y="959.5" type="line"/>
    </contour>
  </outline>
</glyph>
<glyph name="uni0213" format="2">
  <advance width="332"/>
  <unicode hex="0213"/>
  <outline>
    <contour>
      <point x="203" y="460" type="line"/>
      <point x="123.5" y="0" type="line"/>
      <point x="44" y="0" type="line"/>
      <point x="124" y="460" type="line"/>
    </contour>
    <contour>
      <point x="324" y="372.5" type="line"/>
      <point x="305.5" y="386"/>
      <point x="291" y="394.5"/>
      <point x="268" y="395" type="curve" smooth="yes"/>
      <point x="207" y="396"/>
      <point x="182.5" y="337.5"/>
      <point x="171.5" y="281" type="curve"/>
      <point x="135" y="281" type="line"/>
      <point x="151.5" y="373.5"/>
      <point x="215" y="468.5"/>
      <point x="295.5" y="469.5" type="curve" smooth="yes"/>
      <point x="328" y="470"/>
      <point x="353" y="459"/>
      <point x="376.5" y="436.5" type="curve"/>
    </contour>
    <contour>
      <point x="110" y="530" type="curve"/>
      <point x="182.5" y="530.5" type="line"/>
      <point x="195.5" y="563"/>
      <point x="219.5" y="604.5"/>
      <point x="280" y="604.5" type="curve" smooth="yes"/>
      <point x="339.5" y="604.5"/>
      <point x="354" y="564"/>
      <point x="353" y="529.5" type="curve"/>
      <point x="416" y="530" type="line"/>
      <point x="424.5" y="602"/>
      <point x="386.5" y="668.5"/>
      <point x="291" y="669.5" type="curve" smooth="yes"/>
      <point x="192.5" y="670.5"/>
      <point x="131.5" y="602"/>
    </contour>
  </outline>
</glyph>
<glyph name="dotaccent" format="1">
  <advance width="291"/>
  <unicode hex="02D9"/>
  <outline>
    <contour>
      <point x="199.5" y="791" type="curve" smooth="yes"/>
      <point x="202.5" y="818"/>
      <point x="234" y="846"/>
      <point x="261.5" y="844.5" type="curve" smooth="yes"/>
      <point x="290" y="843"/>
      <point x="310" y="817"/>
      <point x="307" y="789" type="curve" smooth="yes"/>
      <point x="304" y="762"/>
      <point x="272.5" y="734"/>
      <point x="245" y="735.5" type="curve" smooth="yes"/>
      <point x="216.5" y="737"/>
      <point x="196.5" y="763"/>
    </contour>
  </outline>
</glyph>
<glyph name="tilde" format="2">
  <advance width="514"/>
  <unicode hex="02DC"/>
  <outline>
    <contour>
      <point x="175" y="626.5" type="line"/>
      <point x="194" y="669.5"/>
      <point x="239" y="708"/>
      <point x="287" y="706.5" type="curve" smooth="yes"/>
      <point x="339" y="705.5"/>
      <point x="353.5" y="659"/>
      <point x="400.5" y="660.5" type="curve" smooth="yes"/>
      <point x="423.5" y="661.5"/>
      <point x="443.5" y="683"/>
      <point x="463" y="707.5" type="curve"/>
      <point x="503.5" y="663.5" type="line"/>
      <point x="481" y="629"/>
      <point x="440" y="590.5"/>
      <point x="391" y="592.5" type="curve" smooth="yes"/>
      <point x="344.5" y="594"/>
      <point x="322.5" y="639.5"/>
      <point x="280.5" y="638.5" type="curve" smooth="yes"/>
      <point x="245" y="637.5"/>
      <point x="231.5" y="607"/>
      <point x="223.5" y="588.5" type="curve"/>
    </contour>
  </outline>
</glyph>
<glyph name="pi" format="2">
  <advance width="524"/>
  <unicode hex="03C0"/>
  <outline>
    <contour>
      <point x="132" y="429.5" type="line"/>
      <point x="213" y="430" type="line"/>
      <point x="137.5" y="0" type="line"/>
      <point x="60.5" y="0" type="line"/>
    </contour>
    <contour>
      <point x="80" y="460" type="line"/>
      <point x="538" y="460" type="line"/>
      <point x="524.5" y="385" type="line"/>
      <point x="66.5" y="385" type="line"/>
    </contour>
    <contour>
      <point x="376" y="430" type="line"/>
      <point x="455.5" y="430" type="line"/>
      <point x="404.5" y="141" type="line"/>
      <point x="399" y="88.5"/>
      <point x="411" y="78.5"/>
      <point x="444.5" y="71" type="curve"/>
      <point x="431.5" y="-8.5" type="line"/>
      <point x="348" y="-4"/>
      <point x="311.5" y="26"/>
      <point x="323" y="121" type="curve"/>
    </contour>
  </outline>
</glyph>
<glyph name="uni0401" format="2">
  <advance width="533"/>
  <unicode hex="0401"/>
  <outline>
    <contour>
      <point x="97" y="0" type="line"/>
      <point x="109.5" y="80" type="line"/>
      <point x="454.5" y="80" type="line"/>
      <point x="441.5" y="0" type="line"/>
    </contour>
    <contour>
      <point x="202.5" y="620.5" type="line"/>
      <point x="215" y="700" type="line"/>
      <point x="560.5" y="700" type="line"/>
      <point x="547" y="620.5" type="line"/>
    </contour>
    <contour>
      <point x="155" y="340.5" type="line"/>
      <point x="167.5" y="420" type="line"/>
      <point x="493" y="420" type="line"/>
      <point x="480" y="340.5" type="line"/>
    </contour>
    <contour>
      <point x="167.5" y="699.5" type="line"/>
      <point x="255" y="700" type="line"/>
      <point x="133" y="0" type="line"/>
      <point x="51" y="0" type="line"/>
    </contour>
    <contour>
      <point x="440.15" y="825.601" type="curve" smooth="yes"/>
      <point x="442.65" y="852.601"/>
      <point x="474.15" y="880.601"/>
      <point x="501.65" y="879.101" type="curve" smooth="yes"/>
      <point x="530.15" y="877.601"/>
      <point x="550.65" y="851.601"/>
      <point x="548.15" y="823.601" type="curve" smooth="yes"/>
      <point x="545.65" y="796.601"/>
      <point x="514.15" y="768.601"/>
      <point x="486.65" y="770.101" type="curve" smooth="yes"/>
      <point x="458.15" y="771.601"/>
      <point x="437.65" y="797.601"/>
    </contour>
    <contour>
      <point x="246.15" y="825.601" type="curve" smooth="yes"/>
      <point x="248.65" y="852.601"/>
      <point x="280.15" y="880.601"/>
      <point x="307.65" y="879.101" type="curve" smooth="yes"/>
      <point x="336.15" y="877.601"/>
      <point x="356.65" y="851.601"/>
      <point x="354.15" y="823.601" type="curve" smooth="yes"/>
      <point x="351.65" y="796.601"/>
      <point x="320.15" y="768.601"/>
      <point x="292.65" y="770.101" type="curve" smooth="yes"/>
      <point x="264.15" y="771.601"/>
      <point x="243.65" y="797.601"/>
    </contour>
  </outline>
</glyph>
<glyph name="uni040D" format="2">
  <advance width="752"/>
  <unicode hex="040D"/>
  <outline>
    <contour>
      <point x="746" y="602" type="line"/>
      <point x="39.5" y="-41" type="line"/>
      <point x="71.5" y="98" type="line"/>
      <point x="777.5" y="741.5" type="line"/>
    </contour>
    <contour>
      <point x="254.5" y="700" type="line"/>
      <point x="146" y="71.5" type="line"/>
      <point x="39.5" y="-41" type="line"/>
      <point x="169" y="700" type="line"/>
    </contour>
    <contour>
      <point x="777.5" y="741.5" type="line"/>
      <point x="648" y="0" type="line"/>
      <point x="563" y="0" type="line"/>
      <point x="671" y="628.5" type="line"/>
    </contour>
    <contour>
      <point x="342" y="896.5" type="line"/>
      <point x="420.5" y="935.5" type="line"/>
      <point x="542" y="773.5" type="line"/>
      <point x="495.5" y="745" type="line"/>
    </contour>
  </outline>
</glyph>
<glyph name="uni0413" format="2">
  <advance width="422"/>
  <unicode hex="0413"/>
  <outline>
    <contour>
      <point x="167" y="699.5" type="line"/>
      <point x="506.5" y="700" type="line"/>
      <point x="492" y="620" type="line"/>
      <point x="240.5" y="620" type="line"/>
      <point x="133" y="0" type="line"/>
      <point x="51" y="0" type="line"/>
    </contour>
  </outline>
</glyph>
<glyph name="uni0417" format="2">
  <advance width="588"/>
  <unicode hex="0417"/>
  <outline>
    <contour>
      <point x="306.5" y="345.5" type="curve"/>
      <point x="314" y="399.5" type="line"/>
      <point x="409.5" y="404.5"/>
      <point x="486" y="446.5"/>
      <point x="502" y="521" type="curve" smooth="yes"/>
      <point x="514.5" y="586.5"/>
      <point x="472" y="632"/>
      <point x="394" y="632.5" type="curve" smooth="yes"/>
      <point x="313" y="633.5"/>
      <point x="251" y="588"/>
      <point x="231" y="526.5" type="curve"/>
      <point x="149.5" y="527" type="line"/>
      <point x="173" y="636"/>
      <point x="269" y="710"/>
      <point x="397" y="709.5" type="curve" smooth="yes"/>
      <point x="519.5" y="709"/>
      <point x="605" y="628"/>
      <point x="588.5" y="523.5" type="curve" smooth="yes"/>
      <point x="569" y="409.5"/>
      <point x="443.5" y="349"/>
    </contour>
    <contour>
      <point x="279.5" y="-9.5" type="curve" smooth="yes"/>
      <point x="135.5" y="-9.5"/>
      <point x="50.5" y="67.5"/>
      <point x="61" y="185" type="curve"/>
      <point x="145" y="184.5" type="line"/>
      <point x="145" y="113"/>
      <point x="190.5" y="70.5"/>
      <point x="284" y="70.5" type="curve" smooth="yes"/>
      <point x="380.5" y="70.5"/>
      <point x="450.5" y="116"/>
      <point x="465.5" y="195" type="curve" smooth="yes"/>
      <point x="483.5" y="287"/>
      <point x="396" y="322"/>
      <point x="303" y="325.5" type="curve"/>
      <point x="311.5" y="380.5" type="line"/>
      <point x="447" y="378"/>
      <point x="571" y="324.5"/>
      <point x="550" y="184.5" type="curve" smooth="yes"/>
      <point x="531" y="62.5"/>
      <point x="419" y="-9.5"/>
    </contour>
  </outline>
</glyph>
<glyph name="uni0418" format="2">
  <advance width="752"/>
  <unicode hex="0418"/>
  <outline>
    <contour>
      <point x="746" y="602" type="line"/>
      <point x="39.5" y="-41" type="line"/>
      <point x="71.5" y="98" type="line"/>
      <point x="777.5" y="741.5" type="line"/>
    </contour>
    <contour>
      <point x="254.5" y="700" type="line"/>
      <point x="146" y="71.5" type="line"/>
      <point x="39.5" y="-41" type="line"/>
      <point x="169" y="700" type="line"/>
    </contour>
    <contour>
      <point x="777.5" y="741.5" type="line"/>
      <point x="648" y="0" type="line"/>
      <point x="563" y="0" type="line"/>
      <point x="671" y="628.5" type="line"/>
    </contour>
  </outline>
</glyph>
<glyph name="uni041B" format="2">
  <advance width="638"/>
  <unicode hex="041B"/>
  <outline>
    <contour>
      <point x="655" y="700" type="line"/>
      <point x="534.5" y="0" type="line"/>
      <point x="449.5" y="0" type="line"/>
      <point x="556" y="620" type="line"/>
      <point x="258" y="620" type="line"/>
      <point x="193.5" y="239.5" type="line" smooth="yes"/>
      <point x="172" y="115"/>
      <point x="105" y="11"/>
      <point x="-17.5" y="1" type="curve"/>
      <point x="-6.5" y="72.5" type="line"/>
      <point x="66" y="86.5"/>
      <point x="101" y="167.5"/>
      <point x="115.5" y="260" type="curve" smooth="yes"/>
      <point x="191" y="700" type="line"/>
    </contour>
  </outline>
</glyph>
<glyph name="uni041E" format="2">
  <advance width="766"/>
  <unicode hex="041E"/>
  <outline>
    <contour>
      <point x="160" y="350" type="curve" smooth="yes"/>
      <point x="137.5" y="209.5"/>
      <point x="211.5" y="76.5"/>
      <point x="364.5" y="75.5" type="curve" smooth="yes"/>
      <point x="519.5" y="74.5"/>
      <point x="646.5" y="201"/>
      <point x="672" y="350" type="curve" smooth="yes"/>
      <point x="694.5" y="490.5"/>
      <point x="620.5" y="623.5"/>
      <point x="467.5" y="624.5" type="curve" smooth="yes"/>
      <point x="312.5" y="625.5"/>
      <point x="185.5" y="499"/>
    </contour>
    <contour>
      <point x="70" y="350" type="curve" smooth="yes"/>
      <point x="100" y="546"/>
      <point x="268" y="710.5"/>
      <point x="472.5" y="710" type="curve" smooth="yes"/>
      <point x="673.5" y="709.5"/>
      <point x="789" y="538"/>
      <point x="762" y="350" type="curve" smooth="yes"/>
      <point x="732" y="154"/>
      <point x="563.5" y="-10.5"/>
      <point x="359" y="-10" type="curve" smooth="yes"/>
      <point x="158" y="-9.5"/>
      <point x="43" y="162"/>
    </contour>
  </outline>
</glyph>
<glyph name="uni0421" format="2">
  <advance width="664"/>
  <unicode hex="0421"/>
  <outline>
    <contour>
      <point x="160" y="350" type="curve" smooth="yes"/>
      <point x="138" y="209"/>
      <point x="215.5" y="77"/>
      <point x="359.5" y="75.5" type="curve" smooth="yes"/>
      <point x="456" y="74.5"/>
      <point x="538" y="120.5"/>
      <point x="599.5" y="178" type="curve"/>
      <point x="583" y="66.5" type="line"/>
      <point x="518.5" y="17.5"/>
      <point x="447.5" y="-10.5"/>
      <point x="354" y="-10" type="curve" smooth="yes"/>
      <point x="158.5" y="-9"/>
      <point x="43" y="161"/>
      <point x="70" y="350" type="curve" smooth="yes"/>
      <point x="99.5" y="548.5"/>
      <point x="269" y="709"/>
      <point x="468" y="710" type="curve" smooth="yes"/>
      <point x="557.5" y="710.5"/>
      <point x="621" y="685.5"/>
      <point x="678" y="632.5" type="curve"/>
      <point x="661" y="521" type="line"/>
      <point x="618.5" y="586"/>
      <point x="551" y="624.5"/>
      <point x="462.5" y="624.5" type="curve" smooth="yes"/>
      <point x="316.5" y="624"/>
      <point x="185.5" y="500.5"/>
    </contour>
  </outline>
</glyph>
<glyph name="uni0426" format="2">
  <advance width="737"/>
  <unicode hex="0426"/>
  <outline>
    <contour>
      <point x="145" y="79.5" type="line"/>
      <point x="518.5" y="80" type="line"/>
      <point x="625" y="700" type="line"/>
      <point x="710.5" y="700" type="line"/>
      <point x="604" y="80" type="line"/>
      <point x="687" y="80" type="line"/>
      <point x="654" y="-109.5" type="line"/>
      <point x="579" y="-109.5" type="line"/>
      <point x="598" y="0" type="line"/>
      <point x="49" y="0" type="line"/>
      <point x="170" y="700" type="line"/>
      <point x="252" y="699.5" type="line"/>
    </contour>
  </outline>
</glyph>
<glyph name="uni0430" format="2">
  <advance width="553"/>
  <unicode hex="0430"/>
  <outline>
    <contour>
      <point x="462.5" y="459.5" type="line"/>
      <point x="538.5" y="460" type="line"/>
      <point x="458.5" y="0" type="line"/>
      <point x="385.5" y="0" type="line"/>
    </contour>
    <contour>
      <point x="45" y="230" type="curve" smooth="yes"/>
      <point x="64.5" y="365.5"/>
      <point x="175.5" y="471"/>
      <point x="305.5" y="470" type="curve" smooth="yes"/>
      <point x="429" y="469"/>
      <point x="471.5" y="353.5"/>
      <point x="455.5" y="230" type="curve" smooth="yes"/>
      <point x="437.5" y="99"/>
      <point x="352" y="-9"/>
      <point x="229.5" y="-9.5" type="curve" smooth="yes"/>
      <point x="100" y="-10"/>
      <point x="27" y="100"/>
    </contour>
    <contour>
      <point x="125" y="230" type="curve" smooth="yes"/>
      <point x="111.5" y="140.5"/>
      <point x="157.5" y="65.5"/>
      <point x="246" y="65.5" type="curve" smooth="yes"/>
      <point x="326" y="65.5"/>
      <point x="405" y="137.5"/>
      <point x="419.5" y="230" type="curve" smooth="yes"/>
      <point x="431.5" y="317"/>
      <point x="386.5" y="392.5"/>
      <point x="308" y="394.5" type="curve" smooth="yes"/>
      <point x="218.5" y="396.5"/>
      <point x="140" y="324"/>
    </contour>
  </outline>
</glyph>
<glyph name="uni0433" format="2">
  <advance width="320"/>
  <unicode hex="0433"/>
  <outline>
    <contour>
      <point x="126" y="459.5" type="line"/>
      <point x="368.5" y="460" type="line"/>
      <point x="355" y="385" type="line"/>
      <point x="195.5" y="385" type="line"/>
      <point x="128.5" y="0" type="line"/>
      <point x="51" y="0" type="line"/>
    </contour>
  </outline>
</glyph>
<glyph name="uni044E" format="2">
  <advance width="723"/>
  <unicode hex="044E"/>
  <outline>
    <contour>
      <point x="126.5" y="205.5" type="line"/>
      <point x="139" y="279.5" type="line"/>
      <point x="306.5" y="280" type="line"/>
      <point x="293.5" y="205.5" type="line"/>
    </contour>
    <contour>
      <point x="121.5" y="459.5" type="line"/>
      <point x="204.5" y="460" type="line"/>
      <point x="123.5" y="0" type="line"/>
      <point x="46" y="0" type="line"/>
    </contour>
    <contour>
      <point x="239" y="230" type="curve" smooth="yes"/>
      <point x="258.5" y="362.5"/>
      <point x="372" y="469.5"/>
      <point x="507.5" y="469.5" type="curve" smooth="yes"/>
      <point x="641.5" y="469.5"/>
      <point x="721.5" y="358"/>
      <point x="703.5" y="230" type="curve" smooth="yes"/>
      <point x="684" y="97.5"/>
      <point x="570.5" y="-9.5"/>
      <point x="435" y="-9.5" type="curve" smooth="yes"/>
      <point x="301" y="-9.5"/>
      <point x="221" y="102"/>
    </contour>
    <contour>
      <point x="319.5" y="230" type="curve" smooth="yes"/>
      <point x="306" y="146.5"/>
      <point x="348" y="66.5"/>
      <point x="438.5" y="65.5" type="curve" smooth="yes"/>
      <point x="530" y="64.5"/>
      <point x="607" y="140.5"/>
      <point x="623" y="230" type="curve" smooth="yes"/>
      <point x="636.5" y="313.5"/>
      <point x="594" y="393.5"/>
      <point x="503.5" y="394.5" type="curve" smooth="yes"/>
      <point x="412" y="395.5"/>
      <point x="335.5" y="319.5"/>
    </contour>
  </outline>
</glyph>
<glyph name="uni1E9E" format="2">
  <advance width="694"/>
  <unicode hex="1E9E"/>
  <outline>
    <contour>
      <point x="414" y="-9.5" type="curve" smooth="yes"/>
      <point x="287.5" y="-9.5"/>
      <point x="216" y="75.5"/>
      <point x="226.5" y="185" type="curve"/>
      <point x="310.5" y="184.5" type="line"/>
      <point x="306" y="119.5"/>
      <point x="345.5" y="71"/>
      <point x="421.5" y="70.5" type="curve" smooth="yes"/>
      <point x="498.5" y="70"/>
      <point x="560" y="122.5"/>
      <point x="572.5" y="195" type="curve" smooth="yes"/>
      <point x="588" y="281"/>
      <point x="520.5" y="320"/>
      <point x="438.5" y="325" type="curve"/>
      <point x="447" y="379.5" type="line"/>
      <point x="571.5" y="375.5"/>
      <point x="677" y="318.5"/>
      <point x="656.5" y="184.5" type="curve" smooth="yes"/>
      <point x="638.5" y="69"/>
      <point x="535" y="-9.5"/>
    </contour>
    <contour>
      <point x="442" y="345.5" type="curve"/>
      <point x="450.5" y="400" type="line"/>
      <point x="532" y="406"/>
      <point x="596" y="450"/>
      <point x="609" y="521" type="curve" smooth="yes"/>
      <point x="622.5" y="592.5"/>
      <point x="552.5" y="632.5"/>
      <point x="470" y="632.5" type="curve" smooth="yes"/>
      <point x="333.493" y="632.5"/>
      <point x="224.5" y="541.5"/>
      <point x="200" y="386" type="curve" smooth="yes"/>
      <point x="133.5" y="0" type="line"/>
      <point x="49" y="0" type="line"/>
      <point x="115.5" y="386" type="line" smooth="yes"/>
      <point x="146.5" y="588"/>
      <point x="291" y="710"/>
      <point x="476.5" y="710" type="curve" smooth="yes"/>
      <point x="598" y="710"/>
      <point x="715" y="651.5"/>
      <point x="696.5" y="533.5" type="curve" smooth="yes"/>
      <point x="678" y="417.5"/>
      <point x="568.5" y="350.5"/>
    </contour>
  </outline>
</glyph>
<glyph name="endash" format="2">
  <advance width="718"/>
  <unicode hex="2013"/>
  <outline>
    <contour>
      <point x="75.5" y="200.5" type="line"/>
      <point x="87.5" y="275" type="line"/>
      <point x="671.5" y="275" type="line"/>
      <point x="659" y="200" type="line"/>
    </contour>
  </outline>
</glyph>
<glyph name="quoteleft" format="1">
  <advance width="266"/>
  <unicode hex="2018"/>
  <outline>
    <contour>
      <point x="215" y="470.5" type="line"/>
      <point x="118" y="470.5" type="line"/>
      <point x="256" y="699" type="line"/>
      <point x="311.5" y="699" type="line"/>
    </contour>
  </outline>
</glyph>
<glyph name="dagger" format="1">
  <advance width="553"/>
  <unicode hex="2020"/>
  <outline>
    <contour>
      <point x="153" y="540" type="line"/>
      <point x="533" y="540" type="line"/>
      <point x="520.5" y="465" type="line"/>
      <point x="140.5" y="465" type="line"/>
    </contour>
    <contour>
      <point x="327" y="700" type="line"/>
      <point x="407.5" y="700" type="line"/>
      <point x="275" y="-150" type="line"/>
      <point x="198" y="-149.5" type="line"/>
    </contour>
  </outline>
</glyph>
<glyph name="ellipsis" format="2">
  <advance width="873"/>
  <unicode hex="2026"/>
  <outline>
    <contour>
      <point x="71.5" y="41" type="curve" smooth="yes"/>
      <point x="74.5" y="68"/>
      <point x="106" y="96"/>
      <point x="133.5" y="94.5" type="curve" smooth="yes"/>
      <point x="162" y="93"/>
      <point x="182" y="67"/>
      <point x="179" y="39" type="curve" smooth="yes"/>
      <point x="176" y="12"/>
      <point x="144.5" y="-16"/>
      <point x="117" y="-14.5" type="curve" smooth="yes"/>
      <point x="88.5" y="-13"/>
      <point x="68.5" y="13"/>
    </contour>
    <contour>
      <point x="362.5" y="41" type="curve" smooth="yes"/>
      <point x="365.5" y="68"/>
      <point x="397" y="96"/>
      <point x="424.5" y="94.5" type="curve" smooth="yes"/>
      <point x="453" y="93"/>
      <point x="473.5" y="67"/>
      <point x="470.5" y="39" type="curve" smooth="yes"/>
      <point x="467.5" y="12"/>
      <point x="435.5" y="-16"/>
      <point x="408" y="-14.5" type="curve" smooth="yes"/>
      <point x="379.5" y="-13"/>
      <point x="359.5" y="13"/>
    </contour>
    <contour>
      <point x="653.5" y="41" type="curve" smooth="yes"/>
      <point x="656.5" y="68"/>
      <point x="688" y="96"/>
      <point x="715.5" y="94.5" type="curve" smooth="yes"/>
      <point x="744" y="93"/>
      <point x="764.5" y="67"/>
      <point x="761.5" y="39" type="curve" smooth="yes"/>
      <point x="758.5" y="12"/>
      <point x="727" y="-16"/>
      <point x="699.5" y="-14.5" type="curve" smooth="yes"/>
      <point x="671" y="-13"/>
      <point x="650.5" y="13"/>
    </contour>
  </outline>
</glyph>
<glyph name="guilsinglleft" format="2">
  <advance width="339"/>
  <unicode hex="2039"/>
  <outline>
    <contour>
      <point x="143" y="258.5" type="line"/>
      <point x="256.5" y="64" type="line"/>
      <point x="201" y="20" type="line"/>
      <point x="55" y="258" type="line"/>
      <point x="278" y="489.5" type="line"/>
      <point x="321.5" y="443.5" type="line"/>
    </contour>
  </outline>
</glyph>
<glyph name="guilsinglright" format="1">
  <advance width="339"/>
  <unicode hex="203A"/>
  <outline>
    <contour>
      <point x="229" y="251.5" type="line"/>
      <point x="116" y="446" type="line"/>
      <point x="171" y="490" type="line"/>
      <point x="317.5" y="252" type="line"/>
      <point x="94.5" y="20.5" type="line"/>
      <point x="51" y="66.5" type="line"/>
    </contour>
  </outline>
</glyph>
<glyph name="fraction" format="2">
  <advance width="684"/>
  <unicode hex="2044"/>
  <outline>
    <contour>
      <point x="653" y="699" type="line"/>
      <point x="718.5" y="698.5" type="line"/>
      <point x="96" y="0" type="line"/>
      <point x="30.5" y="0" type="line"/>
    </contour>
  </outline>
</glyph>
<glyph name="uni2080" format="2">
  <advance width="361"/>
  <unicode hex="2080"/>
  <outline>
    <contour>
      <point x="87.5" y="210" type="curve" smooth="yes"/>
      <point x="79" y="137"/>
      <point x="84" y="44"/>
      <point x="157.5" y="42.5" type="curve" smooth="yes"/>
      <point x="231" y="41"/>
      <point x="278.5" y="129"/>
      <point x="290.5" y="210" type="curve" smooth="yes"/>
      <point x="299" y="283"/>
      <point x="294.5" y="376"/>
      <point x="221" y="377.5" type="curve" smooth="yes"/>
      <point x="147.5" y="379"/>
      <point x="99.5" y="291"/>
    </contour>
    <contour>
      <point x="37" y="210" type="curve" smooth="yes"/>
      <point x="51.5" y="318"/>
      <point x="123" y="426"/>
      <point x="223.5" y="425.5" type="curve" smooth="yes"/>
      <point x="326" y="425"/>
      <point x="354" y="311"/>
      <point x="341.5" y="210" type="curve" smooth="yes"/>
      <point x="327" y="102"/>
      <point x="255.5" y="-6"/>
      <point x="155" y="-5.5" type="curve" smooth="yes"/>
      <point x="52.5" y="-5"/>
      <point x="24.5" y="109"/>
    </contour>
  </outline>
</glyph>
<glyph name="uni2088" format="1">
  <advance width="312"/>
  <unicode hex="2088"/>
  <outline>
    <contour>
      <point x="70" y="319.5" type="curve" smooth="yes"/>
      <point x="79" y="377.5"/>
      <point x="136.5" y="426"/>
      <point x="199.5" y="425.5" type="curve" smooth="yes"/>
      <point x="262" y="425"/>
      <point x="305" y="376"/>
      <point x="297" y="318.5" type="curve" smooth="yes"/>
      <point x="288.5" y="256.5"/>
      <point x="232.5" y="213"/>
      <point x="167.5" y="213.5" type="curve" smooth="yes"/>
      <point x="102.5" y="214"/>
      <point x="61" y="257.5"/>
    </contour>
    <contour>
      <point x="117.5" y="312.5" type="curve" smooth="yes"/>
      <point x="112.5" y="278"/>
      <point x="134" y="248"/>
      <point x="169" y="246.5" type="curve" smooth="yes"/>
      <point x="204.5" y="245"/>
      <point x="242" y="277.5"/>
      <point x="247.5" y="313.5" type="curve" smooth="yes"/>
      <point x="252.5" y="348.5"/>
      <point x="233" y="379"/>
      <point x="196" y="380.5" type="curve" smooth="yes"/>
      <point x="158.5" y="382"/>
      <point x="123" y="349"/>
    </contour>
    <contour>
      <point x="20.5" y="114.5" type="curve" smooth="yes"/>
      <point x="30.5" y="186"/>
      <point x="97.5" y="234"/>
      <point x="166.5" y="233.5" type="curve" smooth="yes"/>
      <point x="235" y="233.5"/>
      <point x="286.5" y="184.5"/>
      <point x="276.5" y="113.5" type="curve" smooth="yes"/>
      <point x="266.5" y="48.5"/>
      <point x="202" y="-6"/>
      <point x="130.5" y="-5.5" type="curve" smooth="yes"/>
      <point x="60" y="-5"/>
      <point x="11" y="50.5"/>
    </contour>
    <contour>
      <point x="70" y="120" type="curve" smooth="yes"/>
      <point x="63" y="75.5"/>
      <point x="91" y="40.5"/>
      <point x="133.5" y="39.5" type="curve" smooth="yes"/>
      <point x="177" y="38.5"/>
      <point x="222.5" y="73.5"/>
      <point x="229.5" y="120" type="curve" smooth="yes"/>
      <point x="235.5" y="161"/>
      <point x="208" y="199.5"/>
      <point x="166" y="200.5" type="curve" smooth="yes"/>
      <point x="123" y="201.5"/>
      <point x="77" y="162.5"/>
    </contour>
  </outline>
</glyph>
<glyph name="uni2089" format="1">
  <advance width="335"/>
  <unicode hex="2089"/>
  <outline>
    <contour>
      <point x="275.5" y="284" type="curve" smooth="yes"/>
      <point x="283" y="334.5"/>
      <point x="257" y="380.5"/>
      <point x="203.5" y="381.5" type="curve" smooth="yes"/>
      <point x="149.5" y="383"/>
      <point x="101.5" y="337"/>
      <point x="93" y="284" type="curve" smooth="yes"/>
      <point x="85.5" y="233.5"/>
      <point x="111.5" y="187"/>
      <point x="165" y="185.5" type="curve" smooth="yes"/>
      <point x="219" y="184"/>
      <point x="267" y="231"/>
    </contour>
    <contour>
      <point x="114" y="3" type="line"/>
      <point x="48.5" y="3.5" type="line"/>
      <point x="205" y="174.5" type="line"/>
      <point x="209.5" y="169.5" type="line"/>
      <point x="191" y="155"/>
      <point x="170" y="147.5"/>
      <point x="144.5" y="148" type="curve" smooth="yes"/>
      <point x="74.5" y="149"/>
      <point x="36" y="216.5"/>
      <point x="45" y="284.5" type="curve" smooth="yes"/>
      <point x="56.5" y="365"/>
      <point x="126" y="427.5"/>
      <point x="206.5" y="427.5" type="curve" smooth="yes"/>
      <point x="287" y="427.5"/>
      <point x="335.5" y="362"/>
      <point x="324" y="283.5" type="curve" smooth="yes"/>
      <point x="319" y="250.5"/>
      <point x="303.5" y="220.5"/>
      <point x="284" y="197" type="curve"/>
    </contour>
  </outline>
</glyph>
<glyph name="twothirds" format="2">
  <advance width="855"/>
  <unicode hex="2154"/>
  <outline>
    <contour>
      <point x="765" y="699" type="line"/>
      <point x="830.5" y="698.5" type="line"/>
      <point x="207.5" y="0" type="line"/>
      <point x="142" y="0" type="line"/>
    </contour>
    <contour>
      <point x="50" y="283" type="line"/>
      <point x="276.5" y="494" type="line" smooth="yes"/>
      <point x="305" y="520.5"/>
      <point x="331" y="550"/>
      <point x="337" y="586" type="curve" smooth="yes"/>
      <point x="342.5" y="622"/>
      <point x="324" y="658"/>
      <point x="278.5" y="660" type="curve" smooth="yes"/>
      <point x="221.5" y="663"/>
      <point x="183.5" y="613"/>
      <point x="171" y="559" type="curve"/>
      <point x="120" y="559" type="line"/>
      <point x="137" y="640"/>
      <point x="193" y="709.5"/>
      <point x="281.5" y="708.5" type="curve" smooth="yes"/>
      <point x="363" y="708"/>
      <point x="397.5" y="641.5"/>
      <point x="387.5" y="581.5" type="curve" smooth="yes"/>
      <point x="380" y="536.5"/>
      <point x="349.5" y="498.5"/>
      <point x="314.5" y="466" type="curve" smooth="yes"/>
      <point x="163" y="330.5" type="line"/>
      <point x="346" y="329.5" type="line"/>
      <point x="338" y="282.5" type="line"/>
    </contour>
    <contour>
      <point x="693" y="208" type="curve"/>
      <point x="698.5" y="240" type="line"/>
      <point x="747.5" y="245"/>
      <point x="786" y="269.5"/>
      <point x="794.5" y="313" type="curve" smooth="yes"/>
      <point x="800" y="348"/>
      <point x="784" y="378"/>
      <point x="745.5" y="379.5" type="curve" smooth="yes"/>
      <point x="706" y="381.5"/>
      <point x="676" y="349.5"/>
      <point x="665.5" y="317" type="curve"/>
      <point x="616" y="317.5" type="line"/>
      <point x="631" y="377.5"/>
      <point x="680" y="426.5"/>
      <point x="749" y="425.5" type="curve" smooth="yes"/>
      <point x="816" y="424.5"/>
      <point x="854.5" y="371.5"/>
      <point x="845" y="313.5" type="curve" smooth="yes"/>
      <point x="833.5" y="248"/>
      <point x="767" y="212.5"/>
    </contour>
    <contour>
      <point x="677" y="-5.5" type="curve" smooth="yes"/>
      <point x="599.5" y="-5.5"/>
      <point x="560" y="45.5"/>
      <point x="563.5" y="111" type="curve"/>
      <point x="614" y="111" type="line"/>
      <point x="614" y="72.5"/>
      <point x="634" y="43.5"/>
      <point x="680" y="42.5" type="curve" smooth="yes"/>
      <point x="725.5" y="41.5"/>
      <point x="765" y="74.5"/>
      <point x="771.5" y="117.5" type="curve" smooth="yes"/>
      <point x="780" y="170"/>
      <point x="739" y="190.5"/>
      <point x="690.5" y="195" type="curve"/>
      <point x="696" y="227.5" type="line"/>
      <point x="770.5" y="223.5"/>
      <point x="834.5" y="191.5"/>
      <point x="822.5" y="110.5" type="curve" smooth="yes"/>
      <point x="812.5" y="42"/>
      <point x="748.5" y="-5.5"/>
    </contour>
  </outline>
</glyph>
<glyph name="uni2156" format="2">
  <advance width="845"/>
  <unicode hex="2156"/>
  <outline>
    <contour>
      <point x="765" y="699" type="line"/>
      <point x="830.5" y="698.5" type="line"/>
      <point x="207.5" y="0" type="line"/>
      <point x="142" y="0" type="line"/>
    </contour>
    <contour>
      <point x="50" y="283" type="line"/>
      <point x="276.5" y="494" type="line" smooth="yes"/>
      <point x="305" y="520.5"/>
      <point x="331" y="550"/>
      <point x="337" y="586" type="curve" smooth="yes"/>
      <point x="342.5" y="622"/>
      <point x="324" y="658"/>
      <point x="278.5" y="660" type="curve" smooth="yes"/>
      <point x="221.5" y="663"/>
      <point x="183.5" y="613"/>
      <point x="171" y="559" type="curve"/>
      <point x="120" y="559" type="line"/>
      <point x="137" y="640"/>
      <point x="193" y="709.5"/>
      <point x="281.5" y="708.5" type="curve" smooth="yes"/>
      <point x="363" y="708"/>
      <point x="397.5" y="641.5"/>
      <point x="387.5" y="581.5" type="curve" smooth="yes"/>
      <point x="380" y="536.5"/>
      <point x="349.5" y="498.5"/>
      <point x="314.5" y="466" type="curve" smooth="yes"/>
      <point x="163" y="330.5" type="line"/>
      <point x="346" y="329.5" type="line"/>
      <point x="338" y="282.5" type="line"/>
    </contour>
    <contour>
      <point x="813" y="135.5" type="curve" smooth="yes"/>
      <point x="801" y="49"/>
      <point x="729.5" y="-7.5"/>
      <point x="647.5" y="-7.5" type="curve" smooth="yes"/>
      <point x="578.5" y="-7.5"/>
      <point x="539.5" y="30"/>
      <point x="515" y="81" type="curve"/>
      <point x="560.5" y="110" type="line"/>
      <point x="576.5" y="74"/>
      <point x="606" y="41"/>
      <point x="650.5" y="40.5" type="curve" smooth="yes"/>
      <point x="708" y="40"/>
      <point x="752" y="82"/>
      <point x="760.5" y="136" type="curve" smooth="yes"/>
      <point x="768.5" y="187.5"/>
      <point x="741" y="228.5"/>
      <point x="688.5" y="231.5" type="curve" smooth="yes"/>
      <point x="648" y="233.5"/>
      <point x="615" y="218.5"/>
      <point x="576" y="195.5" type="curve"/>
      <point x="609.5" y="233.5" type="line"/>
      <point x="637.5" y="260.5"/>
      <point x="676" y="278"/>
      <point x="712.5" y="277.5" type="curve" smooth="yes"/>
      <point x="787" y="276.5"/>
      <point x="823" y="208.5"/>
    </contour>
    <contour>
      <point x="700" y="373" type="line"/>
      <point x="646.5" y="246.5" type="line"/>
      <point x="570" y="190" type="line"/>
      <point x="666.5" y="417.5" type="line"/>
      <point x="860" y="417.5" type="line"/>
      <point x="852.5" y="373.5" type="line"/>
    </contour>
  </outline>
</glyph>
<glyph name="uni2157" format="2">
  <advance width="806"/>
  <unicode hex="2157"/>
  <outline>
    <contour>
      <point x="726" y="699" type="line"/>
      <point x="791.5" y="698.5" type="line"/>
      <point x="169" y="0" type="line"/>
      <point x="103.5" y="0" type="line"/>
    </contour>
    <contour>
      <point x="197.5" y="488" type="curve"/>
      <point x="202.5" y="520" type="line"/>
      <point x="251.5" y="525"/>
      <point x="290" y="549.5"/>
      <point x="298.5" y="593" type="curve" smooth="yes"/>
      <point x="304" y="628"/>
      <point x="288.5" y="658"/>
      <point x="250" y="659.5" type="curve" smooth="yes"/>
      <point x="210.5" y="661.5"/>
      <point x="180" y="629.5"/>
      <point x="169.5" y="597" type="curve"/>
      <point x="120.5" y="597.5" type="line"/>
      <point x="135.5" y="657.5"/>
      <point x="184" y="706.5"/>
      <point x="253" y="705.5" type="curve" smooth="yes"/>
      <point x="320" y="704.5"/>
      <point x="359" y="651.5"/>
      <point x="349.5" y="593.5" type="curve" smooth="yes"/>
      <point x="338" y="528"/>
      <point x="271.5" y="492.5"/>
    </contour>
    <contour>
      <point x="181.5" y="274.5" type="curve" smooth="yes"/>
      <point x="104" y="274.5"/>
      <point x="64.5" y="325.5"/>
      <point x="68" y="391" type="curve"/>
      <point x="118.5" y="391" type="line"/>
      <point x="118.5" y="352.5"/>
      <point x="138.5" y="323.5"/>
      <point x="184.5" y="322.5" type="curve" smooth="yes"/>
      <point x="230" y="321.5"/>
      <point x="269.5" y="354.5"/>
      <point x="276" y="397.5" type="curve" smooth="yes"/>
      <point x="284.5" y="450"/>
      <point x="243.5" y="470.5"/>
      <point x="195" y="475" type="curve"/>
      <point x="200.5" y="507.5" type="line"/>
      <point x="275" y="503.5"/>
      <point x="339" y="471.5"/>
      <point x="327" y="390.5" type="curve" smooth="yes"/>
      <point x="317" y="322"/>
      <point x="253" y="274.5"/>
    </contour>
    <contour>
      <point x="774.5" y="135.5" type="curve" smooth="yes"/>
      <point x="762.5" y="49"/>
      <point x="691" y="-7.5"/>
      <point x="609" y="-7.5" type="curve" smooth="yes"/>
      <point x="540" y="-7.5"/>
      <point x="500.5" y="30"/>
      <point x="476" y="81" type="curve"/>
      <point x="521.5" y="110" type="line"/>
      <point x="537.5" y="74"/>
      <point x="567" y="41"/>
      <point x="611.5" y="40.5" type="curve" smooth="yes"/>
      <point x="669" y="40"/>
      <point x="713.5" y="82"/>
      <point x="722" y="136" type="curve" smooth="yes"/>
      <point x="730" y="187.5"/>
      <point x="702" y="228.5"/>
      <point x="649.5" y="231.5" type="curve" smooth="yes"/>
      <point x="609" y="233.5"/>
      <point x="576" y="218.5"/>
      <point x="537" y="195.5" type="curve"/>
      <point x="571" y="233.5" type="line"/>
      <point x="599" y="260.5"/>
      <point x="637.5" y="278"/>
      <point x="674" y="277.5" type="curve" smooth="yes"/>
      <point x="748.5" y="276.5"/>
      <point x="784.5" y="208.5"/>
    </contour>
    <contour>
      <point x="661" y="373" type="line"/>
      <point x="607.5" y="246.5" type="line"/>
      <point x="531.5" y="190" type="line"/>
      <point x="627.5" y="417.5" type="line"/>
      <point x="821" y="417.5" type="line"/>
      <point x="813.5" y="373.5" type="line"/>
    </contour>
  </outline>
</glyph>
<glyph name="uni2158" format="2">
  <advance width="840"/>
  <unicode hex="2158"/>
  <outline>
    <contour>
      <point x="760" y="699" type="line"/>
      <point x="825.5" y="698.5" type="line"/>
      <point x="203" y="0" type="line"/>
      <point x="137.5" y="0" type="line"/>
    </contour>
    <contour>
      <point x="64" y="365" type="line"/>
      <point x="110" y="408" type="line"/>
      <point x="286.5" y="409" type="line"/>
      <point x="296.5" y="409" type="line"/>
      <point x="382.5" y="408.5" type="line"/>
      <point x="375.5" y="364.5" type="line"/>
    </contour>
    <contour>
      <point x="118.5" y="365" type="line"/>
      <point x="63.5" y="365.5" type="line"/>
      <point x="346" y="699" type="line"/>
      <point x="368" y="699.5" type="line"/>
      <point x="297" y="280.5" type="line"/>
      <point x="246.5" y="280.5" type="line"/>
      <point x="264.5" y="386" type="line"/>
      <point x="265" y="392" type="line"/>
      <point x="297.5" y="581.5" type="line"/>
    </contour>
    <contour>
      <point x="808.5" y="135.5" type="curve" smooth="yes"/>
      <point x="796.5" y="49"/>
      <point x="725" y="-7.5"/>
      <point x="643" y="-7.5" type="curve" smooth="yes"/>
      <point x="574" y="-7.5"/>
      <point x="534.5" y="30"/>
      <point x="510" y="81" type="curve"/>
      <point x="555.5" y="110" type="line"/>
      <point x="571.5" y="74"/>
      <point x="601" y="41"/>
      <point x="645.5" y="40.5" type="curve" smooth="yes"/>
      <point x="703" y="40"/>
      <point x="747.5" y="82"/>
      <point x="756" y="136" type="curve" smooth="yes"/>
      <point x="764" y="187.5"/>
      <point x="736" y="228.5"/>
      <point x="683.5" y="231.5" type="curve" smooth="yes"/>
      <point x="643" y="233.5"/>
      <point x="610" y="218.5"/>
      <point x="571" y="195.5" type="curve"/>
      <point x="605" y="233.5" type="line"/>
      <point x="633" y="260.5"/>
      <point x="671.5" y="278"/>
      <point x="708" y="277.5" type="curve" smooth="yes"/>
      <point x="782.5" y="276.5"/>
      <point x="818.5" y="208.5"/>
    </contour>
    <contour>
      <point x="695" y="373" type="line"/>
      <point x="641.5" y="246.5" type="line"/>
      <point x="565.5" y="190" type="line"/>
      <point x="661.5" y="417.5" type="line"/>
      <point x="855" y="417.5" type="line"/>
      <point x="847.5" y="373.5" type="line"/>
    </contour>
  </outline>
</glyph>
<glyph name="uni2159" format="2">
  <advance width="712"/>
  <unicode hex="2159"/>
  <outline>
    <contour>
      <point x="641.5" y="699" type="line"/>
      <point x="707" y="698.5" type="line"/>
      <point x="84.5" y="0" type="line"/>
      <point x="19" y="0" type="line"/>
    </contour>
    <contour>
      <point x="106.5" y="612" type="line"/>
      <point x="114.5" y="664" type="line"/>
      <point x="263" y="700.5" type="line"/>
      <point x="189.5" y="274.5" type="line"/>
      <point x="138.5" y="274.5" type="line"/>
      <point x="199.5" y="637.5" type="line"/>
    </contour>
    <contour>
      <point x="455" y="136" type="curve" smooth="yes"/>
      <point x="447.5" y="85.5"/>
      <point x="473.5" y="39.5"/>
      <point x="527" y="38.5" type="curve" smooth="yes"/>
      <point x="581" y="37"/>
      <point x="629" y="83"/>
      <point x="637.5" y="136" type="curve" smooth="yes"/>
      <point x="645" y="186.5"/>
      <point x="619" y="233"/>
      <point x="565.5" y="234.5" type="curve" smooth="yes"/>
      <point x="511.5" y="236"/>
      <point x="463.5" y="189"/>
    </contour>
    <contour>
      <point x="617" y="417" type="line"/>
      <point x="682.5" y="416.5" type="line"/>
      <point x="526" y="245.5" type="line"/>
      <point x="521.5" y="250.5" type="line"/>
      <point x="540" y="265"/>
      <point x="560.5" y="272.5"/>
      <point x="586" y="272" type="curve" smooth="yes"/>
      <point x="656" y="271"/>
      <point x="695" y="203.5"/>
      <point x="686" y="135.5" type="curve" smooth="yes"/>
      <point x="674.5" y="55"/>
      <point x="605" y="-7.5"/>
      <point x="524.5" y="-7.5" type="curve" smooth="yes"/>
      <point x="444" y="-7.5"/>
      <point x="395" y="58"/>
      <point x="406.5" y="136.5" type="curve" smooth="yes"/>
      <point x="411.5" y="169.5"/>
      <point x="427.5" y="199.5"/>
      <point x="447" y="223" type="curve"/>
    </contour>
  </outline>
</glyph>
<glyph name="threeeighths" format="1">
  <advance width="821"/>
  <unicode hex="215C"/>
  <outline>
    <contour>
      <point x="726" y="699" type="line"/>
      <point x="791.5" y="698.5" type="line"/>
      <point x="169" y="0" type="line"/>
      <point x="103.5" y="0" type="line"/>
    </contour>
    <contour>
      <point x="197.5" y="488" type="curve"/>
      <point x="202.5" y="520" type="line"/>
      <point x="251.5" y="525"/>
      <point x="290" y="549.5"/>
      <point x="298.5" y="593" type="curve" smooth="yes"/>
      <point x="304" y="628"/>
      <point x="288.5" y="658"/>
      <point x="250" y="659.5" type="curve" smooth="yes"/>
      <point x="210.5" y="661.5"/>
      <point x="180" y="629.5"/>
      <point x="169.5" y="597" type="curve"/>
      <point x="120.5" y="597.5" type="line"/>
      <point x="135.5" y="657.5"/>
      <point x="184" y="706.5"/>
      <point x="253" y="705.5" type="curve" smooth="yes"/>
      <point x="320" y="704.5"/>
      <point x="359" y="651.5"/>
      <point x="349.5" y="593.5" type="curve" smooth="yes"/>
      <point x="338" y="528"/>
      <point x="271.5" y="492.5"/>
    </contour>
    <contour>
      <point x="181.5" y="274.5" type="curve" smooth="yes"/>
      <point x="104" y="274.5"/>
      <point x="64.5" y="325.5"/>
      <point x="68" y="391" type="curve"/>
      <point x="118.5" y="391" type="line"/>
      <point x="118.5" y="352.5"/>
      <point x="138.5" y="323.5"/>
      <point x="184.5" y="322.5" type="curve" smooth="yes"/>
      <point x="230" y="321.5"/>
      <point x="269.5" y="354.5"/>
      <point x="276" y="397.5" type="curve" smooth="yes"/>
      <point x="284.5" y="450"/>
      <point x="243.5" y="470.5"/>
      <point x="195" y="475" type="curve"/>
      <point x="200.5" y="507.5" type="line"/>
      <point x="275" y="503.5"/>
      <point x="339" y="471.5"/>
      <point x="327" y="390.5" type="curve" smooth="yes"/>
      <point x="317" y="322"/>
      <point x="253" y="274.5"/>
    </contour>
    <contour>
      <point x="579.5" y="319.5" type="curve" smooth="yes"/>
      <point x="588.5" y="377.5"/>
      <point x="646" y="426"/>
      <point x="709" y="425.5" type="curve" smooth="yes"/>
      <point x="771.5" y="425"/>
      <point x="814.5" y="376"/>
      <point x="806.5" y="318.5" type="curve" smooth="yes"/>
      <point x="798" y="256.5"/>
      <point x="742" y="213"/>
      <point x="677" y="213.5" type="curve" smooth="yes"/>
      <point x="612" y="214"/>
      <point x="570.5" y="257.5"/>
    </contour>
    <contour>
      <point x="627" y="312.5" type="curve" smooth="yes"/>
      <point x="622" y="278"/>
      <point x="643.5" y="248"/>
      <point x="678.5" y="246.5" type="curve" smooth="yes"/>
      <point x="714" y="245"/>
      <point x="751.5" y="277.5"/>
      <point x="757" y="313.5" type="curve" smooth="yes"/>
      <point x="762" y="348.5"/>
      <point x="742.5" y="379"/>
      <point x="705.5" y="380.5" type="curve" smooth="yes"/>
      <point x="668" y="382"/>
      <point x="632.5" y="349"/>
    </contour>
    <contour>
      <point x="530" y="114.5" type="curve" smooth="yes"/>
      <point x="540" y="186"/>
      <point x="607" y="234"/>
      <point x="676" y="233.5" type="curve" smooth="yes"/>
      <point x="744.5" y="233.5"/>
      <point x="796" y="184.5"/>
      <point x="786" y="113.5" type="curve" smooth="yes"/>
      <point x="776" y="48.5"/>
      <point x="711.5" y="-6"/>
      <point x="640" y="-5.5" type="curve" smooth="yes"/>
      <point x="569.5" y="-5"/>
      <point x="520.5" y="50.5"/>
    </contour>
    <contour>
      <point x="579.5" y="120" type="curve" smooth="yes"/>
      <point x="572.5" y="75.5"/>
      <point x="600.5" y="40.5"/>
      <point x="643" y="39.5" type="curve" smooth="yes"/>
      <point x="686.5" y="38.5"/>
      <point x="731.5" y="73.5"/>
      <point x="738.5" y="120" type="curve" smooth="yes"/>
      <point x="744.5" y="161"/>
      <point x="717.5" y="199.5"/>
      <point x="675.5" y="200.5" type="curve" smooth="yes"/>
      <point x="632.5" y="201.5"/>
      <point x="586.5" y="162.5"/>
    </contour>
  </outline>
</glyph>
<glyph name="fiveeighths" format="2">
  <advance width="855"/>
  <unicode hex="215D"/>
  <outline>
    <contour>
      <point x="760" y="699" type="line"/>
      <point x="825.5" y="698.5" type="line"/>
      <point x="203" y="0" type="line"/>
      <point x="137.5" y="0" type="line"/>
    </contour>
    <contour>
      <point x="361" y="415.5" type="curve" smooth="yes"/>
      <point x="349" y="329"/>
      <point x="277.5" y="272.5"/>
      <point x="195.5" y="272.5" type="curve" smooth="yes"/>
      <point x="126.5" y="272.5"/>
      <point x="87.5" y="310"/>
      <point x="63" y="361" type="curve"/>
      <point x="108.5" y="390" type="line"/>
      <point x="124.5" y="354"/>
      <point x="154" y="321"/>
      <point x="198.5" y="320.5" type="curve" smooth="yes"/>
      <point x="256" y="320"/>
      <point x="300" y="362"/>
      <point x="308.5" y="416" type="curve" smooth="yes"/>
      <point x="316.5" y="467.5"/>
      <point x="289" y="508.5"/>
      <point x="236.5" y="511.5" type="curve" smooth="yes"/>
      <point x="196" y="513.5"/>
      <point x="163" y="498.5"/>
      <point x="124" y="475.5" type="curve"/>
      <point x="157.5" y="513.5" type="line"/>
      <point x="185.5" y="540.5"/>
      <point x="224" y="558"/>
      <point x="260.5" y="557.5" type="curve" smooth="yes"/>
      <point x="335" y="556.5"/>
      <point x="371" y="488.5"/>
    </contour>
    <contour>
      <point x="248" y="653" type="line"/>
      <point x="194.5" y="526.5" type="line"/>
      <point x="118" y="470" type="line"/>
      <point x="214.5" y="697.5" type="line"/>
      <point x="408" y="697.5" type="line"/>
      <point x="400.5" y="653.5" type="line"/>
    </contour>
    <contour>
      <point x="613.5" y="319.5" type="curve" smooth="yes"/>
      <point x="622.5" y="377.5"/>
      <point x="680" y="426"/>
      <point x="743" y="425.5" type="curve" smooth="yes"/>
      <point x="805.5" y="425"/>
      <point x="848.5" y="376"/>
      <point x="840.5" y="318.5" type="curve" smooth="yes"/>
      <point x="832" y="256.5"/>
      <point x="776" y="213"/>
      <point x="711" y="213.5" type="curve" smooth="yes"/>
      <point x="646" y="214"/>
      <point x="604.5" y="257.5"/>
    </contour>
    <contour>
      <point x="661" y="312.5" type="curve" smooth="yes"/>
      <point x="656" y="278"/>
      <point x="677.5" y="248"/>
      <point x="712.5" y="246.5" type="curve" smooth="yes"/>
      <point x="748" y="245"/>
      <point x="785.5" y="277.5"/>
      <point x="791" y="313.5" type="curve" smooth="yes"/>
      <point x="796" y="348.5"/>
      <point x="776.5" y="379"/>
      <point x="739.5" y="380.5" type="curve" smooth="yes"/>
      <point x="702" y="382"/>
      <point x="666.5" y="349"/>
    </contour>
    <contour>
      <point x="564" y="114.5" type="curve" smooth="yes"/>
      <point x="574" y="186"/>
      <point x="641" y="234"/>
      <point x="710" y="233.5" type="curve" smooth="yes"/>
      <point x="778.5" y="233.5"/>
      <point x="830" y="184.5"/>
      <point x="820" y="113.5" type="curve" smooth="yes"/>
      <point x="810" y="48.5"/>
      <point x="745.5" y="-6"/>
      <point x="674" y="-5.5" type="curve" smooth="yes"/>
      <point x="603.5" y="-5"/>
      <point x="554.5" y="50.5"/>
    </contour>
    <contour>
      <point x="613.5" y="120" type="curve" smooth="yes"/>
      <point x="606.5" y="75.5"/>
      <point x="634.5" y="40.5"/>
      <point x="677" y="39.5" type="curve" smooth="yes"/>
      <point x="720.5" y="38.5"/>
      <point x="765.5" y="73.5"/>
      <point x="772.5" y="120" type="curve" smooth="yes"/>
      <point x="778.5" y="161"/>
      <point x="751" y="199.5"/>
      <point x="709" y="200.5" type="curve" smooth="yes"/>
      <point x="666" y="201.5"/>
      <point x="620.5" y="162.5"/>
    </contour>
  </outline>
</glyph>
<glyph name="minus" format="2">
  <advance width="572"/>
  <unicode hex="2212"/>
  <outline>
    <contour>
      <point x="75.5" y="200.5" type="line"/>
      <point x="87.5" y="275" type="line"/>
      <point x="526" y="275" type="line"/>
      <point x="513.5" y="200" type="line"/>
    </contour>
  </outline>
</glyph>
<glyph name="uni2219" format="2">
  <advance width="291"/>
  <unicode hex="2219"/>
  <outline>
    <contour>
      <point x="135.5" y="416" type="curve" smooth="yes"/>
      <point x="138.5" y="443"/>
      <point x="170" y="471"/>
      <point x="197.5" y="469.5" type="curve" smooth="yes"/>
      <point x="226" y="468"/>
      <point x="246" y="442"/>
      <point x="243" y="414" type="curve" smooth="yes"/>
      <point x="240" y="387"/>
      <point x="208.5" y="359"/>
      <point x="181" y="360.5" type="curve" smooth="yes"/>
      <point x="152.5" y="362"/>
      <point x="132.5" y="388"/>
    </contour>
  </outline>
</glyph>
<glyph name="uniFF10" format="2">
  <advance width="562"/>
  <unicode hex="FF10"/>
  <outline>
    <contour>
      <point x="145" y="350" type="curve" smooth="yes"/>
      <point x="131" y="228.5"/>
      <point x="140.5" y="72"/>
      <point x="263.5" y="70.5" type="curve" smooth="yes"/>
      <point x="386.5" y="69"/>
      <point x="463.5" y="213.5"/>
      <point x="483" y="350" type="curve" smooth="yes"/>
      <point x="497" y="471.5"/>
      <point x="488" y="628"/>
      <point x="365" y="629.5" type="curve" smooth="yes"/>
      <point x="242" y="631"/>
      <point x="164.5" y="486.5"/>
    </contour>
    <contour>
      <point x="61" y="350" type="curve" smooth="yes"/>
      <point x="86.5" y="531.5"/>
      <point x="203" y="710"/>
      <point x="372.5" y="709.5" type="curve" smooth="yes"/>
      <point x="544" y="709"/>
      <point x="587.5" y="517.5"/>
      <point x="567" y="350" type="curve" smooth="yes"/>
      <point x="541.5" y="168.5"/>
      <point x="425" y="-10"/>
      <point x="255.5" y="-9.5" type="curve" smooth="yes"/>
      <point x="84" y="-9"/>
      <point x="40.5" y="182.5"/>
    </contour>
  </outline>
</glyph>
<glyph name="uniFF12" format="2">
  <advance width="562"/>
  <unicode hex="FF12"/>
  <outline>
    <contour>
      <point x="-2" y="0" type="line"/>
      <point x="376" y="353" type="line" smooth="yes"/>
      <point x="424" y="398"/>
      <point x="465.5" y="446.5"/>
      <point x="476.5" y="506" type="curve" smooth="yes"/>
      <point x="487" y="566.5"/>
      <point x="453.5" y="629"/>
      <point x="376.5" y="630.5" type="curve" smooth="yes"/>
      <point x="281.5" y="632.5"/>
      <point x="217" y="553.5"/>
      <point x="198" y="460.5" type="curve"/>
      <point x="115" y="461" type="line"/>
      <point x="140.5" y="598.5"/>
      <point x="237.5" y="711.5"/>
      <point x="384.5" y="710.5" type="curve" smooth="yes"/>
      <point x="521" y="710"/>
      <point x="576.5" y="599"/>
      <point x="559.5" y="499" type="curve" smooth="yes"/>
      <point x="547" y="424"/>
      <point x="497.5" y="360.5"/>
      <point x="439" y="307" type="curve" smooth="yes"/>
      <point x="183" y="80.5" type="line"/>
      <point x="492.5" y="80" type="line"/>
      <point x="479" y="0" type="line"/>
    </contour>
  </outline>
</glyph>
<glyph name="uniFF16" format="1">
  <advance width="562"/>
  <unicode hex="FF16"/>
  <outline>
    <contour>
      <point x="141.5" y="230" type="curve" smooth="yes"/>
      <point x="128" y="145.5"/>
      <point x="173" y="68"/>
      <point x="263" y="67.5" type="curve" smooth="yes"/>
      <point x="354.5" y="67"/>
      <point x="430.5" y="140.5"/>
      <point x="445.5" y="230" type="curve" smooth="yes"/>
      <point x="459" y="314.5"/>
      <point x="415" y="394"/>
      <point x="324.5" y="394.5" type="curve" smooth="yes"/>
      <point x="233" y="395"/>
      <point x="156.5" y="319.5"/>
    </contour>
    <contour>
      <point x="412.5" y="699.5" type="line"/>
      <point x="521" y="699.5" type="line"/>
      <point x="258" y="411.5" type="line"/>
      <point x="251" y="418.5" type="line"/>
      <point x="282" y="445.5"/>
      <point x="316.5" y="457"/>
      <point x="360" y="456.5" type="curve" smooth="yes"/>
      <point x="478" y="455"/>
      <point x="541" y="343.5"/>
      <point x="525.5" y="229.5" type="curve" smooth="yes"/>
      <point x="505.5" y="94"/>
      <point x="391.5" y="-9.5"/>
      <point x="255.5" y="-9.5" type="curve" smooth="yes"/>
      <point x="120.5" y="-9.5"/>
      <point x="43.5" y="99.5"/>
      <point x="62" y="230" type="curve" smooth="yes"/>
      <point x="70.5" y="285.5"/>
      <point x="95" y="336"/>
      <point x="128" y="375" type="curve" smooth="yes"/>
    </contour>
  </outline>
</glyph>
<glyph name="a.alt" format="1">
  <advance width="470"/>
  <outline>
    <contour>
      <point x="103.5" y="135" type="curve" smooth="yes"/>
      <point x="96.5" y="87.5"/>
      <point x="134.5" y="62.5"/>
      <point x="182.5" y="61.5" type="curve" smooth="yes"/>
      <point x="263" y="59.5"/>
      <point x="319.5" y="104"/>
      <point x="338.5" y="179.5" type="curve"/>
      <point x="346" y="129" type="line"/>
      <point x="325.5" y="44.5"/>
      <point x="251" y="-10"/>
      <point x="156.5" y="-9.5" type="curve" smooth="yes"/>
      <point x="72" y="-9"/>
      <point x="11.5" y="45.5"/>
      <point x="23.5" y="132.5" type="curve" smooth="yes"/>
      <point x="38.5" y="230"/>
      <point x="129" y="286"/>
      <point x="238.5" y="285.5" type="curve" smooth="yes"/>
      <point x="309.5" y="285"/>
      <point x="355" y="253.5"/>
      <point x="379" y="224.5" type="curve"/>
      <point x="371.5" y="178.5" type="line"/>
      <point x="331" y="209"/>
      <point x="289.5" y="225"/>
      <point x="237" y="224.5" type="curve" smooth="yes"/>
      <point x="167.5" y="224"/>
      <point x="112.5" y="193.5"/>
    </contour>
    <contour>
      <point x="142" y="352" type="curve"/>
      <point x="113" y="414.5" type="line"/>
      <point x="158" y="442"/>
      <point x="217.5" y="470"/>
      <point x="291" y="469.5" type="curve" smooth="yes"/>
      <point x="385.5" y="469"/>
      <point x="457" y="418"/>
      <point x="442" y="330" type="curve" smooth="yes"/>
      <point x="385.5" y="0" type="line"/>
      <point x="306" y="0" type="line"/>
      <point x="364.5" y="330" type="line" smooth="yes"/>
      <point x="372" y="373.5"/>
      <point x="332.5" y="398"/>
      <point x="284" y="399" type="curve" smooth="yes"/>
      <point x="225" y="400"/>
      <point x="175.5" y="371.5"/>
    </contour>
  </outline>
</glyph>
<glyph name="aogonek.alt" format="1">
  <advance width="470"/>
  <outline>
    <contour>
      <point x="103.5" y="135" type="curve" smooth="yes"/>
      <point x="96.5" y="87.5"/>
      <point x="134.5" y="62.5"/>
      <point x="182.5" y="61.5" type="curve" smooth="yes"/>
      <point x="263" y="59.5"/>
      <point x="319.5" y="104"/>
      <point x="338.5" y="179.5" type="curve"/>
      <point x="346" y="129" type="line"/>
      <point x="325.5" y="44.5"/>
      <point x="251" y="-10"/>
      <point x="156.5" y="-9.5" type="curve" smooth="yes"/>
      <point x="72" y="-9"/>
      <point x="11.5" y="45.5"/>
      <point x="23.5" y="132.5" type="curve" smooth="yes"/>
      <point x="38.5" y="230"/>
      <point x="129" y="286"/>
      <point x="238.5" y="285.5" type="curve" smooth="yes"/>
      <point x="309.5" y="285"/>
      <point x="355" y="253.5"/>
      <point x="379" y="224.5" type="curve"/>
      <point x="371.5" y="178.5" type="line"/>
      <point x="331" y="209"/>
      <point x="289.5" y="225"/>
      <point x="237" y="224.5" type="curve" smooth="yes"/>
      <point x="167.5" y="224"/>
      <point x="112.5" y="193.5"/>
    </contour>
    <contour>
      <point x="142" y="352" type="curve"/>
      <point x="113" y="414.5" type="line"/>
      <point x="158" y="442"/>
      <point x="217.5" y="470"/>
      <point x="291" y="469.5" type="curve" smooth="yes"/>
      <point x="385.5" y="469"/>
      <point x="453.5" y="419"/>
      <point x="442" y="330" type="curve"/>
      <point x="385.5" y="0" type="line"/>
      <point x="306" y="0" type="line"/>
      <point x="364.5" y="330" type="line"/>
      <point x="365" y="375"/>
      <point x="332.5" y="398"/>
      <point x="284" y="399" type="curve" smooth="yes"/>
      <point x="225" y="400"/>
      <point x="175.5" y="371.5"/>
    </contour>
    <contour>
      <point x="367" y="-130" type="curve"/>
      <point x="392" y="-181.5" type="line"/>
      <point x="370" y="-201"/>
      <point x="340.5" y="-219"/>
      <point x="301.5" y="-219.5" type="curve" smooth="yes"/>
      <point x="229.5" y="-220.5"/>
      <point x="187" y="-180"/>
      <point x="196" y="-119.5" type="curve" smooth="yes"/>
      <point x="207" y="-53.5"/>
      <point x="281.5" y="-8.5"/>
      <point x="348" y="24.5" type="curve"/>
      <point x="386" y="0" type="line"/>
      <point x="339.5" y="-22.5"/>
      <point x="285" y="-56"/>
      <point x="278" y="-100" type="curve" smooth="yes"/>
      <point x="275" y="-129"/>
      <point x="287" y="-147.5"/>
      <point x="314.5" y="-149.5" type="curve" smooth="yes"/>
      <point x="336.5" y="-151"/>
      <point x="352.5" y="-140.5"/>
    </contour>
  </outline>
</glyph>
<glyph name="atilde.alt" format="2">
  <advance width="470"/>
  <outline>
    <contour>
      <point x="103.5" y="135" type="curve" smooth="yes"/>
      <point x="95.5" y="86.5"/>
      <point x="128.5" y="62.5"/>
      <point x="182.5" y="61.5" type="curve" smooth="yes"/>
      <point x="263.5" y="60"/>
      <point x="319.5" y="103.5"/>
      <point x="338.5" y="179.5" type="curve"/>
      <point x="346" y="129" type="line"/>
      <point x="325.5" y="44.5"/>
      <point x="251" y="-10"/>
      <point x="156.5" y="-9.5" type="curve" smooth="yes"/>
      <point x="69.5" y="-9"/>
      <point x="10.5" y="43.5"/>
      <point x="22.5" y="125.5" type="curve" smooth="yes"/>
      <point x="37" y="228.5"/>
      <point x="133" y="286"/>
      <point x="238.5" y="285.5" type="curve" smooth="yes"/>
      <point x="309.5" y="285.5"/>
      <point x="355" y="253.5"/>
      <point x="379" y="224.5" type="curve"/>
      <point x="371.5" y="178.5" type="line"/>
      <point x="331" y="209"/>
      <point x="289.5" y="225"/>
      <point x="237" y="224.5" type="curve" smooth="yes"/>
      <point x="167.5" y="224"/>
      <point x="113.5" y="193"/>
    </contour>
    <contour>
      <point x="142" y="352" type="curve"/>
      <point x="113" y="414.5" type="line"/>
      <point x="158" y="442"/>
      <point x="217.5" y="470"/>
      <point x="291" y="469.5" type="curve" smooth="yes"/>
      <point x="385.5" y="469"/>
      <point x="453.5" y="419"/>
      <point x="442" y="330" type="curve"/>
      <point x="385.5" y="0" type="line"/>
      <point x="306" y="0" type="line"/>
      <point x="364.5" y="330" type="line"/>
      <point x="365" y="375"/>
      <point x="332.5" y="398"/>
      <point x="284" y="399" type="curve" smooth="yes"/>
      <point x="225" y="400"/>
      <point x="175.5" y="371.5"/>
    </contour>
    <contour>
      <point x="149.5" y="568.5" type="line"/>
      <point x="169" y="611"/>
      <point x="214" y="650"/>
      <point x="262.5" y="648.5" type="curve" smooth="yes"/>
      <point x="314.5" y="647.5"/>
      <point x="328.5" y="601"/>
      <point x="375" y="602.5" type="curve" smooth="yes"/>
      <point x="398.5" y="603.5"/>
      <point x="419" y="625"/>
      <point x="438.5" y="649.5" type="curve"/>
      <point x="478" y="605.5" type="line"/>
      <point x="455" y="571.5"/>
      <point x="413.5" y="532.5"/>
      <point x="364.5" y="534.5" type="curve" smooth="yes"/>
      <point x="318" y="536"/>
      <point x="297.5" y="581.5"/>
      <point x="255.5" y="580.5" type="curve" smooth="yes"/>
      <point x="220" y="579.5"/>
      <point x="205.5" y="548.5"/>
      <point x="197" y="530.5" type="curve"/>
    </contour>
  </outline>
</glyph>
